STARTFONT 2.1
FONT -FontForge-Roboto Condensed-Book-R-Condensed---24-240-72-72-P-118-ISO10646-1
SIZE 24 72 72
FONTBOUNDINGBOX 42 31 -18 -6
COMMENT "Generated by fontforge, http://fontforge.sourceforge.net"
COMMENT "Copyright 2011 Google Inc. All Rights Reserved."
STARTPROPERTIES 41
FOUNDRY "FontForge"
FAMILY_NAME "Roboto Condensed"
WEIGHT_NAME "Book"
SLANT "R"
SETWIDTH_NAME "Condensed"
ADD_STYLE_NAME ""
PIXEL_SIZE 24
POINT_SIZE 240
RESOLUTION_X 72
RESOLUTION_Y 72
SPACING "P"
AVERAGE_WIDTH 118
CHARSET_REGISTRY "ISO10646"
CHARSET_ENCODING "1"
FONTNAME_REGISTRY ""
CHARSET_COLLECTIONS "ISO8859-2 ISO8859-5 ISO8859-7 ISO8859-9 ISO8859-4 ISO10646-1"
FONT_NAME "RobotoCondensed-Regular"
FACE_NAME "Roboto Condensed"
COPYRIGHT "Copyright 2011 Google Inc. All Rights Reserved."
FONT_VERSION "2.137; 2017"
FONT_ASCENT 18
FONT_DESCENT 6
UNDERLINE_POSITION -2
UNDERLINE_THICKNESS 2
X_HEIGHT 12
CAP_HEIGHT 16
DEFAULT_CHAR 1
RAW_ASCENT 750
RAW_DESCENT 250
NORM_SPACE 6
RELATIVE_WEIGHT 40
RELATIVE_SETWIDTH 50
SUPERSCRIPT_X 0
SUPERSCRIPT_Y 11
SUPERSCRIPT_SIZE 15
SUBSCRIPT_X 0
SUBSCRIPT_Y 3
SUBSCRIPT_SIZE 15
FIGURE_WIDTH 12
AVG_LOWERCASE_WIDTH 116
AVG_UPPERCASE_WIDTH 137
ENDPROPERTIES
CHARS 1296
STARTCHAR uni0000
ENCODING 0
SWIDTH 0 0
DWIDTH 0 0
BBX 1 1 0 0
BITMAP
00
ENDCHAR
STARTCHAR uni0002
ENCODING 2
SWIDTH 0 0
DWIDTH 0 0
BBX 1 1 0 0
BITMAP
00
ENDCHAR
STARTCHAR uni000D
ENCODING 13
SWIDTH 229 0
DWIDTH 6 0
BBX 1 1 0 0
BITMAP
00
ENDCHAR
STARTCHAR space
ENCODING 32
SWIDTH 229 0
DWIDTH 6 0
BBX 1 1 0 0
BITMAP
00
ENDCHAR
STARTCHAR exclam
ENCODING 33
SWIDTH 245 0
DWIDTH 6 0
BBX 2 17 2 0
BITMAP
C0
C0
C0
C0
C0
C0
C0
C0
C0
C0
C0
C0
00
00
00
C0
C0
ENDCHAR
STARTCHAR quotedbl
ENCODING 34
SWIDTH 319 0
DWIDTH 8 0
BBX 4 6 2 12
BITMAP
90
90
90
90
90
90
ENDCHAR
STARTCHAR numbersign
ENCODING 35
SWIDTH 547 0
DWIDTH 13 0
BBX 11 17 2 0
BITMAP
0880
0880
1980
1980
FFE0
FFE0
1100
1100
3300
3300
FFC0
FFC0
2200
2200
6600
6600
6600
ENDCHAR
STARTCHAR dollar
ENCODING 36
SWIDTH 493 0
DWIDTH 12 0
BBX 10 22 1 -2
BITMAP
0C00
0C00
0C00
1E00
3F00
7380
6180
6180
6000
7000
3C00
1F00
0780
0180
01C0
C0C0
61C0
6180
7F80
1E00
0C00
0C00
ENDCHAR
STARTCHAR percent
ENCODING 37
SWIDTH 632 0
DWIDTH 15 0
BBX 13 17 1 0
BITMAP
3800
4C00
C440
C460
C4C0
C480
4D80
3900
0300
02F0
0698
0598
0D88
1988
1198
1098
00F0
ENDCHAR
STARTCHAR ampersand
ENCODING 38
SWIDTH 543 0
DWIDTH 13 0
BBX 12 17 1 0
BITMAP
1E00
3F00
3300
6180
6100
3300
3600
1C00
3C00
7E60
6660
C360
C3C0
E1C0
61C0
7FE0
1E70
ENDCHAR
STARTCHAR quotesingle
ENCODING 39
SWIDTH 174 0
DWIDTH 4 0
BBX 2 6 1 12
BITMAP
C0
C0
C0
C0
C0
C0
ENDCHAR
STARTCHAR parenleft
ENCODING 40
SWIDTH 313 0
DWIDTH 8 0
BBX 5 25 2 -6
BITMAP
08
18
30
30
60
60
60
C0
C0
C0
C0
C0
C0
C0
C0
C0
C0
C0
60
60
60
30
30
18
08
ENDCHAR
STARTCHAR parenright
ENCODING 41
SWIDTH 318 0
DWIDTH 8 0
BBX 5 25 1 -6
BITMAP
80
C0
40
60
30
30
30
18
18
18
18
18
18
18
18
18
18
18
30
30
30
60
40
C0
80
ENDCHAR
STARTCHAR asterisk
ENCODING 42
SWIDTH 430 0
DWIDTH 10 0
BBX 10 10 0 7
BITMAP
0C00
0C00
0C00
6DC0
FFC0
0C00
1E00
3300
3380
2100
ENDCHAR
STARTCHAR plus
ENCODING 43
SWIDTH 496 0
DWIDTH 12 0
BBX 10 12 1 2
BITMAP
0C00
0C00
0C00
0C00
0C00
FFC0
FFC0
0C00
0C00
0C00
0C00
0C00
ENDCHAR
STARTCHAR comma
ENCODING 44
SWIDTH 196 0
DWIDTH 5 0
BBX 4 6 0 -4
BITMAP
70
70
70
60
60
C0
ENDCHAR
STARTCHAR hyphen
ENCODING 45
SWIDTH 248 0
DWIDTH 6 0
BBX 4 2 1 6
BITMAP
F0
F0
ENDCHAR
STARTCHAR period
ENCODING 46
SWIDTH 263 0
DWIDTH 6 0
BBX 2 2 2 0
BITMAP
C0
C0
ENDCHAR
STARTCHAR slash
ENCODING 47
SWIDTH 370 0
DWIDTH 9 0
BBX 8 18 0 -1
BITMAP
03
03
02
06
06
04
0C
0C
08
18
18
10
30
30
20
60
60
C0
ENDCHAR
STARTCHAR zero
ENCODING 48
SWIDTH 493 0
DWIDTH 12 0
BBX 9 17 1 0
BITMAP
1E00
3F00
7380
6180
6180
C180
C180
C180
C180
C180
C180
C180
6180
6180
7380
3F00
1E00
ENDCHAR
STARTCHAR one
ENCODING 49
SWIDTH 493 0
DWIDTH 12 0
BBX 6 17 2 0
BITMAP
0C
7C
FC
9C
1C
1C
1C
1C
1C
1C
1C
1C
1C
1C
1C
1C
1C
ENDCHAR
STARTCHAR two
ENCODING 50
SWIDTH 493 0
DWIDTH 12 0
BBX 10 17 1 0
BITMAP
1E00
7F00
6380
E180
C180
0180
0180
0300
0300
0600
0C00
1C00
3800
3000
6000
FFC0
FFC0
ENDCHAR
STARTCHAR three
ENCODING 51
SWIDTH 493 0
DWIDTH 12 0
BBX 9 17 1 0
BITMAP
1E00
7F00
6380
E180
C180
0180
0380
1F00
1F00
0380
0180
0180
C180
E180
6380
7F00
1E00
ENDCHAR
STARTCHAR four
ENCODING 52
SWIDTH 493 0
DWIDTH 12 0
BBX 10 17 1 0
BITMAP
0300
0700
0700
0F00
0F00
1B00
1B00
3300
2300
6300
C300
FFC0
FFC0
0300
0300
0300
0300
ENDCHAR
STARTCHAR five
ENCODING 53
SWIDTH 493 0
DWIDTH 12 0
BBX 9 17 2 0
BITMAP
7F00
7F00
6000
6000
6000
C000
DE00
FF00
C300
0380
0180
0180
C180
C380
E300
7F00
3C00
ENDCHAR
STARTCHAR six
ENCODING 54
SWIDTH 493 0
DWIDTH 12 0
BBX 9 17 2 0
BITMAP
0E00
3E00
7000
6000
C000
C000
DE00
FF00
E300
C380
C180
C180
C180
C380
E300
7F00
3C00
ENDCHAR
STARTCHAR seven
ENCODING 55
SWIDTH 493 0
DWIDTH 12 0
BBX 10 17 1 0
BITMAP
FFC0
FFC0
0180
0180
0180
0300
0300
0600
0600
0600
0C00
0C00
0C00
1800
1800
3000
3000
ENDCHAR
STARTCHAR eight
ENCODING 56
SWIDTH 493 0
DWIDTH 12 0
BBX 10 17 1 0
BITMAP
1E00
3F00
7380
6180
6180
6180
7380
3F00
3F00
7380
6180
E1C0
E1C0
6180
6180
3F00
1E00
ENDCHAR
STARTCHAR nine
ENCODING 57
SWIDTH 493 0
DWIDTH 12 0
BBX 9 17 1 0
BITMAP
1E00
3F00
7380
6180
C180
C180
C180
C180
6180
6380
7F80
1D80
0180
0300
0700
3E00
3800
ENDCHAR
STARTCHAR colon
ENCODING 58
SWIDTH 233 0
DWIDTH 6 0
BBX 2 12 2 0
BITMAP
C0
C0
00
00
00
00
00
00
00
00
C0
C0
ENDCHAR
STARTCHAR semicolon
ENCODING 59
SWIDTH 202 0
DWIDTH 5 0
BBX 3 16 1 -4
BITMAP
60
E0
00
00
00
00
00
00
00
00
60
60
60
C0
C0
80
ENDCHAR
STARTCHAR less
ENCODING 60
SWIDTH 445 0
DWIDTH 11 0
BBX 8 11 1 2
BITMAP
01
07
0F
3C
F0
C0
F0
3C
0F
07
01
ENDCHAR
STARTCHAR equal
ENCODING 61
SWIDTH 479 0
DWIDTH 12 0
BBX 8 7 2 5
BITMAP
FF
FF
00
00
00
FF
FF
ENDCHAR
STARTCHAR greater
ENCODING 62
SWIDTH 459 0
DWIDTH 11 0
BBX 8 11 2 2
BITMAP
80
C0
F0
3C
0F
03
0F
3C
F0
C0
80
ENDCHAR
STARTCHAR question
ENCODING 63
SWIDTH 421 0
DWIDTH 10 0
BBX 8 17 1 0
BITMAP
3C
7E
E7
C3
03
03
07
06
0C
1C
18
18
18
00
00
18
18
ENDCHAR
STARTCHAR at
ENCODING 64
SWIDTH 769 0
DWIDTH 18 0
BBX 16 22 1 -5
BITMAP
03E0
0FF8
1C1C
3806
3006
61E2
63F3
4723
C621
C621
C421
CC61
CC63
CC63
C666
C7BE
633C
6000
3000
3820
1FE0
07C0
ENDCHAR
STARTCHAR A
ENCODING 65
SWIDTH 576 0
DWIDTH 14 0
BBX 12 17 1 0
BITMAP
0600
0600
0F00
0F00
0F00
1980
1980
1980
30C0
30C0
30C0
7FE0
7FE0
6060
E070
C030
C030
ENDCHAR
STARTCHAR B
ENCODING 66
SWIDTH 545 0
DWIDTH 13 0
BBX 10 17 2 0
BITMAP
FE00
FF80
C380
C180
C180
C180
C380
FF00
FF00
C180
C1C0
C1C0
C0C0
C1C0
C180
FF80
FE00
ENDCHAR
STARTCHAR C
ENCODING 67
SWIDTH 566 0
DWIDTH 14 0
BBX 11 17 2 0
BITMAP
1F00
3F80
71C0
E0C0
C0E0
C060
C000
C000
C000
C000
C000
C060
C0E0
E0C0
71C0
3F80
1F00
ENDCHAR
STARTCHAR D
ENCODING 68
SWIDTH 570 0
DWIDTH 14 0
BBX 10 17 2 0
BITMAP
FE00
FF00
C380
C1C0
C0C0
C0C0
C0C0
C0C0
C0C0
C0C0
C0C0
C0C0
C0C0
C1C0
C380
FF00
FE00
ENDCHAR
STARTCHAR E
ENCODING 69
SWIDTH 496 0
DWIDTH 12 0
BBX 9 17 2 0
BITMAP
FF80
FF80
C000
C000
C000
C000
C000
FF00
FF00
C000
C000
C000
C000
C000
C000
FF80
FF80
ENDCHAR
STARTCHAR F
ENCODING 70
SWIDTH 480 0
DWIDTH 12 0
BBX 9 17 2 0
BITMAP
FF80
FF80
C000
C000
C000
C000
C000
FF00
FF00
C000
C000
C000
C000
C000
C000
C000
C000
ENDCHAR
STARTCHAR G
ENCODING 71
SWIDTH 590 0
DWIDTH 14 0
BBX 11 17 1 0
BITMAP
1F80
3FC0
70E0
6060
6060
E000
E000
E000
E000
E3E0
E3E0
E060
6060
6060
7060
3FE0
0F80
ENDCHAR
STARTCHAR H
ENCODING 72
SWIDTH 620 0
DWIDTH 15 0
BBX 11 17 2 0
BITMAP
C060
C060
C060
C060
C060
C060
C060
FFE0
FFE0
C060
C060
C060
C060
C060
C060
C060
C060
ENDCHAR
STARTCHAR I
ENCODING 73
SWIDTH 250 0
DWIDTH 6 0
BBX 2 17 2 0
BITMAP
C0
C0
C0
C0
C0
C0
C0
C0
C0
C0
C0
C0
C0
C0
C0
C0
C0
ENDCHAR
STARTCHAR J
ENCODING 74
SWIDTH 483 0
DWIDTH 12 0
BBX 9 17 1 0
BITMAP
0180
0180
0180
0180
0180
0180
0180
0180
0180
0180
0180
0180
C180
C380
E300
7F00
3C00
ENDCHAR
STARTCHAR K
ENCODING 75
SWIDTH 544 0
DWIDTH 13 0
BBX 11 17 2 0
BITMAP
C0E0
C180
C380
C700
C600
CC00
DC00
F800
FC00
EC00
EE00
C700
C300
C380
C180
C1C0
C0E0
ENDCHAR
STARTCHAR L
ENCODING 76
SWIDTH 475 0
DWIDTH 11 0
BBX 9 17 2 0
BITMAP
C000
C000
C000
C000
C000
C000
C000
C000
C000
C000
C000
C000
C000
C000
C000
FF80
FF80
ENDCHAR
STARTCHAR M
ENCODING 77
SWIDTH 755 0
DWIDTH 18 0
BBX 14 17 2 0
BITMAP
E01C
E01C
E01C
F03C
F03C
F03C
D86C
D86C
D86C
CCCC
CCCC
CCCC
C78C
C78C
C78C
C30C
C30C
ENDCHAR
STARTCHAR N
ENCODING 78
SWIDTH 619 0
DWIDTH 15 0
BBX 11 17 2 0
BITMAP
C060
E060
E060
F060
F060
D860
DC60
CC60
CE60
C660
C360
C360
C1E0
C1E0
C0E0
C0E0
C060
ENDCHAR
STARTCHAR O
ENCODING 79
SWIDTH 600 0
DWIDTH 14 0
BBX 12 17 1 0
BITMAP
0F80
3FC0
70E0
6060
6060
C070
C030
C030
C030
C030
C030
C070
6060
6060
70E0
3FC0
1F80
ENDCHAR
STARTCHAR P
ENCODING 80
SWIDTH 554 0
DWIDTH 13 0
BBX 10 17 2 0
BITMAP
FE00
FF80
C1C0
C0C0
C0C0
C0C0
C0C0
C0C0
C1C0
FF80
FF00
C000
C000
C000
C000
C000
C000
ENDCHAR
STARTCHAR Q
ENCODING 81
SWIDTH 600 0
DWIDTH 14 0
BBX 12 20 1 -3
BITMAP
1F00
3FC0
70E0
6060
E060
C070
C070
C070
C070
C070
C070
C070
E060
6060
70E0
3FC0
1FC0
00E0
0070
0020
ENDCHAR
STARTCHAR R
ENCODING 82
SWIDTH 530 0
DWIDTH 13 0
BBX 10 17 2 0
BITMAP
FE00
FF80
C180
C1C0
C0C0
C0C0
C1C0
C380
FF80
FE00
C700
C300
C300
C180
C180
C0C0
C0C0
ENDCHAR
STARTCHAR S
ENCODING 83
SWIDTH 518 0
DWIDTH 12 0
BBX 10 17 1 0
BITMAP
1E00
7F80
6180
E0C0
C0C0
E000
6000
7C00
1F00
0780
01C0
00C0
C0C0
C0C0
61C0
7F80
1F00
ENDCHAR
STARTCHAR T
ENCODING 84
SWIDTH 520 0
DWIDTH 13 0
BBX 11 17 1 0
BITMAP
FFE0
FFE0
0C00
0C00
0C00
0C00
0C00
0C00
0C00
0C00
0C00
0C00
0C00
0C00
0C00
0C00
0C00
ENDCHAR
STARTCHAR U
ENCODING 85
SWIDTH 561 0
DWIDTH 13 0
BBX 11 17 1 0
BITMAP
C060
C060
C060
C060
C060
C060
C060
C060
C060
C060
C060
C060
C060
E0E0
71C0
7FC0
1F00
ENDCHAR
STARTCHAR V
ENCODING 86
SWIDTH 560 0
DWIDTH 13 0
BBX 13 17 0 0
BITMAP
E038
6030
6030
7070
3060
3060
3060
18C0
18C0
18C0
0D80
0D80
0D80
0D80
0700
0700
0700
ENDCHAR
STARTCHAR W
ENCODING 87
SWIDTH 761 0
DWIDTH 18 0
BBX 17 17 1 0
BITMAP
C18380
C1C300
C1C300
61C300
63C300
634700
636600
626600
366600
362600
363600
343C00
343C00
1C1C00
1C1C00
1C1C00
181800
ENDCHAR
STARTCHAR X
ENCODING 88
SWIDTH 550 0
DWIDTH 13 0
BBX 11 17 1 0
BITMAP
E060
60E0
70C0
31C0
3980
1B00
1F00
0E00
0E00
0E00
1F00
1B80
3980
31C0
70C0
60E0
E060
ENDCHAR
STARTCHAR Y
ENCODING 89
SWIDTH 524 0
DWIDTH 13 0
BBX 12 17 0 0
BITMAP
E030
6070
7060
30E0
38C0
18C0
1980
0D80
0F00
0700
0600
0600
0600
0600
0600
0600
0600
ENDCHAR
STARTCHAR Z
ENCODING 90
SWIDTH 522 0
DWIDTH 13 0
BBX 11 17 1 0
BITMAP
FFC0
FFC0
00C0
0180
0380
0300
0600
0600
0C00
1C00
1800
3800
3000
6000
E000
FFE0
FFE0
ENDCHAR
STARTCHAR bracketleft
ENCODING 91
SWIDTH 250 0
DWIDTH 6 0
BBX 4 24 2 -4
BITMAP
F0
F0
C0
C0
C0
C0
C0
C0
C0
C0
C0
C0
C0
C0
C0
C0
C0
C0
C0
C0
C0
C0
F0
F0
ENDCHAR
STARTCHAR backslash
ENCODING 92
SWIDTH 369 0
DWIDTH 9 0
BBX 8 18 1 -1
BITMAP
C0
C0
C0
60
60
60
30
30
30
18
18
18
0C
0C
0C
06
06
07
ENDCHAR
STARTCHAR bracketright
ENCODING 93
SWIDTH 250 0
DWIDTH 6 0
BBX 4 24 0 -4
BITMAP
F0
F0
30
30
30
30
30
30
30
30
30
30
30
30
30
30
30
30
30
30
30
30
F0
F0
ENDCHAR
STARTCHAR asciicircum
ENCODING 94
SWIDTH 371 0
DWIDTH 9 0
BBX 7 8 1 9
BITMAP
10
38
38
28
6C
6C
C6
C6
ENDCHAR
STARTCHAR underscore
ENCODING 95
SWIDTH 404 0
DWIDTH 10 0
BBX 9 2 0 -2
BITMAP
FF80
FF80
ENDCHAR
STARTCHAR grave
ENCODING 96
SWIDTH 309 0
DWIDTH 7 0
BBX 5 3 1 15
BITMAP
E0
70
38
ENDCHAR
STARTCHAR a
ENCODING 97
SWIDTH 479 0
DWIDTH 12 0
BBX 8 13 2 0
BITMAP
3C
7E
C3
C3
03
3F
7F
E3
C3
C3
C7
FF
7B
ENDCHAR
STARTCHAR b
ENCODING 98
SWIDTH 493 0
DWIDTH 12 0
BBX 9 18 2 0
BITMAP
C000
C000
C000
C000
C000
DE00
FF00
E300
C380
C180
C180
C180
C180
C180
C380
E300
FF00
DE00
ENDCHAR
STARTCHAR c
ENCODING 99
SWIDTH 461 0
DWIDTH 11 0
BBX 9 13 1 0
BITMAP
1E00
7F00
6380
C180
C180
C000
C000
C000
C000
C180
6380
7F00
1E00
ENDCHAR
STARTCHAR d
ENCODING 100
SWIDTH 496 0
DWIDTH 12 0
BBX 9 18 1 0
BITMAP
0180
0180
0180
0180
0180
3D80
7F80
6380
E180
C180
C180
C180
C180
C180
E180
6380
7F80
3D80
ENDCHAR
STARTCHAR e
ENCODING 101
SWIDTH 468 0
DWIDTH 11 0
BBX 9 13 1 0
BITMAP
1E00
7F00
6380
C180
C180
FF80
FF80
C000
C000
C000
6180
7F80
3E00
ENDCHAR
STARTCHAR f
ENCODING 102
SWIDTH 316 0
DWIDTH 8 0
BBX 7 18 1 0
BITMAP
1E
3E
30
30
30
FC
FC
30
30
30
30
30
30
30
30
30
30
30
ENDCHAR
STARTCHAR g
ENCODING 103
SWIDTH 492 0
DWIDTH 12 0
BBX 9 18 1 -5
BITMAP
3D80
7F80
6380
E180
C180
C180
C180
C180
C180
E180
6380
7F80
3D80
0180
0180
6380
7F00
1E00
ENDCHAR
STARTCHAR h
ENCODING 104
SWIDTH 482 0
DWIDTH 12 0
BBX 8 18 2 0
BITMAP
C0
C0
C0
C0
C0
DE
FF
E3
C3
C3
C3
C3
C3
C3
C3
C3
C3
C3
ENDCHAR
STARTCHAR i
ENCODING 105
SWIDTH 229 0
DWIDTH 6 0
BBX 2 17 2 0
BITMAP
C0
C0
00
00
C0
C0
C0
C0
C0
C0
C0
C0
C0
C0
C0
C0
C0
ENDCHAR
STARTCHAR j
ENCODING 106
SWIDTH 223 0
DWIDTH 5 0
BBX 4 22 0 -5
BITMAP
60
70
00
00
70
70
70
70
70
70
70
70
70
70
70
70
70
70
70
60
E0
C0
ENDCHAR
STARTCHAR k
ENCODING 107
SWIDTH 450 0
DWIDTH 11 0
BBX 9 18 2 0
BITMAP
C000
C000
C000
C000
C000
C700
C600
CC00
DC00
D800
F000
F800
F800
CC00
CE00
C600
C700
C380
ENDCHAR
STARTCHAR l
ENCODING 108
SWIDTH 229 0
DWIDTH 6 0
BBX 2 18 2 0
BITMAP
C0
C0
C0
C0
C0
C0
C0
C0
C0
C0
C0
C0
C0
C0
C0
C0
C0
C0
ENDCHAR
STARTCHAR m
ENCODING 109
SWIDTH 752 0
DWIDTH 18 0
BBX 14 13 2 0
BITMAP
9C78
FEFC
C78C
C30C
C30C
C30C
C30C
C30C
C30C
C30C
C30C
C30C
C30C
ENDCHAR
STARTCHAR n
ENCODING 110
SWIDTH 483 0
DWIDTH 12 0
BBX 8 13 2 0
BITMAP
DE
FF
E3
C3
C3
C3
C3
C3
C3
C3
C3
C3
C3
ENDCHAR
STARTCHAR o
ENCODING 111
SWIDTH 501 0
DWIDTH 12 0
BBX 10 13 1 0
BITMAP
1E00
7F00
6380
E1C0
C0C0
C0C0
C0C0
C0C0
C0C0
E1C0
6180
7F00
1E00
ENDCHAR
STARTCHAR p
ENCODING 112
SWIDTH 493 0
DWIDTH 12 0
BBX 9 18 2 -5
BITMAP
DE00
FF00
C300
C380
C180
C180
C180
C180
C180
C380
C300
FF00
DE00
C000
C000
C000
C000
C000
ENDCHAR
STARTCHAR q
ENCODING 113
SWIDTH 500 0
DWIDTH 12 0
BBX 9 18 1 -5
BITMAP
3D80
7F80
6380
E180
C180
C180
C180
C180
C180
E180
6380
7F80
3D80
0180
0180
0180
0180
0180
ENDCHAR
STARTCHAR r
ENCODING 114
SWIDTH 304 0
DWIDTH 7 0
BBX 6 13 1 0
BITMAP
DC
FC
E0
E0
C0
C0
C0
C0
C0
C0
C0
C0
C0
ENDCHAR
STARTCHAR s
ENCODING 115
SWIDTH 455 0
DWIDTH 11 0
BBX 9 13 1 0
BITMAP
3E00
7F00
6300
6180
6000
7800
3E00
0700
0380
C180
E380
7F00
3E00
ENDCHAR
STARTCHAR t
ENCODING 116
SWIDTH 295 0
DWIDTH 7 0
BBX 6 16 0 0
BITMAP
30
30
30
FC
FC
30
30
30
30
30
30
30
30
30
3C
1C
ENDCHAR
STARTCHAR u
ENCODING 117
SWIDTH 483 0
DWIDTH 12 0
BBX 8 13 2 0
BITMAP
C3
C3
C3
C3
C3
C3
C3
C3
C3
C3
C7
FF
7B
ENDCHAR
STARTCHAR v
ENCODING 118
SWIDTH 427 0
DWIDTH 10 0
BBX 10 13 0 0
BITMAP
E1C0
6180
6180
6180
3300
3300
3300
1200
1E00
1E00
1E00
0C00
0C00
ENDCHAR
STARTCHAR w
ENCODING 119
SWIDTH 649 0
DWIDTH 16 0
BBX 14 13 1 0
BITMAP
C30C
C30C
C70C
6798
6798
6798
6C98
2CD0
3CF0
3870
3870
1860
1860
ENDCHAR
STARTCHAR x
ENCODING 120
SWIDTH 438 0
DWIDTH 11 0
BBX 9 13 1 0
BITMAP
C380
E300
6600
3600
3C00
1C00
1800
1C00
3C00
7600
6700
E300
C380
ENDCHAR
STARTCHAR y
ENCODING 121
SWIDTH 416 0
DWIDTH 10 0
BBX 10 18 0 -5
BITMAP
E1C0
6180
6180
7380
3300
3300
3300
1E00
1E00
1E00
0E00
0C00
0C00
0C00
0800
1800
7800
7000
ENDCHAR
STARTCHAR z
ENCODING 122
SWIDTH 438 0
DWIDTH 11 0
BBX 9 13 1 0
BITMAP
FF00
FF00
0300
0600
0E00
0C00
1800
3800
3000
6000
6000
FF80
FF80
ENDCHAR
STARTCHAR braceleft
ENCODING 123
SWIDTH 306 0
DWIDTH 7 0
BBX 6 23 1 -4
BITMAP
08
1C
30
30
30
30
30
30
30
30
60
E0
E0
60
30
30
30
30
30
30
30
18
0C
ENDCHAR
STARTCHAR bar
ENCODING 124
SWIDTH 243 0
DWIDTH 6 0
BBX 2 20 2 -3
BITMAP
C0
C0
C0
C0
C0
C0
C0
C0
C0
C0
C0
C0
C0
C0
C0
C0
C0
C0
C0
C0
ENDCHAR
STARTCHAR braceright
ENCODING 125
SWIDTH 306 0
DWIDTH 7 0
BBX 6 23 0 -4
BITMAP
40
E0
70
30
30
30
30
30
30
30
18
1C
1C
18
30
30
30
30
30
30
30
60
C0
ENDCHAR
STARTCHAR asciitilde
ENCODING 126
SWIDTH 589 0
DWIDTH 14 0
BBX 12 5 1 5
BITMAP
3830
7C30
6660
43E0
C1C0
ENDCHAR
STARTCHAR uni00A0
ENCODING 160
SWIDTH 229 0
DWIDTH 6 0
BBX 1 1 0 0
BITMAP
00
ENDCHAR
STARTCHAR exclamdown
ENCODING 161
SWIDTH 231 0
DWIDTH 6 0
BBX 2 17 2 -4
BITMAP
C0
C0
00
00
C0
C0
C0
C0
C0
C0
C0
C0
C0
C0
C0
C0
C0
ENDCHAR
STARTCHAR cent
ENCODING 162
SWIDTH 479 0
DWIDTH 12 0
BBX 10 19 1 -3
BITMAP
0C00
0C00
0C00
1E00
3F80
7180
6180
60C0
E000
E000
E000
6000
61C0
7180
3F80
1E00
0C00
0C00
0C00
ENDCHAR
STARTCHAR sterling
ENCODING 163
SWIDTH 510 0
DWIDTH 12 0
BBX 10 17 1 0
BITMAP
0F00
1F80
39C0
30C0
7000
7000
7000
7000
FE00
FE00
3000
3000
3000
3000
6000
FFC0
FFC0
ENDCHAR
STARTCHAR currency
ENCODING 164
SWIDTH 712 0
DWIDTH 17 0
BBX 15 15 1 0
BITMAP
67C4
FFFE
7C3C
3018
600C
600C
600C
600E
600C
600C
600C
3018
7C3C
FFFE
47C4
ENDCHAR
STARTCHAR yen
ENCODING 165
SWIDTH 463 0
DWIDTH 11 0
BBX 11 17 0 0
BITMAP
E0E0
60C0
71C0
3180
3180
3B80
1B00
1F00
0E00
7FC0
7FC0
0E00
7FC0
7FC0
0E00
0E00
0E00
ENDCHAR
STARTCHAR brokenbar
ENCODING 166
SWIDTH 239 0
DWIDTH 6 0
BBX 2 20 2 -3
BITMAP
C0
C0
C0
C0
C0
C0
C0
C0
C0
00
00
C0
C0
C0
C0
C0
C0
C0
C0
C0
ENDCHAR
STARTCHAR section
ENCODING 167
SWIDTH 537 0
DWIDTH 13 0
BBX 11 23 1 -6
BITMAP
1F00
3F80
71C0
60C0
60C0
6000
7000
3E00
7F80
E3C0
C0C0
C0E0
E060
78C0
3FC0
0F80
01C0
00C0
C0C0
E0C0
61C0
7F80
1F00
ENDCHAR
STARTCHAR dieresis
ENCODING 168
SWIDTH 417 0
DWIDTH 10 0
BBX 8 2 1 15
BITMAP
E7
E7
ENDCHAR
STARTCHAR copyright
ENCODING 169
SWIDTH 785 0
DWIDTH 19 0
BBX 17 17 1 0
BITMAP
03E000
0C1800
100400
23C200
67F300
463100
CC3180
CC0180
8C0180
CC0180
CC3180
463100
67F300
23E200
300400
0C1800
03E000
ENDCHAR
STARTCHAR ordfeminine
ENCODING 170
SWIDTH 395 0
DWIDTH 10 0
BBX 6 9 2 8
BITMAP
78
FC
CC
0C
7C
CC
CC
FC
7C
ENDCHAR
STARTCHAR guillemotleft
ENCODING 171
SWIDTH 417 0
DWIDTH 10 0
BBX 8 9 1 2
BITMAP
1B
36
66
6C
D8
6C
66
36
1B
ENDCHAR
STARTCHAR logicalnot
ENCODING 172
SWIDTH 487 0
DWIDTH 12 0
BBX 9 5 1 4
BITMAP
FF80
FF80
0180
0180
0180
ENDCHAR
STARTCHAR uni00AD
ENCODING 173
SWIDTH 248 0
DWIDTH 6 0
BBX 4 2 1 6
BITMAP
F0
F0
ENDCHAR
STARTCHAR registered
ENCODING 174
SWIDTH 786 0
DWIDTH 19 0
BBX 17 17 1 0
BITMAP
03E000
0C1800
300400
200200
67E300
47F100
C63180
C63180
87E180
C7E180
C63180
463100
663300
200200
300400
0C1800
07E000
ENDCHAR
STARTCHAR macron
ENCODING 175
SWIDTH 414 0
DWIDTH 10 0
BBX 6 2 2 15
BITMAP
FC
FC
ENDCHAR
STARTCHAR degree
ENCODING 176
SWIDTH 373 0
DWIDTH 9 0
BBX 5 7 2 10
BITMAP
70
F8
88
88
88
F8
70
ENDCHAR
STARTCHAR plusminus
ENCODING 177
SWIDTH 469 0
DWIDTH 11 0
BBX 9 15 1 0
BITMAP
0C00
0C00
0C00
0C00
0C00
FF80
FF80
0C00
0C00
0C00
0C00
0C00
0000
7F80
7F80
ENDCHAR
STARTCHAR uni00B2
ENCODING 178
SWIDTH 329 0
DWIDTH 8 0
BBX 6 9 1 8
BITMAP
78
FC
CC
0C
18
30
60
FC
FC
ENDCHAR
STARTCHAR uni00B3
ENCODING 179
SWIDTH 329 0
DWIDTH 8 0
BBX 6 9 1 8
BITMAP
78
FC
0C
30
3C
0C
CC
FC
78
ENDCHAR
STARTCHAR acute
ENCODING 180
SWIDTH 313 0
DWIDTH 8 0
BBX 5 3 1 15
BITMAP
38
70
E0
ENDCHAR
STARTCHAR mu
ENCODING 181
SWIDTH 498 0
DWIDTH 12 0
BBX 8 18 2 -5
BITMAP
C3
C3
C3
C3
C3
C3
C3
C3
C3
C3
E7
FF
FB
C0
C0
C0
C0
C0
ENDCHAR
STARTCHAR paragraph
ENCODING 182
SWIDTH 434 0
DWIDTH 10 0
BBX 7 17 1 0
BITMAP
3E
7E
FE
FE
FE
FE
FE
FE
FE
7E
3E
06
06
06
06
06
06
ENDCHAR
STARTCHAR periodcentered
ENCODING 183
SWIDTH 243 0
DWIDTH 6 0
BBX 2 3 2 7
BITMAP
C0
C0
C0
ENDCHAR
STARTCHAR cedilla
ENCODING 184
SWIDTH 229 0
DWIDTH 6 0
BBX 3 5 2 -5
BITMAP
80
C0
60
60
C0
ENDCHAR
STARTCHAR uni00B9
ENCODING 185
SWIDTH 329 0
DWIDTH 8 0
BBX 4 9 1 8
BITMAP
30
F0
D0
10
10
10
10
10
10
ENDCHAR
STARTCHAR ordmasculine
ENCODING 186
SWIDTH 402 0
DWIDTH 10 0
BBX 6 9 2 8
BITMAP
78
FC
CC
84
84
84
CC
FC
78
ENDCHAR
STARTCHAR guillemotright
ENCODING 187
SWIDTH 417 0
DWIDTH 10 0
BBX 8 9 1 2
BITMAP
CC
64
26
33
1B
33
26
64
CC
ENDCHAR
STARTCHAR onequarter
ENCODING 188
SWIDTH 637 0
DWIDTH 15 0
BBX 13 17 1 0
BITMAP
3000
F000
F040
3060
30C0
3080
3180
3100
3330
0230
0670
0450
0CD0
1890
19F8
11F8
0010
ENDCHAR
STARTCHAR onehalf
ENCODING 189
SWIDTH 677 0
DWIDTH 16 0
BBX 14 17 1 0
BITMAP
3000
F000
F040
30C0
3080
3180
3100
3300
3278
06FC
04CC
0C08
0818
1830
1060
30FC
00FC
ENDCHAR
STARTCHAR threequarters
ENCODING 190
SWIDTH 673 0
DWIDTH 16 0
BBX 14 17 1 0
BITMAP
7800
7C00
8430
3C30
3C60
0C40
CCC0
7C80
7998
0118
0338
0278
0658
04D8
0CFC
08FC
0018
ENDCHAR
STARTCHAR questiondown
ENCODING 191
SWIDTH 421 0
DWIDTH 10 0
BBX 8 18 1 -5
BITMAP
18
18
00
00
00
18
18
38
30
60
E0
C0
C0
C3
C3
E7
7E
3C
ENDCHAR
STARTCHAR Agrave
ENCODING 192
SWIDTH 576 0
DWIDTH 14 0
BBX 12 21 1 0
BITMAP
3800
0C00
0600
0000
0600
0600
0F00
0F00
0F00
1980
1980
1980
30C0
30C0
30C0
7FE0
7FE0
6060
E070
C030
C030
ENDCHAR
STARTCHAR Aacute
ENCODING 193
SWIDTH 576 0
DWIDTH 14 0
BBX 12 21 1 0
BITMAP
01C0
0300
0600
0000
0600
0600
0F00
0F00
0F00
1980
1980
1980
30C0
30C0
30C0
7FE0
7FE0
6060
E070
C030
C030
ENDCHAR
STARTCHAR Acircumflex
ENCODING 194
SWIDTH 576 0
DWIDTH 14 0
BBX 12 21 1 0
BITMAP
0600
0F00
1980
0000
0600
0600
0F00
0F00
0F00
1980
1980
1980
30C0
30C0
30C0
7FE0
7FE0
6060
E070
C030
C030
ENDCHAR
STARTCHAR Atilde
ENCODING 195
SWIDTH 576 0
DWIDTH 14 0
BBX 12 21 1 0
BITMAP
1CC0
1F80
3380
0000
0600
0600
0F00
0F00
0F00
1980
1980
1980
30C0
30C0
30C0
7FE0
7FE0
6060
E070
C030
C030
ENDCHAR
STARTCHAR Adieresis
ENCODING 196
SWIDTH 576 0
DWIDTH 14 0
BBX 12 20 1 0
BITMAP
39C0
39C0
0000
0600
0600
0F00
0F00
0F00
1980
1980
1980
30C0
30C0
30C0
7FE0
7FE0
6060
E070
C030
C030
ENDCHAR
STARTCHAR Aring
ENCODING 197
SWIDTH 576 0
DWIDTH 14 0
BBX 12 23 1 0
BITMAP
0E00
0900
1900
0900
0E00
0000
0600
0600
0F00
0F00
0F00
1980
1980
1980
30C0
30C0
30C0
7FE0
7FE0
6060
E070
C030
C030
ENDCHAR
STARTCHAR AE
ENCODING 198
SWIDTH 812 0
DWIDTH 19 0
BBX 19 17 0 0
BITMAP
00FFC0
00FFC0
01F000
01B000
03B000
033000
073000
063FC0
0E3FC0
0C3000
1C3000
1FF000
3FF000
303000
703000
603FE0
E03FE0
ENDCHAR
STARTCHAR Ccedilla
ENCODING 199
SWIDTH 566 0
DWIDTH 14 0
BBX 11 22 2 -5
BITMAP
1F00
3F80
71C0
E0C0
C0E0
C060
C000
C000
C000
C000
C000
C060
C0E0
E0C0
71C0
3F80
1F00
0C00
0E00
0200
0200
0C00
ENDCHAR
STARTCHAR Egrave
ENCODING 200
SWIDTH 496 0
DWIDTH 12 0
BBX 9 21 2 0
BITMAP
7000
3800
1C00
0000
FF80
FF80
C000
C000
C000
C000
C000
FF00
FF00
C000
C000
C000
C000
C000
C000
FF80
FF80
ENDCHAR
STARTCHAR Eacute
ENCODING 201
SWIDTH 496 0
DWIDTH 12 0
BBX 9 21 2 0
BITMAP
0700
0C00
1800
0000
FF80
FF80
C000
C000
C000
C000
C000
FF00
FF00
C000
C000
C000
C000
C000
C000
FF80
FF80
ENDCHAR
STARTCHAR Ecircumflex
ENCODING 202
SWIDTH 496 0
DWIDTH 12 0
BBX 9 21 2 0
BITMAP
1800
3400
6600
0000
FF80
FF80
C000
C000
C000
C000
C000
FF00
FF00
C000
C000
C000
C000
C000
C000
FF80
FF80
ENDCHAR
STARTCHAR Edieresis
ENCODING 203
SWIDTH 496 0
DWIDTH 12 0
BBX 9 20 2 0
BITMAP
6300
6300
0000
FF80
FF80
C000
C000
C000
C000
C000
FF00
FF00
C000
C000
C000
C000
C000
C000
FF80
FF80
ENDCHAR
STARTCHAR Igrave
ENCODING 204
SWIDTH 250 0
DWIDTH 6 0
BBX 5 21 -1 0
BITMAP
E0
30
18
00
18
18
18
18
18
18
18
18
18
18
18
18
18
18
18
18
18
ENDCHAR
STARTCHAR Iacute
ENCODING 205
SWIDTH 250 0
DWIDTH 6 0
BBX 5 21 2 0
BITMAP
38
60
C0
00
C0
C0
C0
C0
C0
C0
C0
C0
C0
C0
C0
C0
C0
C0
C0
C0
C0
ENDCHAR
STARTCHAR Icircumflex
ENCODING 206
SWIDTH 250 0
DWIDTH 6 0
BBX 6 21 0 0
BITMAP
30
78
CC
00
30
30
30
30
30
30
30
30
30
30
30
30
30
30
30
30
30
ENDCHAR
STARTCHAR Idieresis
ENCODING 207
SWIDTH 250 0
DWIDTH 6 0
BBX 8 20 -1 0
BITMAP
E7
E7
00
18
18
18
18
18
18
18
18
18
18
18
18
18
18
18
18
18
ENDCHAR
STARTCHAR Eth
ENCODING 208
SWIDTH 585 0
DWIDTH 14 0
BBX 13 17 0 0
BITMAP
3F80
3FC0
30E0
3030
3030
3030
3030
FE38
FE38
3038
3030
3030
3030
3070
30E0
3FE0
3F80
ENDCHAR
STARTCHAR Ntilde
ENCODING 209
SWIDTH 619 0
DWIDTH 15 0
BBX 11 21 2 0
BITMAP
1980
3F80
2700
0000
C060
E060
E060
F060
F060
D860
DC60
CC60
CE60
C660
C360
C360
C1E0
C1E0
C0E0
C0E0
C060
ENDCHAR
STARTCHAR Ograve
ENCODING 210
SWIDTH 600 0
DWIDTH 14 0
BBX 12 21 1 0
BITMAP
1C00
0E00
0700
0000
0F80
3FC0
70E0
6060
6060
C070
C030
C030
C030
C030
C030
C070
6060
6060
70E0
3FC0
1F80
ENDCHAR
STARTCHAR Oacute
ENCODING 211
SWIDTH 600 0
DWIDTH 14 0
BBX 12 21 1 0
BITMAP
01C0
0300
0600
0000
0F80
3FC0
70E0
6060
6060
C070
C030
C030
C030
C030
C030
C070
6060
6060
70E0
3FC0
1F80
ENDCHAR
STARTCHAR Ocircumflex
ENCODING 212
SWIDTH 600 0
DWIDTH 14 0
BBX 12 21 1 0
BITMAP
0600
0F00
1980
0000
0F80
3FC0
70E0
6060
6060
C070
C030
C030
C030
C030
C030
C070
6060
6060
70E0
3FC0
1F80
ENDCHAR
STARTCHAR Otilde
ENCODING 213
SWIDTH 600 0
DWIDTH 14 0
BBX 12 21 1 0
BITMAP
0CC0
1FC0
1380
0000
0F80
3FC0
70E0
6060
6060
C070
C030
C030
C030
C030
C030
C070
6060
6060
70E0
3FC0
1F80
ENDCHAR
STARTCHAR Odieresis
ENCODING 214
SWIDTH 600 0
DWIDTH 14 0
BBX 12 20 1 0
BITMAP
18C0
39C0
0000
0F80
3FC0
70E0
6060
6060
C070
C030
C030
C030
C030
C030
C070
6060
6060
70E0
3FC0
1F80
ENDCHAR
STARTCHAR multiply
ENCODING 215
SWIDTH 470 0
DWIDTH 11 0
BBX 9 11 1 2
BITMAP
4100
E180
6300
3600
3E00
1C00
1E00
3600
6300
E180
4100
ENDCHAR
STARTCHAR Oslash
ENCODING 216
SWIDTH 600 0
DWIDTH 14 0
BBX 12 18 1 -1
BITMAP
0F30
3FE0
30C0
60E0
60E0
E1F0
C130
C330
C230
C630
C430
EC70
7860
7860
30E0
3FC0
6F00
4000
ENDCHAR
STARTCHAR Ugrave
ENCODING 217
SWIDTH 561 0
DWIDTH 13 0
BBX 11 21 1 0
BITMAP
3800
0C00
0600
0000
C060
C060
C060
C060
C060
C060
C060
C060
C060
C060
C060
C060
C060
E0E0
71C0
7FC0
1F00
ENDCHAR
STARTCHAR Uacute
ENCODING 218
SWIDTH 561 0
DWIDTH 13 0
BBX 11 21 1 0
BITMAP
0380
0700
0600
0000
C060
C060
C060
C060
C060
C060
C060
C060
C060
C060
C060
C060
C060
E0E0
71C0
7FC0
1F00
ENDCHAR
STARTCHAR Ucircumflex
ENCODING 219
SWIDTH 561 0
DWIDTH 13 0
BBX 11 21 1 0
BITMAP
0600
0F00
1980
0000
C060
C060
C060
C060
C060
C060
C060
C060
C060
C060
C060
C060
C060
E0E0
71C0
7FC0
1F00
ENDCHAR
STARTCHAR Udieresis
ENCODING 220
SWIDTH 561 0
DWIDTH 13 0
BBX 11 20 1 0
BITMAP
3180
39C0
0000
C060
C060
C060
C060
C060
C060
C060
C060
C060
C060
C060
C060
C060
E0E0
71C0
7FC0
1F00
ENDCHAR
STARTCHAR Yacute
ENCODING 221
SWIDTH 524 0
DWIDTH 13 0
BBX 12 21 0 0
BITMAP
01C0
0300
0600
0000
E030
6070
7060
30E0
38C0
18C0
1980
0D80
0F00
0700
0600
0600
0600
0600
0600
0600
0600
ENDCHAR
STARTCHAR Thorn
ENCODING 222
SWIDTH 515 0
DWIDTH 12 0
BBX 9 17 2 0
BITMAP
C000
C000
C000
FC00
FF00
C300
C180
C180
C180
C180
C180
C300
FF00
FC00
C000
C000
C000
ENDCHAR
STARTCHAR germandbls
ENCODING 223
SWIDTH 521 0
DWIDTH 13 0
BBX 10 18 2 0
BITMAP
3C00
7E00
E600
C300
C300
C600
C600
CE00
CC00
CE00
C700
C380
C180
C0C0
C0C0
D1C0
DF80
CF00
ENDCHAR
STARTCHAR agrave
ENCODING 224
SWIDTH 479 0
DWIDTH 12 0
BBX 8 18 2 0
BITMAP
E0
30
18
00
00
3C
7E
C3
C3
03
3F
7F
E3
C3
C3
C7
FF
7B
ENDCHAR
STARTCHAR aacute
ENCODING 225
SWIDTH 479 0
DWIDTH 12 0
BBX 8 18 2 0
BITMAP
07
0C
18
00
00
3C
7E
C3
C3
03
3F
7F
E3
C3
C3
C7
FF
7B
ENDCHAR
STARTCHAR acircumflex
ENCODING 226
SWIDTH 479 0
DWIDTH 12 0
BBX 8 18 2 0
BITMAP
18
3C
66
00
00
3C
7E
C3
C3
03
3F
7F
E3
C3
C3
C7
FF
7B
ENDCHAR
STARTCHAR atilde
ENCODING 227
SWIDTH 479 0
DWIDTH 12 0
BBX 8 18 2 0
BITMAP
73
7E
CE
00
00
3C
7E
C3
C3
03
3F
7F
E3
C3
C3
C7
FF
7B
ENDCHAR
STARTCHAR adieresis
ENCODING 228
SWIDTH 479 0
DWIDTH 12 0
BBX 8 17 2 0
BITMAP
E7
E7
00
00
3C
7E
C3
C3
03
3F
7F
E3
C3
C3
C7
FF
7B
ENDCHAR
STARTCHAR aring
ENCODING 229
SWIDTH 479 0
DWIDTH 12 0
BBX 8 19 2 0
BITMAP
38
24
64
24
38
00
3C
7E
C3
C3
03
3F
7F
E3
C3
C3
C7
FF
7B
ENDCHAR
STARTCHAR ae
ENCODING 230
SWIDTH 728 0
DWIDTH 17 0
BBX 15 13 1 0
BITMAP
3C78
7EFC
E3CE
C386
0306
3FFE
7FFE
E300
C300
C380
C7C2
FEFE
7C7C
ENDCHAR
STARTCHAR ccedilla
ENCODING 231
SWIDTH 461 0
DWIDTH 11 0
BBX 9 18 1 -5
BITMAP
1E00
7F00
6380
C180
C180
C000
C000
C000
C000
C180
6380
7F00
1E00
0800
0C00
0600
0600
0C00
ENDCHAR
STARTCHAR egrave
ENCODING 232
SWIDTH 468 0
DWIDTH 11 0
BBX 9 18 1 0
BITMAP
7000
1800
0C00
0000
0000
1E00
7F00
6380
C180
C180
FF80
FF80
C000
C000
C000
6180
7F80
3E00
ENDCHAR
STARTCHAR eacute
ENCODING 233
SWIDTH 468 0
DWIDTH 11 0
BBX 9 18 1 0
BITMAP
0700
0E00
0C00
0000
0000
1E00
7F00
6380
C180
C180
FF80
FF80
C000
C000
C000
6180
7F80
3E00
ENDCHAR
STARTCHAR ecircumflex
ENCODING 234
SWIDTH 468 0
DWIDTH 11 0
BBX 9 18 1 0
BITMAP
0C00
1E00
3300
0000
0000
1E00
7F00
6380
C180
C180
FF80
FF80
C000
C000
C000
6180
7F80
3E00
ENDCHAR
STARTCHAR edieresis
ENCODING 235
SWIDTH 468 0
DWIDTH 11 0
BBX 9 17 1 0
BITMAP
6300
7380
0000
0000
1E00
7F00
6380
C180
C180
FF80
FF80
C000
C000
C000
6180
7F80
3E00
ENDCHAR
STARTCHAR igrave
ENCODING 236
SWIDTH 234 0
DWIDTH 6 0
BBX 5 18 -1 0
BITMAP
E0
30
18
00
00
18
18
18
18
18
18
18
18
18
18
18
18
18
ENDCHAR
STARTCHAR iacute
ENCODING 237
SWIDTH 234 0
DWIDTH 6 0
BBX 5 18 2 0
BITMAP
78
60
C0
00
00
C0
C0
C0
C0
C0
C0
C0
C0
C0
C0
C0
C0
C0
ENDCHAR
STARTCHAR icircumflex
ENCODING 238
SWIDTH 234 0
DWIDTH 6 0
BBX 6 18 0 0
BITMAP
30
78
CC
00
00
30
30
30
30
30
30
30
30
30
30
30
30
30
ENDCHAR
STARTCHAR idieresis
ENCODING 239
SWIDTH 234 0
DWIDTH 6 0
BBX 8 17 -1 0
BITMAP
C6
E7
00
00
18
18
18
18
18
18
18
18
18
18
18
18
18
ENDCHAR
STARTCHAR eth
ENCODING 240
SWIDTH 513 0
DWIDTH 12 0
BBX 10 18 1 0
BITMAP
3000
3980
5F00
0E00
1B00
1380
0180
1F80
3F80
71C0
E0C0
C0C0
C0C0
C1C0
E180
7380
3F00
1E00
ENDCHAR
STARTCHAR ntilde
ENCODING 241
SWIDTH 483 0
DWIDTH 12 0
BBX 8 18 2 0
BITMAP
72
7E
CE
00
00
DE
FF
E3
C3
C3
C3
C3
C3
C3
C3
C3
C3
C3
ENDCHAR
STARTCHAR ograve
ENCODING 242
SWIDTH 501 0
DWIDTH 12 0
BBX 10 18 1 0
BITMAP
7000
1800
0C00
0000
0000
1E00
7F00
6380
E1C0
C0C0
C0C0
C0C0
C0C0
C0C0
E1C0
6180
7F00
1E00
ENDCHAR
STARTCHAR oacute
ENCODING 243
SWIDTH 501 0
DWIDTH 12 0
BBX 10 18 1 0
BITMAP
0380
0600
0C00
0000
0000
1E00
7F00
6380
E1C0
C0C0
C0C0
C0C0
C0C0
C0C0
E1C0
6180
7F00
1E00
ENDCHAR
STARTCHAR ocircumflex
ENCODING 244
SWIDTH 501 0
DWIDTH 12 0
BBX 10 18 1 0
BITMAP
0C00
1E00
3300
0000
0000
1E00
7F00
6380
E1C0
C0C0
C0C0
C0C0
C0C0
C0C0
E1C0
6180
7F00
1E00
ENDCHAR
STARTCHAR otilde
ENCODING 245
SWIDTH 501 0
DWIDTH 12 0
BBX 10 18 1 0
BITMAP
3900
3F00
6700
0000
0000
1E00
7F00
6380
E1C0
C0C0
C0C0
C0C0
C0C0
C0C0
E1C0
6180
7F00
1E00
ENDCHAR
STARTCHAR odieresis
ENCODING 246
SWIDTH 501 0
DWIDTH 12 0
BBX 10 17 1 0
BITMAP
7380
7380
0000
0000
1E00
7F00
6380
E1C0
C0C0
C0C0
C0C0
C0C0
C0C0
E1C0
6180
7F00
1E00
ENDCHAR
STARTCHAR divide
ENCODING 247
SWIDTH 500 0
DWIDTH 12 0
BBX 10 12 1 2
BITMAP
0C00
0C00
0C00
0000
0000
FFC0
FFC0
0000
0000
0C00
0C00
0C00
ENDCHAR
STARTCHAR oslash
ENCODING 248
SWIDTH 498 0
DWIDTH 12 0
BBX 10 15 1 -1
BITMAP
0180
1F00
3F00
7380
6380
C6C0
C4C0
CCC0
C8C0
C8C0
7980
7380
3F00
3E00
6000
ENDCHAR
STARTCHAR ugrave
ENCODING 249
SWIDTH 483 0
DWIDTH 12 0
BBX 8 18 2 0
BITMAP
E0
30
18
00
00
C3
C3
C3
C3
C3
C3
C3
C3
C3
C3
C7
FF
7B
ENDCHAR
STARTCHAR uacute
ENCODING 250
SWIDTH 483 0
DWIDTH 12 0
BBX 8 18 2 0
BITMAP
0E
1C
18
00
00
C3
C3
C3
C3
C3
C3
C3
C3
C3
C3
C7
FF
7B
ENDCHAR
STARTCHAR ucircumflex
ENCODING 251
SWIDTH 483 0
DWIDTH 12 0
BBX 8 18 2 0
BITMAP
18
3C
66
00
00
C3
C3
C3
C3
C3
C3
C3
C3
C3
C3
C7
FF
7B
ENDCHAR
STARTCHAR udieresis
ENCODING 252
SWIDTH 483 0
DWIDTH 12 0
BBX 8 17 2 0
BITMAP
C6
E7
00
00
C3
C3
C3
C3
C3
C3
C3
C3
C3
C3
C7
FF
7B
ENDCHAR
STARTCHAR yacute
ENCODING 253
SWIDTH 416 0
DWIDTH 10 0
BBX 10 23 0 -5
BITMAP
0380
0600
0C00
0000
0000
E1C0
6180
6180
7380
3300
3300
3300
1E00
1E00
1E00
0E00
0C00
0C00
0C00
0800
1800
7800
7000
ENDCHAR
STARTCHAR thorn
ENCODING 254
SWIDTH 508 0
DWIDTH 12 0
BBX 9 23 2 -5
BITMAP
C000
C000
C000
C000
C000
DC00
FE00
C700
C300
C380
C180
C180
C180
C380
C300
C700
FE00
DC00
C000
C000
C000
C000
C000
ENDCHAR
STARTCHAR ydieresis
ENCODING 255
SWIDTH 416 0
DWIDTH 10 0
BBX 10 22 0 -5
BITMAP
3180
7380
0000
0000
E1C0
6180
6180
7380
3300
3300
3300
1E00
1E00
1E00
0E00
0C00
0C00
0C00
0800
1800
7800
7000
ENDCHAR
STARTCHAR Amacron
ENCODING 256
SWIDTH 576 0
DWIDTH 14 0
BBX 12 21 1 0
BITMAP
1F80
1F80
0000
0000
0600
0600
0F00
0F00
0F00
1980
1980
1980
30C0
30C0
30C0
7FE0
7FE0
6060
E070
C030
C030
ENDCHAR
STARTCHAR amacron
ENCODING 257
SWIDTH 479 0
DWIDTH 12 0
BBX 8 17 2 0
BITMAP
7E
7E
00
00
3C
7E
C3
C3
03
3F
7F
E3
C3
C3
C7
FF
7B
ENDCHAR
STARTCHAR Abreve
ENCODING 258
SWIDTH 576 0
DWIDTH 14 0
BBX 12 22 1 0
BITMAP
3080
1980
0F00
0000
0000
0600
0600
0F00
0F00
0F00
1980
1980
1980
30C0
30C0
30C0
7FE0
7FE0
6060
E070
C030
C030
ENDCHAR
STARTCHAR abreve
ENCODING 259
SWIDTH 479 0
DWIDTH 12 0
BBX 8 18 2 0
BITMAP
C2
66
3C
00
00
3C
7E
C3
C3
03
3F
7F
E3
C3
C3
C7
FF
7B
ENDCHAR
STARTCHAR Aogonek
ENCODING 260
SWIDTH 576 0
DWIDTH 14 0
BBX 12 22 1 -5
BITMAP
0600
0600
0F00
0F00
0F00
1980
1980
1980
30C0
30C0
30C0
7FE0
7FE0
6060
E070
C030
C030
0020
0060
0040
0070
0070
ENDCHAR
STARTCHAR aogonek
ENCODING 261
SWIDTH 479 0
DWIDTH 12 0
BBX 8 18 2 -5
BITMAP
3C
7E
C3
C3
03
3F
7F
E3
C3
C3
C7
FF
7B
03
06
04
07
07
ENDCHAR
STARTCHAR Cacute
ENCODING 262
SWIDTH 566 0
DWIDTH 14 0
BBX 11 21 2 0
BITMAP
0380
0600
0C00
0000
1F00
3F80
71C0
E0C0
C0E0
C060
C000
C000
C000
C000
C000
C060
C0E0
E0C0
71C0
3F80
1F00
ENDCHAR
STARTCHAR cacute
ENCODING 263
SWIDTH 461 0
DWIDTH 11 0
BBX 9 18 1 0
BITMAP
0700
0E00
1C00
0000
0000
1E00
7F00
6380
C180
C180
C000
C000
C000
C000
C180
6380
7F00
1E00
ENDCHAR
STARTCHAR Ccircumflex
ENCODING 264
SWIDTH 566 0
DWIDTH 14 0
BBX 11 21 2 0
BITMAP
0C00
1E00
3300
0000
1F00
3F80
71C0
E0C0
C0E0
C060
C000
C000
C000
C000
C000
C060
C0E0
E0C0
71C0
3F80
1F00
ENDCHAR
STARTCHAR ccircumflex
ENCODING 265
SWIDTH 461 0
DWIDTH 11 0
BBX 9 18 1 0
BITMAP
1C00
3600
6700
0000
0000
1E00
7F00
6380
C180
C180
C000
C000
C000
C000
C180
6380
7F00
1E00
ENDCHAR
STARTCHAR Cdotaccent
ENCODING 266
SWIDTH 566 0
DWIDTH 14 0
BBX 11 20 2 0
BITMAP
0C00
0C00
0000
1F00
3F80
71C0
E0C0
C0E0
C060
C000
C000
C000
C000
C000
C060
C0E0
E0C0
71C0
3F80
1F00
ENDCHAR
STARTCHAR cdotaccent
ENCODING 267
SWIDTH 461 0
DWIDTH 11 0
BBX 9 17 1 0
BITMAP
1C00
1C00
0000
0000
1E00
7F00
6380
C180
C180
C000
C000
C000
C000
C180
6380
7F00
1E00
ENDCHAR
STARTCHAR Ccaron
ENCODING 268
SWIDTH 566 0
DWIDTH 14 0
BBX 11 21 2 0
BITMAP
3300
1E00
0C00
0000
1F00
3F80
71C0
E0C0
C0E0
C060
C000
C000
C000
C000
C000
C060
C0E0
E0C0
71C0
3F80
1F00
ENDCHAR
STARTCHAR ccaron
ENCODING 269
SWIDTH 461 0
DWIDTH 11 0
BBX 9 18 1 0
BITMAP
6700
1400
1C00
0000
0000
1E00
7F00
6380
C180
C180
C000
C000
C000
C000
C180
6380
7F00
1E00
ENDCHAR
STARTCHAR Dcaron
ENCODING 270
SWIDTH 570 0
DWIDTH 14 0
BBX 10 21 2 0
BITMAP
6600
3C00
1800
0000
FE00
FF00
C380
C1C0
C0C0
C0C0
C0C0
C0C0
C0C0
C0C0
C0C0
C0C0
C0C0
C1C0
C380
FF00
FE00
ENDCHAR
STARTCHAR dcaron
ENCODING 271
SWIDTH 569 0
DWIDTH 14 0
BBX 13 18 1 0
BITMAP
0198
0198
0190
01B0
01B0
3D80
7F80
6380
E180
C180
C180
C180
C180
C180
E180
6380
7F80
3D80
ENDCHAR
STARTCHAR Dcroat
ENCODING 272
SWIDTH 585 0
DWIDTH 14 0
BBX 13 17 0 0
BITMAP
3F80
3FC0
30E0
3030
3030
3030
3030
FE38
FE38
3038
3030
3030
3030
3070
30E0
3FE0
3F80
ENDCHAR
STARTCHAR dcroat
ENCODING 273
SWIDTH 529 0
DWIDTH 13 0
BBX 11 18 1 0
BITMAP
0180
0180
07E0
07E0
0180
1D80
3F80
7380
6180
E180
C180
C180
C180
E180
6180
7380
3F80
1F80
ENDCHAR
STARTCHAR Emacron
ENCODING 274
SWIDTH 496 0
DWIDTH 12 0
BBX 9 21 2 0
BITMAP
7F00
7F00
0000
0000
FF80
FF80
C000
C000
C000
C000
C000
FF00
FF00
C000
C000
C000
C000
C000
C000
FF80
FF80
ENDCHAR
STARTCHAR emacron
ENCODING 275
SWIDTH 468 0
DWIDTH 11 0
BBX 9 17 1 0
BITMAP
7F00
7F00
0000
0000
1E00
7F00
6380
C180
C180
FF80
FF80
C000
C000
C000
6180
7F80
3E00
ENDCHAR
STARTCHAR Ebreve
ENCODING 276
SWIDTH 496 0
DWIDTH 12 0
BBX 9 22 2 0
BITMAP
4300
6600
3C00
0000
0000
FF80
FF80
C000
C000
C000
C000
C000
FF00
FF00
C000
C000
C000
C000
C000
C000
FF80
FF80
ENDCHAR
STARTCHAR ebreve
ENCODING 277
SWIDTH 468 0
DWIDTH 11 0
BBX 9 18 1 0
BITMAP
6300
2300
1E00
0000
0000
1E00
7F00
6380
C180
C180
FF80
FF80
C000
C000
C000
6180
7F80
3E00
ENDCHAR
STARTCHAR Edotaccent
ENCODING 278
SWIDTH 496 0
DWIDTH 12 0
BBX 9 20 2 0
BITMAP
1C00
1C00
0000
FF80
FF80
C000
C000
C000
C000
C000
FF00
FF00
C000
C000
C000
C000
C000
C000
FF80
FF80
ENDCHAR
STARTCHAR edotaccent
ENCODING 279
SWIDTH 468 0
DWIDTH 11 0
BBX 9 17 1 0
BITMAP
0C00
0C00
0000
0000
1E00
7F00
6380
C180
C180
FF80
FF80
C000
C000
C000
6180
7F80
3E00
ENDCHAR
STARTCHAR Eogonek
ENCODING 280
SWIDTH 496 0
DWIDTH 12 0
BBX 9 22 2 -5
BITMAP
FF80
FF80
C000
C000
C000
C000
C000
FF00
FF00
C000
C000
C000
C000
C000
C000
FF80
FF80
0300
0600
0600
0700
0380
ENDCHAR
STARTCHAR eogonek
ENCODING 281
SWIDTH 468 0
DWIDTH 11 0
BBX 9 18 1 -5
BITMAP
1E00
7F00
6380
C180
C180
FF80
FF80
C000
C000
C000
6180
7F80
3E00
0C00
0C00
0800
0E00
0E00
ENDCHAR
STARTCHAR Ecaron
ENCODING 282
SWIDTH 496 0
DWIDTH 12 0
BBX 9 21 2 0
BITMAP
6700
3400
1800
0000
FF80
FF80
C000
C000
C000
C000
C000
FF00
FF00
C000
C000
C000
C000
C000
C000
FF80
FF80
ENDCHAR
STARTCHAR ecaron
ENCODING 283
SWIDTH 468 0
DWIDTH 11 0
BBX 9 18 1 0
BITMAP
3300
1E00
0C00
0000
0000
1E00
7F00
6380
C180
C180
FF80
FF80
C000
C000
C000
6180
7F80
3E00
ENDCHAR
STARTCHAR Gcircumflex
ENCODING 284
SWIDTH 590 0
DWIDTH 14 0
BBX 11 21 1 0
BITMAP
0600
0F00
1980
0000
1F80
3FC0
70E0
6060
6060
E000
E000
E000
E000
E3E0
E3E0
E060
6060
6060
7060
3FE0
0F80
ENDCHAR
STARTCHAR gcircumflex
ENCODING 285
SWIDTH 492 0
DWIDTH 12 0
BBX 9 23 1 -5
BITMAP
0C00
1600
3300
0000
0000
3D80
7F80
6380
E180
C180
C180
C180
C180
C180
E180
6380
7F80
3D80
0180
0180
6380
7F00
1E00
ENDCHAR
STARTCHAR Gbreve
ENCODING 286
SWIDTH 590 0
DWIDTH 14 0
BBX 11 22 1 0
BITMAP
3180
1180
0F00
0000
0000
1F80
3FC0
70E0
6060
6060
E000
E000
E000
E000
E3E0
E3E0
E060
6060
6060
7060
3FE0
0F80
ENDCHAR
STARTCHAR gbreve
ENCODING 287
SWIDTH 492 0
DWIDTH 12 0
BBX 9 23 1 -5
BITMAP
6300
6300
3E00
0000
0000
3D80
7F80
6380
E180
C180
C180
C180
C180
C180
E180
6380
7F80
3D80
0180
0180
6380
7F00
1E00
ENDCHAR
STARTCHAR Gdotaccent
ENCODING 288
SWIDTH 590 0
DWIDTH 14 0
BBX 11 20 1 0
BITMAP
0600
0600
0000
1F80
3FC0
70E0
6060
6060
E000
E000
E000
E000
E3E0
E3E0
E060
6060
6060
7060
3FE0
0F80
ENDCHAR
STARTCHAR gdotaccent
ENCODING 289
SWIDTH 492 0
DWIDTH 12 0
BBX 9 22 1 -5
BITMAP
0C00
1C00
0000
0000
3D80
7F80
6380
E180
C180
C180
C180
C180
C180
E180
6380
7F80
3D80
0180
0180
6380
7F00
1E00
ENDCHAR
STARTCHAR uni0122
ENCODING 290
SWIDTH 590 0
DWIDTH 14 0
BBX 11 23 1 -6
BITMAP
1F80
3FC0
70E0
6060
6060
E000
E000
E000
E000
E3E0
E3E0
E060
6060
6060
7060
3FE0
0F80
0000
0300
0300
0600
0600
0400
ENDCHAR
STARTCHAR uni0123
ENCODING 291
SWIDTH 492 0
DWIDTH 12 0
BBX 9 25 1 -5
BITMAP
0400
0C00
0C00
0C00
0C00
0000
0000
3D80
7F80
6380
E180
C180
C180
C180
C180
C180
E180
6380
7F80
3D80
0180
0180
6380
7F00
1E00
ENDCHAR
STARTCHAR Hcircumflex
ENCODING 292
SWIDTH 620 0
DWIDTH 15 0
BBX 11 21 2 0
BITMAP
0C00
1E00
3300
0000
C060
C060
C060
C060
C060
C060
C060
FFE0
FFE0
C060
C060
C060
C060
C060
C060
C060
C060
ENDCHAR
STARTCHAR hcircumflex
ENCODING 293
SWIDTH 482 0
DWIDTH 12 0
BBX 8 22 2 0
BITMAP
30
78
CC
00
C0
C0
C0
C0
C0
DE
FF
E3
C3
C3
C3
C3
C3
C3
C3
C3
C3
C3
ENDCHAR
STARTCHAR Hbar
ENCODING 294
SWIDTH 611 0
DWIDTH 15 0
BBX 13 17 1 0
BITMAP
6030
6030
6030
FFF8
FFF8
6030
6030
7FF0
7FF0
6030
6030
6030
6030
6030
6030
6030
6030
ENDCHAR
STARTCHAR hbar
ENCODING 295
SWIDTH 497 0
DWIDTH 12 0
BBX 10 18 0 0
BITMAP
3000
3000
FC00
FC00
3000
3780
3FC0
38C0
30C0
30C0
30C0
30C0
30C0
30C0
30C0
30C0
30C0
30C0
ENDCHAR
STARTCHAR Itilde
ENCODING 296
SWIDTH 250 0
DWIDTH 6 0
BBX 8 21 -1 0
BITMAP
73
7E
CE
00
18
18
18
18
18
18
18
18
18
18
18
18
18
18
18
18
18
ENDCHAR
STARTCHAR itilde
ENCODING 297
SWIDTH 234 0
DWIDTH 6 0
BBX 7 18 -1 0
BITMAP
72
FE
CC
00
00
18
18
18
18
18
18
18
18
18
18
18
18
18
ENDCHAR
STARTCHAR Imacron
ENCODING 298
SWIDTH 250 0
DWIDTH 6 0
BBX 6 21 0 0
BITMAP
FC
FC
00
00
30
30
30
30
30
30
30
30
30
30
30
30
30
30
30
30
30
ENDCHAR
STARTCHAR imacron
ENCODING 299
SWIDTH 234 0
DWIDTH 6 0
BBX 7 17 -1 0
BITMAP
FE
FE
00
00
18
18
18
18
18
18
18
18
18
18
18
18
18
ENDCHAR
STARTCHAR Ibreve
ENCODING 300
SWIDTH 250 0
DWIDTH 6 0
BBX 7 22 -1 0
BITMAP
C2
66
3C
00
00
18
18
18
18
18
18
18
18
18
18
18
18
18
18
18
18
18
ENDCHAR
STARTCHAR ibreve
ENCODING 301
SWIDTH 234 0
DWIDTH 6 0
BBX 7 18 -1 0
BITMAP
C6
46
3C
00
00
18
18
18
18
18
18
18
18
18
18
18
18
18
ENDCHAR
STARTCHAR Iogonek
ENCODING 302
SWIDTH 250 0
DWIDTH 6 0
BBX 4 22 0 -5
BITMAP
30
30
30
30
30
30
30
30
30
30
30
30
30
30
30
30
30
60
40
C0
F0
70
ENDCHAR
STARTCHAR iogonek
ENCODING 303
SWIDTH 229 0
DWIDTH 6 0
BBX 4 22 0 -5
BITMAP
30
30
00
00
30
30
30
30
30
30
30
30
30
30
30
30
30
60
C0
C0
F0
70
ENDCHAR
STARTCHAR Idotaccent
ENCODING 304
SWIDTH 250 0
DWIDTH 6 0
BBX 2 20 2 0
BITMAP
C0
C0
00
C0
C0
C0
C0
C0
C0
C0
C0
C0
C0
C0
C0
C0
C0
C0
C0
C0
ENDCHAR
STARTCHAR dotlessi
ENCODING 305
SWIDTH 234 0
DWIDTH 6 0
BBX 2 13 2 0
BITMAP
C0
C0
C0
C0
C0
C0
C0
C0
C0
C0
C0
C0
C0
ENDCHAR
STARTCHAR IJ
ENCODING 306
SWIDTH 733 0
DWIDTH 18 0
BBX 14 17 2 0
BITMAP
C00C
C00C
C00C
C00C
C00C
C00C
C00C
C00C
C00C
C00C
C00C
C00C
C60C
C61C
C718
C3F8
C1E0
ENDCHAR
STARTCHAR ij
ENCODING 307
SWIDTH 452 0
DWIDTH 11 0
BBX 7 22 2 -5
BITMAP
C6
C6
00
00
C6
C6
C6
C6
C6
C6
C6
C6
C6
C6
C6
C6
C6
06
06
06
1E
1C
ENDCHAR
STARTCHAR Jcircumflex
ENCODING 308
SWIDTH 483 0
DWIDTH 12 0
BBX 11 21 1 0
BITMAP
0380
06C0
0E60
0000
0180
0180
0180
0180
0180
0180
0180
0180
0180
0180
0180
0180
C180
C380
E300
7F00
3C00
ENDCHAR
STARTCHAR jcircumflex
ENCODING 309
SWIDTH 237 0
DWIDTH 6 0
BBX 6 23 0 -5
BITMAP
30
78
CC
00
00
30
30
30
30
30
30
30
30
30
30
30
30
30
30
30
30
E0
C0
ENDCHAR
STARTCHAR uni0136
ENCODING 310
SWIDTH 544 0
DWIDTH 13 0
BBX 11 22 2 -5
BITMAP
C0E0
C180
C380
C700
C600
CC00
DC00
F800
FC00
EC00
EE00
C700
C300
C380
C180
C1C0
C0E0
0C00
0C00
0C00
1800
0800
ENDCHAR
STARTCHAR uni0137
ENCODING 311
SWIDTH 450 0
DWIDTH 11 0
BBX 9 23 2 -5
BITMAP
C000
C000
C000
C000
C000
C700
C600
CC00
DC00
D800
F000
F800
F800
CC00
CE00
C600
C700
C300
1880
1800
3000
3000
3000
ENDCHAR
STARTCHAR kgreenlandic
ENCODING 312
SWIDTH 491 0
DWIDTH 12 0
BBX 9 13 2 0
BITMAP
C380
C700
CE00
CC00
D800
F800
F800
D800
CC00
CE00
C600
C300
C380
ENDCHAR
STARTCHAR Lacute
ENCODING 313
SWIDTH 475 0
DWIDTH 11 0
BBX 9 21 2 0
BITMAP
7800
6000
C000
0000
C000
C000
C000
C000
C000
C000
C000
C000
C000
C000
C000
C000
C000
C000
C000
FF80
FF80
ENDCHAR
STARTCHAR lacute
ENCODING 314
SWIDTH 229 0
DWIDTH 6 0
BBX 4 23 2 0
BITMAP
70
E0
C0
00
00
C0
C0
C0
C0
C0
C0
C0
C0
C0
C0
C0
C0
C0
C0
C0
C0
C0
C0
ENDCHAR
STARTCHAR uni013B
ENCODING 315
SWIDTH 475 0
DWIDTH 11 0
BBX 9 23 2 -6
BITMAP
C000
C000
C000
C000
C000
C000
C000
C000
C000
C000
C000
C000
C000
C000
C000
FF80
FF80
0000
1800
1800
1800
1800
1000
ENDCHAR
STARTCHAR uni013C
ENCODING 316
SWIDTH 229 0
DWIDTH 6 0
BBX 3 24 1 -6
BITMAP
60
60
60
60
60
60
60
60
60
60
60
60
60
60
60
60
60
60
00
60
60
60
C0
40
ENDCHAR
STARTCHAR Lcaron
ENCODING 317
SWIDTH 475 0
DWIDTH 11 0
BBX 9 17 2 0
BITMAP
C600
C600
C400
CC00
CC00
C000
C000
C000
C000
C000
C000
C000
C000
C000
C000
FF80
FF80
ENDCHAR
STARTCHAR lcaron
ENCODING 318
SWIDTH 302 0
DWIDTH 7 0
BBX 5 18 2 0
BITMAP
D8
D8
D8
D8
D0
C0
C0
C0
C0
C0
C0
C0
C0
C0
C0
C0
C0
C0
ENDCHAR
STARTCHAR Ldot
ENCODING 319
SWIDTH 475 0
DWIDTH 11 0
BBX 9 17 2 0
BITMAP
C000
C000
C000
C000
C000
C000
C000
CC00
CE00
C000
C000
C000
C000
C000
C000
FF80
FF80
ENDCHAR
STARTCHAR ldot
ENCODING 320
SWIDTH 336 0
DWIDTH 8 0
BBX 5 18 2 0
BITMAP
C0
C0
C0
C0
C0
C0
C0
C0
D8
D8
C0
C0
C0
C0
C0
C0
C0
C0
ENDCHAR
STARTCHAR Lslash
ENCODING 321
SWIDTH 475 0
DWIDTH 11 0
BBX 10 17 1 0
BITMAP
6000
6000
6000
6000
6000
6000
6800
7800
F000
E000
6000
6000
6000
6000
6000
7FC0
7FC0
ENDCHAR
STARTCHAR lslash
ENCODING 322
SWIDTH 250 0
DWIDTH 6 0
BBX 4 18 1 0
BITMAP
60
60
60
60
60
60
60
70
70
E0
E0
60
60
60
60
60
60
60
ENDCHAR
STARTCHAR Nacute
ENCODING 323
SWIDTH 619 0
DWIDTH 15 0
BBX 11 21 2 0
BITMAP
0380
0700
0C00
0000
C060
E060
E060
F060
F060
D860
DC60
CC60
CE60
C660
C360
C360
C1E0
C1E0
C0E0
C0E0
C060
ENDCHAR
STARTCHAR nacute
ENCODING 324
SWIDTH 483 0
DWIDTH 12 0
BBX 8 18 2 0
BITMAP
0F
0C
18
00
00
DE
FF
E3
C3
C3
C3
C3
C3
C3
C3
C3
C3
C3
ENDCHAR
STARTCHAR uni0145
ENCODING 325
SWIDTH 619 0
DWIDTH 15 0
BBX 11 23 2 -6
BITMAP
C060
E060
E060
F060
F060
D860
DC60
CC60
CE60
C660
C360
C360
C1E0
C1E0
C0E0
C0E0
C060
0000
0C00
0C00
0C00
0C00
0800
ENDCHAR
STARTCHAR uni0146
ENCODING 326
SWIDTH 483 0
DWIDTH 12 0
BBX 8 19 2 -6
BITMAP
DE
FF
E3
C3
C3
C3
C3
C3
C3
C3
C3
C3
C3
00
18
18
18
30
10
ENDCHAR
STARTCHAR Ncaron
ENCODING 327
SWIDTH 619 0
DWIDTH 15 0
BBX 11 21 2 0
BITMAP
3380
1A00
0C00
0000
C060
E060
E060
F060
F060
D860
DC60
CC60
CE60
C660
C360
C360
C1E0
C1E0
C0E0
C0E0
C060
ENDCHAR
STARTCHAR ncaron
ENCODING 328
SWIDTH 483 0
DWIDTH 12 0
BBX 8 18 2 0
BITMAP
66
3C
18
00
00
DE
FF
E3
C3
C3
C3
C3
C3
C3
C3
C3
C3
C3
ENDCHAR
STARTCHAR napostrophe
ENCODING 329
SWIDTH 483 0
DWIDTH 12 0
BBX 10 18 0 0
BITMAP
C000
C000
C000
C000
8000
3780
3FC0
38C0
30C0
30C0
30C0
30C0
30C0
30C0
30C0
30C0
30C0
30C0
ENDCHAR
STARTCHAR Eng
ENCODING 330
SWIDTH 599 0
DWIDTH 14 0
BBX 11 22 2 -5
BITMAP
C0E0
C0E0
E0E0
F0E0
F0E0
F8E0
D8E0
DCE0
CCE0
CEE0
C6E0
C3E0
C3E0
C1E0
C1E0
C0E0
C0E0
00E0
00C0
00C0
03C0
0380
ENDCHAR
STARTCHAR eng
ENCODING 331
SWIDTH 498 0
DWIDTH 12 0
BBX 8 18 2 -5
BITMAP
DE
FF
C7
C3
C3
C3
C3
C3
C3
C3
C3
C3
C3
03
03
03
0F
0E
ENDCHAR
STARTCHAR Omacron
ENCODING 332
SWIDTH 600 0
DWIDTH 14 0
BBX 12 21 1 0
BITMAP
1FC0
1FC0
0000
0000
0F80
3FC0
70E0
6060
6060
C070
C030
C030
C030
C030
C030
C070
6060
6060
70E0
3FC0
1F80
ENDCHAR
STARTCHAR omacron
ENCODING 333
SWIDTH 501 0
DWIDTH 12 0
BBX 10 17 1 0
BITMAP
3F00
3F00
0000
0000
1E00
7F00
6380
E1C0
C0C0
C0C0
C0C0
C0C0
C0C0
E1C0
6180
7F00
1E00
ENDCHAR
STARTCHAR Obreve
ENCODING 334
SWIDTH 600 0
DWIDTH 14 0
BBX 12 22 1 0
BITMAP
10C0
1980
0F00
0000
0000
0F80
3FC0
70E0
6060
6060
C070
C030
C030
C030
C030
C030
C070
6060
6060
70E0
3FC0
1F80
ENDCHAR
STARTCHAR obreve
ENCODING 335
SWIDTH 501 0
DWIDTH 12 0
BBX 10 18 1 0
BITMAP
6300
3300
1E00
0000
0000
1E00
7F00
6380
E1C0
C0C0
C0C0
C0C0
C0C0
C0C0
E1C0
6180
7F00
1E00
ENDCHAR
STARTCHAR Ohungarumlaut
ENCODING 336
SWIDTH 600 0
DWIDTH 14 0
BBX 12 22 1 0
BITMAP
06E0
06C0
0D80
0D80
0000
0F80
3FC0
70E0
6060
6060
C070
C030
C030
C030
C030
C030
C070
6060
6060
70E0
3FC0
1F80
ENDCHAR
STARTCHAR ohungarumlaut
ENCODING 337
SWIDTH 501 0
DWIDTH 12 0
BBX 10 19 1 0
BITMAP
0DC0
1B80
1B00
3600
0000
0000
1E00
7F00
6380
E1C0
C0C0
C0C0
C0C0
C0C0
C0C0
E1C0
6180
7F00
1E00
ENDCHAR
STARTCHAR OE
ENCODING 338
SWIDTH 826 0
DWIDTH 20 0
BBX 17 17 1 0
BITMAP
0FFF80
3FFF80
70C000
60C000
60C000
C0C000
C0C000
C0FF00
C0FF00
C0C000
C0C000
C0C000
60C000
60C000
70C000
3FFF80
0FFF80
ENDCHAR
STARTCHAR oe
ENCODING 339
SWIDTH 777 0
DWIDTH 19 0
BBX 17 13 1 0
BITMAP
1E1E00
3F3F00
71E300
61E180
60C180
C0FF80
C0FF80
C0C000
60C000
61E000
71E100
3F7F80
1E1E00
ENDCHAR
STARTCHAR Racute
ENCODING 340
SWIDTH 530 0
DWIDTH 13 0
BBX 10 21 2 0
BITMAP
0700
0C00
1800
0000
FE00
FF80
C180
C1C0
C0C0
C0C0
C1C0
C380
FF80
FE00
C700
C300
C300
C180
C180
C0C0
C0C0
ENDCHAR
STARTCHAR racute
ENCODING 341
SWIDTH 304 0
DWIDTH 7 0
BBX 7 18 1 0
BITMAP
0E
18
30
00
00
DC
FC
E0
E0
C0
C0
C0
C0
C0
C0
C0
C0
C0
ENDCHAR
STARTCHAR uni0156
ENCODING 342
SWIDTH 530 0
DWIDTH 13 0
BBX 10 23 2 -6
BITMAP
FE00
FF80
C180
C1C0
C0C0
C0C0
C1C0
C380
FF80
FE00
C700
C300
C300
C180
C180
C0C0
C0C0
0000
1800
1800
1800
1800
1000
ENDCHAR
STARTCHAR uni0157
ENCODING 343
SWIDTH 304 0
DWIDTH 7 0
BBX 6 19 1 -6
BITMAP
DC
FC
E0
E0
C0
C0
C0
C0
C0
C0
C0
C0
C0
00
60
60
60
C0
40
ENDCHAR
STARTCHAR Rcaron
ENCODING 344
SWIDTH 530 0
DWIDTH 13 0
BBX 10 21 2 0
BITMAP
6600
3C00
1800
0000
FE00
FF80
C180
C1C0
C0C0
C0C0
C1C0
C380
FF80
FE00
C700
C300
C300
C180
C180
C0C0
C0C0
ENDCHAR
STARTCHAR rcaron
ENCODING 345
SWIDTH 304 0
DWIDTH 7 0
BBX 6 18 1 0
BITMAP
CC
78
30
00
00
DC
FC
E0
E0
C0
C0
C0
C0
C0
C0
C0
C0
C0
ENDCHAR
STARTCHAR Sacute
ENCODING 346
SWIDTH 518 0
DWIDTH 12 0
BBX 10 21 1 0
BITMAP
0380
0600
0C00
0000
1E00
7F80
6180
E0C0
C0C0
E000
6000
7C00
1F00
0780
01C0
00C0
C0C0
C0C0
61C0
7F80
1F00
ENDCHAR
STARTCHAR sacute
ENCODING 347
SWIDTH 455 0
DWIDTH 11 0
BBX 9 18 1 0
BITMAP
0780
0600
0C00
0000
0000
3E00
7F00
6300
6180
6000
7800
3E00
0700
0380
C180
E380
7F00
3E00
ENDCHAR
STARTCHAR Scircumflex
ENCODING 348
SWIDTH 518 0
DWIDTH 12 0
BBX 10 21 1 0
BITMAP
0C00
1B00
3300
0000
1E00
7F80
6180
E0C0
C0C0
E000
6000
7C00
1F00
0780
01C0
00C0
C0C0
C0C0
61C0
7F80
1F00
ENDCHAR
STARTCHAR scircumflex
ENCODING 349
SWIDTH 455 0
DWIDTH 11 0
BBX 9 18 1 0
BITMAP
0C00
1E00
3300
0000
0000
3E00
7F00
6300
6180
6000
7800
3E00
0700
0380
C180
E380
7F00
3E00
ENDCHAR
STARTCHAR Scedilla
ENCODING 350
SWIDTH 518 0
DWIDTH 12 0
BBX 10 22 1 -5
BITMAP
1E00
7F80
6180
E0C0
C0C0
E000
6000
7C00
1F00
0780
01C0
00C0
C0C0
C0C0
61C0
7F80
1F00
0400
0600
0300
0300
0600
ENDCHAR
STARTCHAR scedilla
ENCODING 351
SWIDTH 455 0
DWIDTH 11 0
BBX 9 18 1 -5
BITMAP
3E00
7F00
6300
6180
6000
7800
3E00
0700
0380
C180
E380
7F00
3E00
0C00
0E00
0200
0600
0C00
ENDCHAR
STARTCHAR Scaron
ENCODING 352
SWIDTH 518 0
DWIDTH 12 0
BBX 10 21 1 0
BITMAP
3380
1A00
0C00
0000
1E00
7F80
6180
E0C0
C0C0
E000
6000
7C00
1F00
0780
01C0
00C0
C0C0
C0C0
61C0
7F80
1F00
ENDCHAR
STARTCHAR scaron
ENCODING 353
SWIDTH 455 0
DWIDTH 11 0
BBX 9 18 1 0
BITMAP
3300
1E00
0C00
0000
0000
3E00
7F00
6300
6180
6000
7800
3E00
0700
0380
C180
E380
7F00
3E00
ENDCHAR
STARTCHAR uni0162
ENCODING 354
SWIDTH 520 0
DWIDTH 13 0
BBX 11 22 1 -5
BITMAP
FFE0
FFE0
0C00
0C00
0C00
0C00
0C00
0C00
0C00
0C00
0C00
0C00
0C00
0C00
0C00
0C00
0C00
0400
0600
0300
0300
0600
ENDCHAR
STARTCHAR uni0163
ENCODING 355
SWIDTH 295 0
DWIDTH 7 0
BBX 7 21 0 -5
BITMAP
30
30
30
FC
FC
30
30
30
30
30
30
30
30
30
3C
1C
0C
0E
02
06
0C
ENDCHAR
STARTCHAR Tcaron
ENCODING 356
SWIDTH 520 0
DWIDTH 13 0
BBX 11 21 1 0
BITMAP
3300
1E00
0C00
0000
FFE0
FFE0
0C00
0C00
0C00
0C00
0C00
0C00
0C00
0C00
0C00
0C00
0C00
0C00
0C00
0C00
0C00
ENDCHAR
STARTCHAR tcaron
ENCODING 357
SWIDTH 314 0
DWIDTH 8 0
BBX 8 20 0 0
BITMAP
03
03
03
03
36
30
30
FC
FC
30
30
30
30
30
30
30
30
30
3C
1C
ENDCHAR
STARTCHAR Tbar
ENCODING 358
SWIDTH 520 0
DWIDTH 13 0
BBX 11 17 1 0
BITMAP
FFE0
FFE0
0C00
0C00
0C00
0C00
3F80
3F80
0C00
0C00
0C00
0C00
0C00
0C00
0C00
0C00
0C00
ENDCHAR
STARTCHAR tbar
ENCODING 359
SWIDTH 295 0
DWIDTH 7 0
BBX 6 16 0 0
BITMAP
30
30
30
FC
FC
30
30
FC
FC
30
30
30
30
30
3C
1C
ENDCHAR
STARTCHAR Utilde
ENCODING 360
SWIDTH 561 0
DWIDTH 13 0
BBX 11 21 1 0
BITMAP
1C80
3F80
3300
0000
C060
C060
C060
C060
C060
C060
C060
C060
C060
C060
C060
C060
C060
E0E0
71C0
7FC0
1F00
ENDCHAR
STARTCHAR utilde
ENCODING 361
SWIDTH 483 0
DWIDTH 12 0
BBX 8 18 2 0
BITMAP
72
FE
CC
00
00
C3
C3
C3
C3
C3
C3
C3
C3
C3
C3
C7
FF
7B
ENDCHAR
STARTCHAR Umacron
ENCODING 362
SWIDTH 561 0
DWIDTH 13 0
BBX 11 21 1 0
BITMAP
3F80
3F80
0000
0000
C060
C060
C060
C060
C060
C060
C060
C060
C060
C060
C060
C060
C060
E0E0
71C0
7FC0
1F00
ENDCHAR
STARTCHAR umacron
ENCODING 363
SWIDTH 483 0
DWIDTH 12 0
BBX 8 17 2 0
BITMAP
FE
FE
00
00
C3
C3
C3
C3
C3
C3
C3
C3
C3
C3
C7
FF
7B
ENDCHAR
STARTCHAR Ubreve
ENCODING 364
SWIDTH 561 0
DWIDTH 13 0
BBX 11 22 1 0
BITMAP
3180
3180
0F00
0000
0000
C060
C060
C060
C060
C060
C060
C060
C060
C060
C060
C060
C060
C060
E0E0
71C0
7FC0
1F00
ENDCHAR
STARTCHAR ubreve
ENCODING 365
SWIDTH 483 0
DWIDTH 12 0
BBX 8 18 2 0
BITMAP
C6
46
3C
00
00
C3
C3
C3
C3
C3
C3
C3
C3
C3
C3
C7
FF
7B
ENDCHAR
STARTCHAR Uring
ENCODING 366
SWIDTH 561 0
DWIDTH 13 0
BBX 11 23 1 0
BITMAP
0E00
1900
1100
1900
0E00
0000
C060
C060
C060
C060
C060
C060
C060
C060
C060
C060
C060
C060
C060
E0E0
71C0
7FC0
1F00
ENDCHAR
STARTCHAR uring
ENCODING 367
SWIDTH 483 0
DWIDTH 12 0
BBX 8 19 2 0
BITMAP
38
64
44
64
38
00
C3
C3
C3
C3
C3
C3
C3
C3
C3
C3
C7
FF
7B
ENDCHAR
STARTCHAR Uhungarumlaut
ENCODING 368
SWIDTH 561 0
DWIDTH 13 0
BBX 11 22 1 0
BITMAP
0EC0
0DC0
0D80
1B00
0000
C060
C060
C060
C060
C060
C060
C060
C060
C060
C060
C060
C060
C060
E0E0
71C0
7FC0
1F00
ENDCHAR
STARTCHAR uhungarumlaut
ENCODING 369
SWIDTH 483 0
DWIDTH 12 0
BBX 9 19 2 0
BITMAP
1B80
3700
3600
6C00
0000
0000
C300
C300
C300
C300
C300
C300
C300
C300
C300
C300
C700
FF00
7B00
ENDCHAR
STARTCHAR Uogonek
ENCODING 370
SWIDTH 561 0
DWIDTH 13 0
BBX 11 22 1 -5
BITMAP
C060
C060
C060
C060
C060
C060
C060
C060
C060
C060
C060
C060
C060
E0E0
71C0
7F80
1F00
0600
0600
0600
0700
0300
ENDCHAR
STARTCHAR uogonek
ENCODING 371
SWIDTH 483 0
DWIDTH 12 0
BBX 8 18 2 -5
BITMAP
C3
C3
C3
C3
C3
C3
C3
C3
C3
C3
C7
FF
7B
03
06
04
07
07
ENDCHAR
STARTCHAR Wcircumflex
ENCODING 372
SWIDTH 761 0
DWIDTH 18 0
BBX 17 21 1 0
BITMAP
018000
034000
066000
000000
C18380
C1C300
C1C300
61C300
63C300
634700
636600
626600
366600
362600
363600
343C00
343C00
1C1C00
1C1C00
1C1C00
181800
ENDCHAR
STARTCHAR wcircumflex
ENCODING 373
SWIDTH 649 0
DWIDTH 16 0
BBX 14 18 1 0
BITMAP
0300
0780
0CC0
0000
0000
C30C
C30C
C70C
6798
6798
6798
6C98
2CD0
3CF0
3870
3870
1860
1860
ENDCHAR
STARTCHAR Ycircumflex
ENCODING 374
SWIDTH 524 0
DWIDTH 13 0
BBX 12 21 0 0
BITMAP
0600
0D00
1980
0000
E030
6070
7060
30E0
38C0
18C0
1980
0D80
0F00
0700
0600
0600
0600
0600
0600
0600
0600
ENDCHAR
STARTCHAR ycircumflex
ENCODING 375
SWIDTH 416 0
DWIDTH 10 0
BBX 10 23 0 -5
BITMAP
0C00
1E00
3300
0000
0000
E1C0
6180
6180
7380
3300
3300
3300
1E00
1E00
1E00
0E00
0C00
0C00
0C00
0800
1800
7800
7000
ENDCHAR
STARTCHAR Ydieresis
ENCODING 376
SWIDTH 524 0
DWIDTH 13 0
BBX 12 20 0 0
BITMAP
18C0
18C0
0000
E030
6070
7060
30E0
38C0
18C0
1980
0D80
0F00
0700
0600
0600
0600
0600
0600
0600
0600
ENDCHAR
STARTCHAR Zacute
ENCODING 377
SWIDTH 522 0
DWIDTH 13 0
BBX 11 21 1 0
BITMAP
0380
0600
0C00
0000
FFC0
FFC0
00C0
0180
0380
0300
0600
0600
0C00
1C00
1800
3800
3000
6000
E000
FFE0
FFE0
ENDCHAR
STARTCHAR zacute
ENCODING 378
SWIDTH 438 0
DWIDTH 11 0
BBX 9 18 1 0
BITMAP
0700
0C00
1800
0000
0000
FF00
FF00
0300
0600
0E00
0C00
1800
3800
3000
6000
6000
FF80
FF80
ENDCHAR
STARTCHAR Zdotaccent
ENCODING 379
SWIDTH 522 0
DWIDTH 13 0
BBX 11 20 1 0
BITMAP
0C00
0E00
0000
FFC0
FFC0
00C0
0180
0380
0300
0600
0600
0C00
1C00
1800
3800
3000
6000
E000
FFE0
FFE0
ENDCHAR
STARTCHAR zdotaccent
ENCODING 380
SWIDTH 438 0
DWIDTH 11 0
BBX 9 17 1 0
BITMAP
1800
1C00
0000
0000
FF00
FF00
0300
0600
0E00
0C00
1800
3800
3000
6000
6000
FF80
FF80
ENDCHAR
STARTCHAR Zcaron
ENCODING 381
SWIDTH 522 0
DWIDTH 13 0
BBX 11 21 1 0
BITMAP
3300
1A00
0C00
0000
FFC0
FFC0
00C0
0180
0380
0300
0600
0600
0C00
1C00
1800
3800
3000
6000
E000
FFE0
FFE0
ENDCHAR
STARTCHAR zcaron
ENCODING 382
SWIDTH 438 0
DWIDTH 11 0
BBX 9 18 1 0
BITMAP
6600
3400
1800
0000
0000
FF00
FF00
0300
0600
0E00
0C00
1800
3800
3000
6000
6000
FF80
FF80
ENDCHAR
STARTCHAR longs
ENCODING 383
SWIDTH 234 0
DWIDTH 6 0
BBX 5 18 2 0
BITMAP
38
78
E0
C0
C0
C0
C0
C0
C0
C0
C0
C0
C0
C0
C0
C0
C0
C0
ENDCHAR
STARTCHAR uni018F
ENCODING 399
SWIDTH 597 0
DWIDTH 14 0
BBX 12 17 1 0
BITMAP
1F00
7F80
21C0
00E0
0060
0070
0030
0030
FFF0
FFF0
C030
C070
C060
6060
71C0
3F80
1F00
ENDCHAR
STARTCHAR florin
ENCODING 402
SWIDTH 309 0
DWIDTH 7 0
BBX 7 23 0 -5
BITMAP
0E
1E
38
30
30
FC
FC
30
30
30
30
30
30
30
30
30
30
30
30
30
30
F0
E0
ENDCHAR
STARTCHAR Ohorn
ENCODING 416
SWIDTH 592 0
DWIDTH 14 0
BBX 13 18 1 0
BITMAP
0018
0F18
3F98
70F0
6060
E060
C060
C070
C030
C030
C030
C070
C060
E060
6060
70C0
3FC0
0F00
ENDCHAR
STARTCHAR ohorn
ENCODING 417
SWIDTH 502 0
DWIDTH 12 0
BBX 11 14 1 0
BITMAP
0020
1E60
3F60
73C0
6180
C0C0
C0C0
C0C0
C0C0
C0C0
6180
7380
3F00
1E00
ENDCHAR
STARTCHAR Uhorn
ENCODING 431
SWIDTH 608 0
DWIDTH 15 0
BBX 14 18 2 0
BITMAP
000C
C0CC
C0D8
C0F0
C0C0
C0C0
C0C0
C0C0
C0C0
C0C0
C0C0
C0C0
C0C0
C0C0
C0C0
E180
7F80
1E00
ENDCHAR
STARTCHAR uhorn
ENCODING 432
SWIDTH 549 0
DWIDTH 13 0
BBX 12 14 1 0
BITMAP
0030
C1B0
C1B0
C1E0
C180
C180
C180
C180
C180
C180
E180
6380
7F80
3D80
ENDCHAR
STARTCHAR uni01F0
ENCODING 496
SWIDTH 237 0
DWIDTH 6 0
BBX 6 23 0 -5
BITMAP
CC
78
30
00
00
30
30
30
30
30
30
30
30
30
30
30
30
30
30
30
30
E0
C0
ENDCHAR
STARTCHAR Aringacute
ENCODING 506
SWIDTH 576 0
DWIDTH 14 0
BBX 12 23 1 0
BITMAP
0380
0200
0000
0600
0900
0900
0600
0600
0F00
0F00
0F00
1980
1980
1980
30C0
30C0
30C0
7FE0
7FE0
6060
E070
C030
C030
ENDCHAR
STARTCHAR aringacute
ENCODING 507
SWIDTH 479 0
DWIDTH 12 0
BBX 8 20 2 0
BITMAP
0E
08
00
18
24
24
18
3C
7E
C3
C3
03
3F
7F
E3
C3
C3
C7
FF
7B
ENDCHAR
STARTCHAR AEacute
ENCODING 508
SWIDTH 812 0
DWIDTH 19 0
BBX 19 21 0 0
BITMAP
003800
007000
00C000
000000
00FFC0
00FFC0
01F000
01B000
03B000
033000
073000
063FC0
0E3FC0
0C3000
1C3000
1FF000
3FF000
303000
703000
603FE0
E03FE0
ENDCHAR
STARTCHAR aeacute
ENCODING 509
SWIDTH 728 0
DWIDTH 17 0
BBX 15 18 1 0
BITMAP
00E0
01C0
0380
0000
0000
3C78
7EFC
E3CE
C386
0306
3FFE
7FFE
E300
C300
C380
C7C2
FEFE
7C7C
ENDCHAR
STARTCHAR Oslashacute
ENCODING 510
SWIDTH 600 0
DWIDTH 14 0
BBX 12 24 1 -1
BITMAP
01C0
0300
0600
0000
0000
0000
0F30
3FE0
30C0
60E0
60E0
E1F0
C130
C330
C230
C630
C430
EC70
7860
7860
30E0
3FC0
6F00
4000
ENDCHAR
STARTCHAR oslashacute
ENCODING 511
SWIDTH 498 0
DWIDTH 12 0
BBX 10 19 1 -1
BITMAP
0700
0E00
1C00
0000
0180
1F00
3F00
7380
6380
C6C0
C4C0
CCC0
C8C0
C8C0
7980
7380
3F00
3E00
6000
ENDCHAR
STARTCHAR uni0218
ENCODING 536
SWIDTH 518 0
DWIDTH 12 0
BBX 10 23 1 -6
BITMAP
1E00
7F80
6180
E0C0
C0C0
E000
6000
7C00
1F00
0780
01C0
00C0
C0C0
C0C0
61C0
7F80
1F00
0000
0600
0600
0C00
0C00
0800
ENDCHAR
STARTCHAR uni0219
ENCODING 537
SWIDTH 455 0
DWIDTH 11 0
BBX 9 19 1 -6
BITMAP
3E00
7F00
6300
6180
6000
7800
3E00
0700
0380
C180
E380
7F00
3E00
0000
0C00
0C00
0C00
0800
1800
ENDCHAR
STARTCHAR uni021A
ENCODING 538
SWIDTH 520 0
DWIDTH 13 0
BBX 11 23 1 -6
BITMAP
FFE0
FFE0
0C00
0C00
0C00
0C00
0C00
0C00
0C00
0C00
0C00
0C00
0C00
0C00
0C00
0C00
0C00
0000
0C00
0C00
0C00
0C00
0800
ENDCHAR
STARTCHAR uni021B
ENCODING 539
SWIDTH 295 0
DWIDTH 7 0
BBX 6 22 0 -6
BITMAP
30
30
30
FC
FC
30
30
30
30
30
30
30
30
30
3C
1C
00
0C
0C
0C
18
08
ENDCHAR
STARTCHAR uni0237
ENCODING 567
SWIDTH 237 0
DWIDTH 6 0
BBX 4 18 0 -5
BITMAP
30
30
30
30
30
30
30
30
30
30
30
30
30
30
30
30
E0
C0
ENDCHAR
STARTCHAR uni0259
ENCODING 601
SWIDTH 465 0
DWIDTH 11 0
BBX 9 13 1 0
BITMAP
3C00
7F00
C300
0380
0180
0180
FF80
FF80
C180
C180
6300
7F00
3C00
ENDCHAR
STARTCHAR uni02BC
ENCODING 700
SWIDTH 194 0
DWIDTH 5 0
BBX 3 6 1 12
BITMAP
60
60
60
60
C0
80
ENDCHAR
STARTCHAR circumflex
ENCODING 710
SWIDTH 428 0
DWIDTH 10 0
BBX 6 3 2 15
BITMAP
30
78
CC
ENDCHAR
STARTCHAR caron
ENCODING 711
SWIDTH 403 0
DWIDTH 10 0
BBX 6 3 2 15
BITMAP
CC
78
30
ENDCHAR
STARTCHAR uni02C9
ENCODING 713
SWIDTH 414 0
DWIDTH 10 0
BBX 6 2 2 15
BITMAP
FC
FC
ENDCHAR
STARTCHAR breve
ENCODING 728
SWIDTH 426 0
DWIDTH 10 0
BBX 7 3 1 15
BITMAP
C6
66
3C
ENDCHAR
STARTCHAR dotaccent
ENCODING 729
SWIDTH 242 0
DWIDTH 6 0
BBX 2 2 2 15
BITMAP
C0
C0
ENDCHAR
STARTCHAR ring
ENCODING 730
SWIDTH 334 0
DWIDTH 8 0
BBX 5 5 1 14
BITMAP
70
48
C8
48
70
ENDCHAR
STARTCHAR ogonek
ENCODING 731
SWIDTH 253 0
DWIDTH 6 0
BBX 3 6 1 -5
BITMAP
20
40
C0
80
E0
E0
ENDCHAR
STARTCHAR tilde
ENCODING 732
SWIDTH 427 0
DWIDTH 10 0
BBX 7 3 2 15
BITMAP
E6
FC
9C
ENDCHAR
STARTCHAR hungarumlaut
ENCODING 733
SWIDTH 331 0
DWIDTH 8 0
BBX 7 4 1 14
BITMAP
76
6C
CC
D8
ENDCHAR
STARTCHAR uni02F3
ENCODING 755
SWIDTH 263 0
DWIDTH 6 0
BBX 4 4 1 -5
BITMAP
60
90
90
60
ENDCHAR
STARTCHAR gravecomb
ENCODING 768
SWIDTH 0 0
DWIDTH 0 0
BBX 4 3 -8 15
BITMAP
C0
60
30
ENDCHAR
STARTCHAR acutecomb
ENCODING 769
SWIDTH 0 0
DWIDTH 0 0
BBX 4 3 -6 15
BITMAP
70
E0
C0
ENDCHAR
STARTCHAR tildecomb
ENCODING 771
SWIDTH 0 0
DWIDTH 0 0
BBX 7 3 -9 15
BITMAP
72
7E
CE
ENDCHAR
STARTCHAR hookabovecomb
ENCODING 777
SWIDTH 0 0
DWIDTH 0 0
BBX 3 5 -6 15
BITMAP
C0
40
60
C0
80
ENDCHAR
STARTCHAR uni030F
ENCODING 783
SWIDTH 0 0
DWIDTH 0 0
BBX 8 3 -10 15
BITMAP
EE
36
1B
ENDCHAR
STARTCHAR dotbelowcomb
ENCODING 803
SWIDTH 0 0
DWIDTH 0 0
BBX 2 2 -8 -4
BITMAP
C0
C0
ENDCHAR
STARTCHAR tonos
ENCODING 900
SWIDTH 256 0
DWIDTH 6 0
BBX 3 4 2 15
BITMAP
60
C0
C0
C0
ENDCHAR
STARTCHAR dieresistonos
ENCODING 901
SWIDTH 452 0
DWIDTH 11 0
BBX 8 5 1 15
BITMAP
0C
0C
18
C3
E3
ENDCHAR
STARTCHAR Alphatonos
ENCODING 902
SWIDTH 576 0
DWIDTH 14 0
BBX 12 19 1 0
BITMAP
7000
6000
6600
4600
0F00
0F00
0F00
1980
1980
1980
30C0
30C0
30C0
7FE0
7FE0
6060
E070
C030
C030
ENDCHAR
STARTCHAR anoteleia
ENCODING 903
SWIDTH 243 0
DWIDTH 6 0
BBX 2 3 2 7
BITMAP
C0
C0
C0
ENDCHAR
STARTCHAR Epsilontonos
ENCODING 904
SWIDTH 496 0
DWIDTH 12 0
BBX 13 19 -2 0
BITMAP
E000
C000
CFF8
8FF8
0C00
0C00
0C00
0C00
0C00
0FF0
0FF0
0C00
0C00
0C00
0C00
0C00
0C00
0FF8
0FF8
ENDCHAR
STARTCHAR Etatonos
ENCODING 905
SWIDTH 620 0
DWIDTH 15 0
BBX 15 19 -2 0
BITMAP
6000
C000
CC06
8C06
0C06
0C06
0C06
0C06
0C06
0FFE
0FFE
0C06
0C06
0C06
0C06
0C06
0C06
0C06
0C06
ENDCHAR
STARTCHAR Iotatonos
ENCODING 906
SWIDTH 250 0
DWIDTH 6 0
BBX 6 19 -2 0
BITMAP
60
C0
CC
8C
0C
0C
0C
0C
0C
0C
0C
0C
0C
0C
0C
0C
0C
0C
0C
ENDCHAR
STARTCHAR Omicrontonos
ENCODING 908
SWIDTH 610 0
DWIDTH 15 0
BBX 13 19 0 0
BITMAP
C000
C000
C7C0
9FE0
1870
3030
3038
3018
7018
7018
7018
7018
7018
3018
3038
3030
1870
1FE0
07C0
ENDCHAR
STARTCHAR Upsilontonos
ENCODING 910
SWIDTH 573 0
DWIDTH 14 0
BBX 15 19 -2 0
BITMAP
C000
C000
8C06
8E0E
060C
060C
0318
0318
03B0
01B0
01F0
00E0
00E0
00E0
00E0
00E0
00E0
00E0
00E0
ENDCHAR
STARTCHAR Omegatonos
ENCODING 911
SWIDTH 591 0
DWIDTH 14 0
BBX 13 19 0 0
BITMAP
C000
C000
C780
8FE0
1C60
3830
3030
3038
3038
3038
3038
3038
3030
3030
3030
1820
1860
3EF8
3EF8
ENDCHAR
STARTCHAR iotadieresistonos
ENCODING 912
SWIDTH 299 0
DWIDTH 7 0
BBX 8 20 -1 0
BITMAP
0C
0C
18
C3
E3
00
00
18
18
18
18
18
18
18
18
18
18
18
1E
0E
ENDCHAR
STARTCHAR Alpha
ENCODING 913
SWIDTH 576 0
DWIDTH 14 0
BBX 12 17 1 0
BITMAP
0600
0600
0F00
0F00
0F00
1980
1980
1980
30C0
30C0
30C0
7FE0
7FE0
6060
E070
C030
C030
ENDCHAR
STARTCHAR Beta
ENCODING 914
SWIDTH 545 0
DWIDTH 13 0
BBX 10 17 2 0
BITMAP
FE00
FF80
C380
C180
C180
C180
C380
FF00
FF00
C180
C1C0
C1C0
C0C0
C1C0
C180
FF80
FE00
ENDCHAR
STARTCHAR Gamma
ENCODING 915
SWIDTH 487 0
DWIDTH 12 0
BBX 9 17 2 0
BITMAP
FF80
FF80
C000
C000
C000
C000
C000
C000
C000
C000
C000
C000
C000
C000
C000
C000
C000
ENDCHAR
STARTCHAR Delta.dup1
ENCODING 916
SWIDTH 614 0
DWIDTH 15 0
BBX 14 17 0 0
BITMAP
0380
0380
0380
06C0
06C0
06C0
0C60
0C60
0C60
1870
1830
3830
3038
3018
7018
7FFC
FFFC
ENDCHAR
STARTCHAR Epsilon
ENCODING 917
SWIDTH 496 0
DWIDTH 12 0
BBX 9 17 2 0
BITMAP
FF80
FF80
C000
C000
C000
C000
C000
FF00
FF00
C000
C000
C000
C000
C000
C000
FF80
FF80
ENDCHAR
STARTCHAR Zeta
ENCODING 918
SWIDTH 522 0
DWIDTH 13 0
BBX 11 17 1 0
BITMAP
FFC0
FFC0
00C0
0180
0380
0300
0600
0600
0C00
1C00
1800
3800
3000
6000
E000
FFE0
FFE0
ENDCHAR
STARTCHAR Eta
ENCODING 919
SWIDTH 620 0
DWIDTH 15 0
BBX 11 17 2 0
BITMAP
C060
C060
C060
C060
C060
C060
C060
FFE0
FFE0
C060
C060
C060
C060
C060
C060
C060
C060
ENDCHAR
STARTCHAR Theta
ENCODING 920
SWIDTH 593 0
DWIDTH 14 0
BBX 12 17 1 0
BITMAP
0F00
3FC0
70C0
6060
6060
C060
C030
CFB0
CFB0
C030
C030
C070
6060
6060
70C0
3FC0
0F00
ENDCHAR
STARTCHAR Iota
ENCODING 921
SWIDTH 250 0
DWIDTH 6 0
BBX 2 17 2 0
BITMAP
C0
C0
C0
C0
C0
C0
C0
C0
C0
C0
C0
C0
C0
C0
C0
C0
C0
ENDCHAR
STARTCHAR Kappa
ENCODING 922
SWIDTH 544 0
DWIDTH 13 0
BBX 11 17 2 0
BITMAP
C0E0
C180
C380
C700
C600
CC00
DC00
F800
FC00
EC00
EE00
C700
C300
C380
C180
C1C0
C0E0
ENDCHAR
STARTCHAR Lambda
ENCODING 923
SWIDTH 572 0
DWIDTH 14 0
BBX 12 17 1 0
BITMAP
0600
0E00
0F00
0F00
1F00
1B00
1980
1980
3180
31C0
30C0
70C0
60E0
6060
E060
C070
C030
ENDCHAR
STARTCHAR Mu
ENCODING 924
SWIDTH 755 0
DWIDTH 18 0
BBX 14 17 2 0
BITMAP
E01C
E01C
E01C
F03C
F03C
F03C
D86C
D86C
D86C
CCCC
CCCC
CCCC
C78C
C78C
C78C
C30C
C30C
ENDCHAR
STARTCHAR Nu
ENCODING 925
SWIDTH 619 0
DWIDTH 15 0
BBX 11 17 2 0
BITMAP
C060
E060
E060
F060
F060
D860
DC60
CC60
CE60
C660
C360
C360
C1E0
C1E0
C0E0
C0E0
C060
ENDCHAR
STARTCHAR Xi
ENCODING 926
SWIDTH 502 0
DWIDTH 12 0
BBX 10 17 1 0
BITMAP
FFC0
FFC0
0000
0000
0000
0000
0000
7F80
7F80
0000
0000
0000
0000
0000
0000
FFC0
FFC0
ENDCHAR
STARTCHAR Omicron
ENCODING 927
SWIDTH 600 0
DWIDTH 14 0
BBX 12 17 1 0
BITMAP
0F80
3FC0
70E0
6060
6060
C070
C030
C030
C030
C030
C030
C070
6060
6060
70E0
3FC0
1F80
ENDCHAR
STARTCHAR Pi
ENCODING 928
SWIDTH 620 0
DWIDTH 15 0
BBX 11 17 2 0
BITMAP
FFE0
FFE0
C060
C060
C060
C060
C060
C060
C060
C060
C060
C060
C060
C060
C060
C060
C060
ENDCHAR
STARTCHAR Rho
ENCODING 929
SWIDTH 554 0
DWIDTH 13 0
BBX 10 17 2 0
BITMAP
FE00
FF80
C1C0
C0C0
C0C0
C0C0
C0C0
C0C0
C1C0
FF80
FF00
C000
C000
C000
C000
C000
C000
ENDCHAR
STARTCHAR Sigma
ENCODING 931
SWIDTH 502 0
DWIDTH 12 0
BBX 10 17 1 0
BITMAP
FFC0
FFC0
E000
7000
3000
3800
1C00
0C00
0600
0C00
1C00
3800
3000
7000
E000
FFC0
FFC0
ENDCHAR
STARTCHAR Tau
ENCODING 932
SWIDTH 520 0
DWIDTH 13 0
BBX 11 17 1 0
BITMAP
FFE0
FFE0
0C00
0C00
0C00
0C00
0C00
0C00
0C00
0C00
0C00
0C00
0C00
0C00
0C00
0C00
0C00
ENDCHAR
STARTCHAR Upsilon
ENCODING 933
SWIDTH 524 0
DWIDTH 13 0
BBX 12 17 0 0
BITMAP
E030
6070
7060
30E0
38C0
18C0
1980
0D80
0F00
0700
0600
0600
0600
0600
0600
0600
0600
ENDCHAR
STARTCHAR Phi
ENCODING 934
SWIDTH 621 0
DWIDTH 15 0
BBX 13 17 1 0
BITMAP
0700
0700
1FC0
3FE0
7770
6738
C718
C718
C718
C718
C718
E738
7770
3FE0
1FC0
0700
0700
ENDCHAR
STARTCHAR Chi
ENCODING 935
SWIDTH 550 0
DWIDTH 13 0
BBX 11 17 1 0
BITMAP
E060
60E0
70C0
31C0
3980
1B00
1F00
0E00
0E00
0E00
1F00
1B80
3980
31C0
70C0
60E0
E060
ENDCHAR
STARTCHAR Psi
ENCODING 936
SWIDTH 600 0
DWIDTH 14 0
BBX 12 17 1 0
BITMAP
C630
C630
C630
C630
C630
C630
C630
C630
C670
E660
76E0
3FC0
1F80
0600
0600
0600
0600
ENDCHAR
STARTCHAR Omega.dup2
ENCODING 937
SWIDTH 581 0
DWIDTH 14 0
BBX 11 17 1 0
BITMAP
0F00
3F80
71C0
60E0
6060
E060
E060
E060
E060
E060
E060
6060
6060
60C0
30C0
FBE0
FBE0
ENDCHAR
STARTCHAR Iotadieresis
ENCODING 938
SWIDTH 250 0
DWIDTH 6 0
BBX 8 20 -1 0
BITMAP
E7
E7
00
18
18
18
18
18
18
18
18
18
18
18
18
18
18
18
18
18
ENDCHAR
STARTCHAR Upsilondieresis
ENCODING 939
SWIDTH 524 0
DWIDTH 13 0
BBX 12 20 0 0
BITMAP
18C0
18C0
0000
E030
6070
7060
30E0
38C0
18C0
1980
0D80
0F00
0700
0600
0600
0600
0600
0600
0600
0600
ENDCHAR
STARTCHAR alphatonos
ENCODING 940
SWIDTH 494 0
DWIDTH 12 0
BBX 11 19 1 0
BITMAP
0600
0600
0400
0400
0000
0000
1D80
3F80
7380
6180
E180
C180
C180
C180
C180
6180
7380
7FC0
1CE0
ENDCHAR
STARTCHAR epsilontonos
ENCODING 941
SWIDTH 470 0
DWIDTH 11 0
BBX 9 19 1 0
BITMAP
0E00
0C00
0C00
0800
0000
0000
3E00
7F00
E380
C000
E000
7C00
7C00
E000
C000
C180
E380
7F00
3E00
ENDCHAR
STARTCHAR etatonos
ENCODING 942
SWIDTH 498 0
DWIDTH 12 0
BBX 8 24 2 -5
BITMAP
0C
18
18
18
00
00
DE
FF
E7
C3
C3
C3
C3
C3
C3
C3
C3
C3
C3
03
03
03
03
03
ENDCHAR
STARTCHAR iotatonos
ENCODING 943
SWIDTH 299 0
DWIDTH 7 0
BBX 4 19 2 0
BITMAP
60
60
40
C0
00
00
C0
C0
C0
C0
C0
C0
C0
C0
C0
C0
C0
F0
70
ENDCHAR
STARTCHAR upsilondieresistonos
ENCODING 944
SWIDTH 480 0
DWIDTH 12 0
BBX 9 20 2 0
BITMAP
1800
1800
1000
C700
C700
0000
0000
C700
C300
C300
C300
C380
C380
C180
C380
C300
C300
E700
7E00
3C00
ENDCHAR
STARTCHAR alpha
ENCODING 945
SWIDTH 494 0
DWIDTH 12 0
BBX 11 13 1 0
BITMAP
1D80
3F80
7380
6180
E180
C180
C180
C180
C180
6180
7380
7FC0
1CE0
ENDCHAR
STARTCHAR beta
ENCODING 946
SWIDTH 517 0
DWIDTH 12 0
BBX 9 22 2 -5
BITMAP
3C00
7E00
E700
C300
C300
C300
C700
DE00
DE00
C300
C180
C180
C180
C180
C300
FF00
FE00
C000
C000
C000
C000
C000
ENDCHAR
STARTCHAR gamma
ENCODING 947
SWIDTH 444 0
DWIDTH 11 0
BBX 9 18 1 -5
BITMAP
C180
C180
6380
6300
6300
3300
3600
3600
3600
1C00
1C00
1C00
0C00
0C00
0C00
0C00
0C00
0C00
ENDCHAR
STARTCHAR delta
ENCODING 948
SWIDTH 498 0
DWIDTH 12 0
BBX 10 18 1 0
BITMAP
1E00
3F00
3100
7000
3000
3C00
1F00
3380
6180
E1C0
C0C0
C0C0
C0C0
C1C0
6180
7380
3F00
1E00
ENDCHAR
STARTCHAR epsilon
ENCODING 949
SWIDTH 470 0
DWIDTH 11 0
BBX 9 13 1 0
BITMAP
3E00
7F00
E380
C000
E000
7C00
7C00
E000
C000
C180
E380
7F00
3E00
ENDCHAR
STARTCHAR zeta
ENCODING 950
SWIDTH 462 0
DWIDTH 11 0
BBX 9 21 1 -4
BITMAP
FF80
FF80
0300
0700
0600
0C00
1C00
1800
3000
3000
6000
6000
6000
6000
7000
3C00
1F00
0300
0300
0300
0600
ENDCHAR
STARTCHAR eta
ENCODING 951
SWIDTH 498 0
DWIDTH 12 0
BBX 8 18 2 -5
BITMAP
DE
FF
E7
C3
C3
C3
C3
C3
C3
C3
C3
C3
C3
03
03
03
03
03
ENDCHAR
STARTCHAR theta
ENCODING 952
SWIDTH 496 0
DWIDTH 12 0
BBX 10 17 1 0
BITMAP
1E00
3F00
7380
6180
6180
E180
E1C0
FFC0
FFC0
E1C0
E1C0
6180
6180
6180
7380
3F00
1E00
ENDCHAR
STARTCHAR iota
ENCODING 953
SWIDTH 299 0
DWIDTH 7 0
BBX 4 13 2 0
BITMAP
C0
C0
C0
C0
C0
C0
C0
C0
C0
C0
C0
F0
70
ENDCHAR
STARTCHAR kappa
ENCODING 954
SWIDTH 491 0
DWIDTH 12 0
BBX 9 13 2 0
BITMAP
C380
C700
CE00
CC00
D800
F800
F800
D800
CC00
CE00
C600
C300
C380
ENDCHAR
STARTCHAR lambda
ENCODING 955
SWIDTH 485 0
DWIDTH 12 0
BBX 10 18 1 0
BITMAP
7000
7000
3800
1800
1800
1C00
1C00
1C00
1E00
3600
3600
3700
7300
6300
6380
E180
C1C0
C0C0
ENDCHAR
STARTCHAR uni03BC
ENCODING 956
SWIDTH 498 0
DWIDTH 12 0
BBX 8 18 2 -5
BITMAP
C3
C3
C3
C3
C3
C3
C3
C3
C3
C3
E7
FF
FB
C0
C0
C0
C0
C0
ENDCHAR
STARTCHAR nu
ENCODING 957
SWIDTH 427 0
DWIDTH 10 0
BBX 10 13 0 0
BITMAP
E1C0
6180
6180
6180
3300
3300
3300
1200
1E00
1E00
1E00
0C00
0C00
ENDCHAR
STARTCHAR xi
ENCODING 958
SWIDTH 431 0
DWIDTH 10 0
BBX 8 22 1 -5
BITMAP
1F
3F
70
60
60
60
70
3E
3E
60
C0
C0
C0
C0
E0
70
3E
0F
03
03
03
06
ENDCHAR
STARTCHAR omicron
ENCODING 959
SWIDTH 501 0
DWIDTH 12 0
BBX 10 13 1 0
BITMAP
1E00
7F00
6380
E1C0
C0C0
C0C0
C0C0
C0C0
C0C0
E1C0
6180
7F00
1E00
ENDCHAR
STARTCHAR pi
ENCODING 960
SWIDTH 520 0
DWIDTH 12 0
BBX 12 13 0 0
BITMAP
FFE0
FFE0
30C0
30C0
30C0
30C0
30C0
30C0
30C0
30C0
30C0
30F0
3070
ENDCHAR
STARTCHAR rho
ENCODING 961
SWIDTH 498 0
DWIDTH 12 0
BBX 9 18 2 -5
BITMAP
3C00
7E00
E700
C300
C380
C180
C180
C180
C380
C300
E700
FF00
DE00
C000
C000
C000
C000
C000
ENDCHAR
STARTCHAR sigma1
ENCODING 962
SWIDTH 472 0
DWIDTH 11 0
BBX 9 17 1 -4
BITMAP
1E00
3F00
6300
E180
C180
C000
C000
C000
C000
E000
7000
3E00
1F00
0300
0300
0300
0600
ENDCHAR
STARTCHAR sigma
ENCODING 963
SWIDTH 498 0
DWIDTH 12 0
BBX 11 13 1 0
BITMAP
1FE0
3FE0
7300
6180
C080
C0C0
C0C0
C0C0
C1C0
6180
7380
3F00
1E00
ENDCHAR
STARTCHAR tau
ENCODING 964
SWIDTH 460 0
DWIDTH 11 0
BBX 9 13 1 0
BITMAP
FF80
FF80
1800
1800
1800
1800
1800
1800
1800
1800
1C00
0E00
0F00
ENDCHAR
STARTCHAR upsilon
ENCODING 965
SWIDTH 480 0
DWIDTH 12 0
BBX 9 13 2 0
BITMAP
C700
C300
C300
C300
C380
C380
C180
C380
C300
C300
E700
7E00
3C00
ENDCHAR
STARTCHAR phi
ENCODING 966
SWIDTH 617 0
DWIDTH 15 0
BBX 13 19 1 -6
BITMAP
23C0
73E0
6670
E630
C618
C618
C618
C618
E638
6630
7670
3FE0
0F80
0600
0600
0600
0600
0600
0600
ENDCHAR
STARTCHAR chi
ENCODING 967
SWIDTH 438 0
DWIDTH 11 0
BBX 10 18 1 -5
BITMAP
C180
E380
6300
3300
3600
1E00
1E00
1C00
0C00
1C00
1C00
3E00
3600
3600
6300
6300
E1C0
C1C0
ENDCHAR
STARTCHAR psi
ENCODING 968
SWIDTH 612 0
DWIDTH 15 0
BBX 13 19 1 -6
BITMAP
C630
C630
C638
C618
C618
C618
C618
C618
6638
6630
7670
3FE0
1FC0
0600
0600
0600
0600
0600
0600
ENDCHAR
STARTCHAR omega
ENCODING 969
SWIDTH 711 0
DWIDTH 17 0
BBX 15 13 1 0
BITMAP
7018
600C
600C
600C
E38C
C38E
C386
C38E
E38C
638C
628C
3EF8
3C70
ENDCHAR
STARTCHAR iotadieresis
ENCODING 970
SWIDTH 299 0
DWIDTH 7 0
BBX 7 17 0 0
BITMAP
C6
C6
00
00
30
30
30
30
30
30
30
30
30
30
30
3C
1C
ENDCHAR
STARTCHAR upsilondieresis
ENCODING 971
SWIDTH 480 0
DWIDTH 12 0
BBX 9 17 2 0
BITMAP
C600
C600
0000
0000
C700
C300
C300
C300
C380
C380
C180
C380
C300
C300
E700
7E00
3C00
ENDCHAR
STARTCHAR omicrontonos
ENCODING 972
SWIDTH 501 0
DWIDTH 12 0
BBX 10 19 1 0
BITMAP
0600
0C00
0C00
0C00
0000
0000
1E00
7F00
6380
E1C0
C0C0
C0C0
C0C0
C0C0
C0C0
E1C0
6180
7F00
1E00
ENDCHAR
STARTCHAR upsilontonos
ENCODING 973
SWIDTH 480 0
DWIDTH 12 0
BBX 9 19 2 0
BITMAP
1800
1800
1800
1000
0000
0000
C700
C300
C300
C300
C380
C380
C180
C380
C300
C300
E700
7E00
3C00
ENDCHAR
STARTCHAR omegatonos
ENCODING 974
SWIDTH 711 0
DWIDTH 17 0
BBX 15 19 1 0
BITMAP
0180
0180
0180
0100
0000
0000
7018
600C
600C
600C
E38C
C38E
C386
C38E
E38C
638C
628C
3EF8
3C70
ENDCHAR
STARTCHAR theta1
ENCODING 977
SWIDTH 507 0
DWIDTH 12 0
BBX 10 17 1 0
BITMAP
0F00
1F80
3980
3180
3180
3980
1980
1D80
CFC0
C3C0
C180
C180
C180
E180
6380
7F00
1E00
ENDCHAR
STARTCHAR Upsilon1
ENCODING 978
SWIDTH 465 0
DWIDTH 11 0
BBX 11 17 0 0
BITMAP
C060
E0E0
70C0
3180
3180
1B80
1B00
1B00
0E00
0E00
0E00
0E00
0E00
0E00
0E00
0E00
0E00
ENDCHAR
STARTCHAR omega1
ENCODING 982
SWIDTH 678 0
DWIDTH 16 0
BBX 14 13 1 0
BITMAP
FFFC
FFFC
6018
6018
E31C
C30C
C30C
C30C
E30C
6318
6798
7EF8
3C70
ENDCHAR
STARTCHAR uni0400
ENCODING 1024
SWIDTH 496 0
DWIDTH 12 0
BBX 9 21 2 0
BITMAP
7000
3800
1C00
0000
FF80
FF80
C000
C000
C000
C000
C000
FF00
FF00
C000
C000
C000
C000
C000
C000
FF80
FF80
ENDCHAR
STARTCHAR uni0401
ENCODING 1025
SWIDTH 496 0
DWIDTH 12 0
BBX 9 20 2 0
BITMAP
6300
6300
0000
FF80
FF80
C000
C000
C000
C000
C000
FF00
FF00
C000
C000
C000
C000
C000
C000
FF80
FF80
ENDCHAR
STARTCHAR uni0402
ENCODING 1026
SWIDTH 650 0
DWIDTH 16 0
BBX 14 17 1 0
BITMAP
FFE0
FFE0
0C00
0C00
0C00
0C00
0C00
0FE0
0FF8
0C18
0C1C
0C0C
0C0C
0C1C
0C18
0C78
0C60
ENDCHAR
STARTCHAR uni0403
ENCODING 1027
SWIDTH 487 0
DWIDTH 12 0
BBX 9 21 2 0
BITMAP
0700
0E00
1800
0000
FF80
FF80
C000
C000
C000
C000
C000
C000
C000
C000
C000
C000
C000
C000
C000
C000
C000
ENDCHAR
STARTCHAR uni0404
ENCODING 1028
SWIDTH 589 0
DWIDTH 14 0
BBX 12 17 1 0
BITMAP
0F80
3FC0
30E0
6060
6060
E060
E010
FF00
FF00
C000
E000
E070
6060
6060
30E0
3FC0
0F80
ENDCHAR
STARTCHAR uni0405
ENCODING 1029
SWIDTH 518 0
DWIDTH 12 0
BBX 10 17 1 0
BITMAP
1E00
7F80
6180
E0C0
C0C0
E000
6000
7C00
1F00
0780
01C0
00C0
C0C0
C0C0
61C0
7F80
1F00
ENDCHAR
STARTCHAR uni0406
ENCODING 1030
SWIDTH 250 0
DWIDTH 6 0
BBX 2 17 2 0
BITMAP
C0
C0
C0
C0
C0
C0
C0
C0
C0
C0
C0
C0
C0
C0
C0
C0
C0
ENDCHAR
STARTCHAR uni0407
ENCODING 1031
SWIDTH 250 0
DWIDTH 6 0
BBX 8 20 -1 0
BITMAP
E7
E7
00
18
18
18
18
18
18
18
18
18
18
18
18
18
18
18
18
18
ENDCHAR
STARTCHAR uni0408
ENCODING 1032
SWIDTH 483 0
DWIDTH 12 0
BBX 9 17 1 0
BITMAP
0180
0180
0180
0180
0180
0180
0180
0180
0180
0180
0180
0180
C180
C380
E300
7F00
3C00
ENDCHAR
STARTCHAR uni0409
ENCODING 1033
SWIDTH 923 0
DWIDTH 22 0
BBX 20 17 1 0
BITMAP
1FF000
1FF000
183000
183000
183000
183000
383000
383F80
383FE0
303070
303030
303030
303030
303030
703070
E03FE0
C03FC0
ENDCHAR
STARTCHAR uni040A
ENCODING 1034
SWIDTH 927 0
DWIDTH 22 0
BBX 19 17 2 0
BITMAP
C06000
C06000
C06000
C06000
C06000
C06000
C06000
FFFF80
FFFFC0
C060E0
C06060
C06060
C06060
C06060
C060E0
C07FC0
C07F80
ENDCHAR
STARTCHAR uni040B
ENCODING 1035
SWIDTH 705 0
DWIDTH 17 0
BBX 14 17 1 0
BITMAP
FFE0
FFE0
0C00
0C00
0C00
0C00
0FF0
0FF8
0C1C
0C0C
0C0C
0C0C
0C0C
0C0C
0C0C
0C0C
0C0C
ENDCHAR
STARTCHAR uni040C
ENCODING 1036
SWIDTH 544 0
DWIDTH 13 0
BBX 11 21 2 0
BITMAP
0700
0C00
1800
0000
C0E0
C180
C380
C700
C600
CC00
DC00
F800
FC00
EC00
EE00
C700
C300
C380
C180
C1C0
C0E0
ENDCHAR
STARTCHAR uni040D
ENCODING 1037
SWIDTH 619 0
DWIDTH 15 0
BBX 11 21 2 0
BITMAP
3800
1C00
0E00
0000
C0E0
C0E0
C1E0
C1E0
C360
C360
C660
C660
CC60
CC60
D860
D860
F060
F060
E060
E060
C060
ENDCHAR
STARTCHAR uni040E
ENCODING 1038
SWIDTH 547 0
DWIDTH 13 0
BBX 11 22 1 0
BITMAP
3180
3180
1F00
0000
0000
E060
60E0
60C0
70C0
31C0
3180
3980
1B80
1B00
0F00
0F00
0E00
0600
0C00
0C00
3C00
3800
ENDCHAR
STARTCHAR uni040F
ENCODING 1039
SWIDTH 621 0
DWIDTH 15 0
BBX 11 21 2 -4
BITMAP
C060
C060
C060
C060
C060
C060
C060
C060
C060
C060
C060
C060
C060
C060
C060
FFE0
FFE0
0E00
0E00
0E00
0E00
ENDCHAR
STARTCHAR uni0410
ENCODING 1040
SWIDTH 576 0
DWIDTH 14 0
BBX 12 17 1 0
BITMAP
0600
0600
0F00
0F00
0F00
1980
1980
1980
30C0
30C0
30C0
7FE0
7FE0
6060
E070
C030
C030
ENDCHAR
STARTCHAR uni0411
ENCODING 1041
SWIDTH 549 0
DWIDTH 13 0
BBX 10 17 2 0
BITMAP
FF80
FF80
C000
C000
C000
C000
C000
FF00
FF80
C1C0
C0C0
C0C0
C0C0
C0C0
C1C0
FF80
FF00
ENDCHAR
STARTCHAR uni0412
ENCODING 1042
SWIDTH 545 0
DWIDTH 13 0
BBX 10 17 2 0
BITMAP
FE00
FF80
C380
C180
C180
C180
C380
FF00
FF00
C180
C1C0
C1C0
C0C0
C1C0
C180
FF80
FE00
ENDCHAR
STARTCHAR uni0413
ENCODING 1043
SWIDTH 487 0
DWIDTH 12 0
BBX 9 17 2 0
BITMAP
FF80
FF80
C000
C000
C000
C000
C000
C000
C000
C000
C000
C000
C000
C000
C000
C000
C000
ENDCHAR
STARTCHAR uni0414
ENCODING 1044
SWIDTH 660 0
DWIDTH 16 0
BBX 14 21 1 -4
BITMAP
1FF0
1FF0
1830
1830
1830
1830
1830
1830
1830
1830
1830
3830
3030
3030
7030
FFFC
FFFC
C00C
C00C
C00C
C00C
ENDCHAR
STARTCHAR uni0415
ENCODING 1045
SWIDTH 496 0
DWIDTH 12 0
BBX 9 17 2 0
BITMAP
FF80
FF80
C000
C000
C000
C000
C000
FF00
FF00
C000
C000
C000
C000
C000
C000
FF80
FF80
ENDCHAR
STARTCHAR uni0416
ENCODING 1046
SWIDTH 791 0
DWIDTH 19 0
BBX 18 17 1 0
BITMAP
E0C380
60C300
70C700
30C600
38CE00
18CC00
0CDC00
0FF800
0FF800
1CDC00
18CC00
38CE00
30C600
70C700
60C300
E0C380
C0C1C0
ENDCHAR
STARTCHAR uni0417
ENCODING 1047
SWIDTH 517 0
DWIDTH 12 0
BBX 10 17 1 0
BITMAP
1F00
7F80
E1C0
C0C0
C0C0
00C0
0180
1F00
1F80
01C0
00C0
00C0
C0C0
C0C0
E1C0
7F80
3E00
ENDCHAR
STARTCHAR uni0418
ENCODING 1048
SWIDTH 619 0
DWIDTH 15 0
BBX 11 17 2 0
BITMAP
C0E0
C0E0
C1E0
C1E0
C360
C360
C660
C660
CC60
CC60
D860
D860
F060
F060
E060
E060
C060
ENDCHAR
STARTCHAR uni0419
ENCODING 1049
SWIDTH 619 0
DWIDTH 15 0
BBX 11 22 2 0
BITMAP
3180
3100
1E00
0000
0000
C0E0
C0E0
C1E0
C1E0
C360
C360
C660
C660
CC60
CC60
D860
D860
F060
F060
E060
E060
C060
ENDCHAR
STARTCHAR uni041A
ENCODING 1050
SWIDTH 560 0
DWIDTH 13 0
BBX 11 17 2 0
BITMAP
C0E0
C1C0
C380
C300
C700
CE00
CC00
FC00
FC00
CE00
C600
C700
C300
C380
C1C0
C0C0
C0E0
ENDCHAR
STARTCHAR uni041B
ENCODING 1051
SWIDTH 615 0
DWIDTH 15 0
BBX 12 17 1 0
BITMAP
1FF0
1FF0
1830
1830
1830
1830
1830
1830
1830
1830
3830
3830
3030
3030
7030
E030
C030
ENDCHAR
STARTCHAR uni041C
ENCODING 1052
SWIDTH 755 0
DWIDTH 18 0
BBX 14 17 2 0
BITMAP
E01C
E01C
E01C
F03C
F03C
F03C
D86C
D86C
D86C
CCCC
CCCC
CCCC
C78C
C78C
C78C
C30C
C30C
ENDCHAR
STARTCHAR uni041D
ENCODING 1053
SWIDTH 620 0
DWIDTH 15 0
BBX 11 17 2 0
BITMAP
C060
C060
C060
C060
C060
C060
C060
FFE0
FFE0
C060
C060
C060
C060
C060
C060
C060
C060
ENDCHAR
STARTCHAR uni041E
ENCODING 1054
SWIDTH 600 0
DWIDTH 14 0
BBX 12 17 1 0
BITMAP
0F80
3FC0
70E0
6060
6060
C070
C030
C030
C030
C030
C030
C070
6060
6060
70E0
3FC0
1F80
ENDCHAR
STARTCHAR uni041F
ENCODING 1055
SWIDTH 620 0
DWIDTH 15 0
BBX 11 17 2 0
BITMAP
FFE0
FFE0
C060
C060
C060
C060
C060
C060
C060
C060
C060
C060
C060
C060
C060
C060
C060
ENDCHAR
STARTCHAR uni0420
ENCODING 1056
SWIDTH 554 0
DWIDTH 13 0
BBX 10 17 2 0
BITMAP
FE00
FF80
C1C0
C0C0
C0C0
C0C0
C0C0
C0C0
C1C0
FF80
FF00
C000
C000
C000
C000
C000
C000
ENDCHAR
STARTCHAR uni0421
ENCODING 1057
SWIDTH 566 0
DWIDTH 14 0
BBX 11 17 2 0
BITMAP
1F00
3F80
71C0
E0C0
C0E0
C060
C000
C000
C000
C000
C000
C060
C0E0
E0C0
71C0
3F80
1F00
ENDCHAR
STARTCHAR uni0422
ENCODING 1058
SWIDTH 520 0
DWIDTH 13 0
BBX 11 17 1 0
BITMAP
FFE0
FFE0
0C00
0C00
0C00
0C00
0C00
0C00
0C00
0C00
0C00
0C00
0C00
0C00
0C00
0C00
0C00
ENDCHAR
STARTCHAR uni0423
ENCODING 1059
SWIDTH 547 0
DWIDTH 13 0
BBX 11 17 1 0
BITMAP
E060
60E0
60C0
70C0
31C0
3180
3980
1B80
1B00
0F00
0F00
0E00
0600
0C00
0C00
3C00
3800
ENDCHAR
STARTCHAR uni0424
ENCODING 1060
SWIDTH 676 0
DWIDTH 16 0
BBX 14 19 1 -1
BITMAP
0300
0300
0FE0
3FF0
7338
6318
E30C
C30C
C30C
C30C
C30C
C30C
C30C
6318
7338
3FF0
0FE0
0300
0300
ENDCHAR
STARTCHAR uni0425
ENCODING 1061
SWIDTH 550 0
DWIDTH 13 0
BBX 11 17 1 0
BITMAP
E060
60E0
70C0
31C0
3980
1B00
1F00
0E00
0E00
0E00
1F00
1B80
3980
31C0
70C0
60E0
E060
ENDCHAR
STARTCHAR uni0426
ENCODING 1062
SWIDTH 639 0
DWIDTH 15 0
BBX 12 21 2 -4
BITMAP
C060
C060
C060
C060
C060
C060
C060
C060
C060
C060
C060
C060
C060
C060
C060
FFF0
FFF0
0030
0030
0030
0030
ENDCHAR
STARTCHAR uni0427
ENCODING 1063
SWIDTH 600 0
DWIDTH 14 0
BBX 11 17 1 0
BITMAP
E060
E060
E060
E060
E060
E060
E060
6060
7060
7FE0
1FE0
0060
0060
0060
0060
0060
0060
ENDCHAR
STARTCHAR uni0428
ENCODING 1064
SWIDTH 814 0
DWIDTH 20 0
BBX 16 17 2 0
BITMAP
C187
C187
C187
C187
C187
C187
C187
C187
C187
C187
C187
C187
C187
C187
C187
FFFF
FFFF
ENDCHAR
STARTCHAR uni0429
ENCODING 1065
SWIDTH 841 0
DWIDTH 20 0
BBX 17 21 2 -4
BITMAP
C18700
C18700
C18700
C18700
C18700
C18700
C18700
C18700
C18700
C18700
C18700
C18700
C18700
C18700
C18700
FFFF80
FFFF80
000180
000180
000180
000180
ENDCHAR
STARTCHAR uni042A
ENCODING 1066
SWIDTH 651 0
DWIDTH 16 0
BBX 14 17 1 0
BITMAP
FC00
FC00
1C00
1C00
1C00
1C00
1C00
1FE0
1FF8
1C18
1C1C
1C0C
1C0C
1C1C
1C18
1FF8
1FE0
ENDCHAR
STARTCHAR uni042B
ENCODING 1067
SWIDTH 755 0
DWIDTH 18 0
BBX 14 17 2 0
BITMAP
C00C
C00C
C00C
C00C
C00C
C00C
C00C
FF0C
FF8C
C1CC
C0CC
C0CC
C0CC
C0CC
C1CC
FF8C
FF0C
ENDCHAR
STARTCHAR uni042C
ENCODING 1068
SWIDTH 551 0
DWIDTH 13 0
BBX 10 17 2 0
BITMAP
C000
C000
C000
C000
C000
C000
C000
FF00
FF80
C1C0
C0C0
C0C0
C0C0
C0C0
C1C0
FF80
FF00
ENDCHAR
STARTCHAR uni042D
ENCODING 1069
SWIDTH 589 0
DWIDTH 14 0
BBX 11 17 2 0
BITMAP
1E00
7F80
E180
C0C0
C0C0
C060
0060
1FE0
1FE0
0060
0060
00E0
C0C0
C0C0
E1C0
7F80
1E00
ENDCHAR
STARTCHAR uni042E
ENCODING 1070
SWIDTH 765 0
DWIDTH 18 0
BBX 15 17 2 0
BITMAP
C1F0
C7F8
C71C
CE0E
CC06
CC06
CC06
FC06
FC06
CC06
CC06
CC06
CC06
CE0E
C71C
C3FC
C1F0
ENDCHAR
STARTCHAR uni042F
ENCODING 1071
SWIDTH 562 0
DWIDTH 14 0
BBX 11 17 1 0
BITMAP
0FE0
3FE0
3060
6060
6060
6060
6060
7060
3060
3FE0
0FE0
1860
1860
3060
3060
6060
E060
ENDCHAR
STARTCHAR uni0430
ENCODING 1072
SWIDTH 479 0
DWIDTH 12 0
BBX 8 13 2 0
BITMAP
3C
7E
C3
C3
03
3F
7F
E3
C3
C3
C7
FF
7B
ENDCHAR
STARTCHAR uni0431
ENCODING 1073
SWIDTH 484 0
DWIDTH 12 0
BBX 10 18 1 0
BITMAP
0180
0380
0F00
3C00
3000
6000
4F00
7F80
F180
E1C0
E0C0
C0C0
C0C0
E0C0
61C0
7180
3F00
1E00
ENDCHAR
STARTCHAR uni0432
ENCODING 1074
SWIDTH 503 0
DWIDTH 12 0
BBX 9 13 2 0
BITMAP
FE00
FF00
C300
C300
C300
FE00
FF00
C300
C180
C180
C380
FF00
FE00
ENDCHAR
STARTCHAR uni0433
ENCODING 1075
SWIDTH 371 0
DWIDTH 9 0
BBX 7 13 2 0
BITMAP
FE
FE
C0
C0
C0
C0
C0
C0
C0
C0
C0
C0
C0
ENDCHAR
STARTCHAR uni0434
ENCODING 1076
SWIDTH 536 0
DWIDTH 13 0
BBX 11 17 1 -4
BITMAP
1FC0
3FC0
38C0
38C0
30C0
30C0
30C0
30C0
30C0
70C0
60C0
FFE0
FFE0
C060
C060
C060
C060
ENDCHAR
STARTCHAR uni0435
ENCODING 1077
SWIDTH 468 0
DWIDTH 11 0
BBX 9 13 1 0
BITMAP
1E00
7F00
6380
C180
C180
FF80
FF80
C000
C000
C000
6180
7F80
3E00
ENDCHAR
STARTCHAR uni0436
ENCODING 1078
SWIDTH 662 0
DWIDTH 16 0
BBX 15 13 0 0
BITMAP
718E
318C
319C
1998
19B8
0FF0
0FF0
19B8
1998
399C
318C
718E
E186
ENDCHAR
STARTCHAR uni0437
ENCODING 1079
SWIDTH 446 0
DWIDTH 11 0
BBX 9 13 1 0
BITMAP
3E00
7F00
6300
C300
0300
1F00
1F00
0300
0180
C180
E300
7F00
3E00
ENDCHAR
STARTCHAR uni0438
ENCODING 1080
SWIDTH 509 0
DWIDTH 12 0
BBX 8 13 2 0
BITMAP
C3
C3
C7
C7
CF
CB
DB
D3
F3
F3
E3
E3
C3
ENDCHAR
STARTCHAR uni0439
ENCODING 1081
SWIDTH 509 0
DWIDTH 12 0
BBX 8 18 2 0
BITMAP
C3
66
3C
00
00
C3
C3
C7
C7
CF
CB
DB
D3
F3
F3
E3
E3
C3
ENDCHAR
STARTCHAR uni043A
ENCODING 1082
SWIDTH 479 0
DWIDTH 12 0
BBX 9 13 2 0
BITMAP
C380
C700
C600
CC00
D800
F800
F800
DC00
CC00
CE00
C700
C300
C380
ENDCHAR
STARTCHAR uni043B
ENCODING 1083
SWIDTH 509 0
DWIDTH 12 0
BBX 9 13 1 0
BITMAP
3F80
3F80
3180
3180
3180
3180
3180
3180
3180
6180
6180
E180
C180
ENDCHAR
STARTCHAR uni043C
ENCODING 1084
SWIDTH 645 0
DWIDTH 16 0
BBX 12 13 2 0
BITMAP
E070
E070
E0F0
F0F0
F0F0
F1B0
D9B0
D930
DB30
CF30
CE30
C630
C630
ENDCHAR
STARTCHAR uni043D
ENCODING 1085
SWIDTH 508 0
DWIDTH 12 0
BBX 8 13 2 0
BITMAP
C3
C3
C3
C3
C3
FF
FF
C3
C3
C3
C3
C3
C3
ENDCHAR
STARTCHAR uni043E
ENCODING 1086
SWIDTH 501 0
DWIDTH 12 0
BBX 10 13 1 0
BITMAP
1E00
7F00
6380
E1C0
C0C0
C0C0
C0C0
C0C0
C0C0
E1C0
6180
7F00
1E00
ENDCHAR
STARTCHAR uni043F
ENCODING 1087
SWIDTH 509 0
DWIDTH 12 0
BBX 8 13 2 0
BITMAP
FF
FF
C3
C3
C3
C3
C3
C3
C3
C3
C3
C3
C3
ENDCHAR
STARTCHAR uni0440
ENCODING 1088
SWIDTH 493 0
DWIDTH 12 0
BBX 9 18 2 -5
BITMAP
DE00
FF00
C300
C380
C180
C180
C180
C180
C180
C380
C300
FF00
DE00
C000
C000
C000
C000
C000
ENDCHAR
STARTCHAR uni0441
ENCODING 1089
SWIDTH 461 0
DWIDTH 11 0
BBX 9 13 1 0
BITMAP
1E00
7F00
6380
C180
C180
C000
C000
C000
C000
C180
6380
7F00
1E00
ENDCHAR
STARTCHAR uni0442
ENCODING 1090
SWIDTH 424 0
DWIDTH 10 0
BBX 9 13 1 0
BITMAP
FF80
FF80
1800
1800
1800
1800
1800
1800
1800
1800
1800
1800
1800
ENDCHAR
STARTCHAR uni0443
ENCODING 1091
SWIDTH 416 0
DWIDTH 10 0
BBX 10 18 0 -5
BITMAP
E1C0
6180
6180
7380
3300
3300
3300
1E00
1E00
1E00
0E00
0C00
0C00
0C00
0800
1800
7800
7000
ENDCHAR
STARTCHAR uni0444
ENCODING 1092
SWIDTH 628 0
DWIDTH 15 0
BBX 13 23 1 -5
BITMAP
0600
0600
0600
0600
0600
3FE0
7FF0
6630
E630
C618
C618
C618
C618
C618
E638
6630
7FF0
3FE0
0600
0600
0600
0600
0600
ENDCHAR
STARTCHAR uni0445
ENCODING 1093
SWIDTH 438 0
DWIDTH 11 0
BBX 9 13 1 0
BITMAP
C380
E300
6600
3600
3C00
1C00
1800
1C00
3C00
7600
6700
E300
C380
ENDCHAR
STARTCHAR uni0446
ENCODING 1094
SWIDTH 524 0
DWIDTH 13 0
BBX 10 17 2 -4
BITMAP
C300
C300
C300
C300
C300
C300
C300
C300
C300
C300
C300
FFC0
FFC0
00C0
00C0
00C0
00C0
ENDCHAR
STARTCHAR uni0447
ENCODING 1095
SWIDTH 479 0
DWIDTH 12 0
BBX 9 13 1 0
BITMAP
E180
E180
E180
E180
E180
6180
6180
7F80
3F80
0180
0180
0180
0180
ENDCHAR
STARTCHAR uni0448
ENCODING 1096
SWIDTH 703 0
DWIDTH 17 0
BBX 13 13 2 0
BITMAP
C618
C618
C618
C618
C618
C618
C618
C618
C618
C618
C618
FFF8
FFF8
ENDCHAR
STARTCHAR uni0449
ENCODING 1097
SWIDTH 722 0
DWIDTH 17 0
BBX 15 17 2 -4
BITMAP
C618
C618
C618
C618
C618
C618
C618
C618
C618
C618
C618
FFFE
FFFE
0006
0004
0004
0004
ENDCHAR
STARTCHAR uni044A
ENCODING 1098
SWIDTH 538 0
DWIDTH 13 0
BBX 11 13 1 0
BITMAP
F800
F800
1800
1800
1F80
1FC0
18E0
1860
1860
1860
1860
1FC0
1F80
ENDCHAR
STARTCHAR uni044B
ENCODING 1099
SWIDTH 679 0
DWIDTH 16 0
BBX 12 13 2 0
BITMAP
C030
C030
C030
C030
FC30
FE30
C730
C330
C330
C330
C730
FE30
FC30
ENDCHAR
STARTCHAR uni044C
ENCODING 1100
SWIDTH 478 0
DWIDTH 11 0
BBX 9 13 1 0
BITMAP
E000
E000
E000
E000
FE00
FF00
E380
E180
E180
E180
E380
FF00
FE00
ENDCHAR
STARTCHAR uni044D
ENCODING 1101
SWIDTH 472 0
DWIDTH 11 0
BBX 9 13 1 0
BITMAP
3C00
7E00
E300
C300
0180
1F80
1F80
0180
C180
C300
E700
7E00
3C00
ENDCHAR
STARTCHAR uni044E
ENCODING 1102
SWIDTH 706 0
DWIDTH 17 0
BBX 14 13 2 0
BITMAP
C1E0
C3F0
C738
CE18
CC0C
FC0C
FC0C
CC0C
CC0C
C618
C738
C3F0
C1E0
ENDCHAR
STARTCHAR uni044F
ENCODING 1103
SWIDTH 482 0
DWIDTH 12 0
BBX 9 13 1 0
BITMAP
3F80
7F80
6180
E180
C180
6180
7F80
3F80
3180
7180
6180
E180
C180
ENDCHAR
STARTCHAR uni0450
ENCODING 1104
SWIDTH 468 0
DWIDTH 11 0
BBX 9 18 1 0
BITMAP
7000
1800
0C00
0000
0000
1E00
7F00
6380
C180
C180
FF80
FF80
C000
C000
C000
6180
7F80
3E00
ENDCHAR
STARTCHAR uni0451
ENCODING 1105
SWIDTH 468 0
DWIDTH 11 0
BBX 9 17 1 0
BITMAP
6300
7380
0000
0000
1E00
7F00
6380
C180
C180
FF80
FF80
C000
C000
C000
6180
7F80
3E00
ENDCHAR
STARTCHAR uni0452
ENCODING 1106
SWIDTH 482 0
DWIDTH 12 0
BBX 10 23 0 -5
BITMAP
3000
3000
FE00
FE00
3000
3780
3FC0
38C0
30C0
30C0
30C0
30C0
30C0
30C0
30C0
30C0
30C0
30C0
00C0
00C0
00C0
03C0
0380
ENDCHAR
STARTCHAR uni0453
ENCODING 1107
SWIDTH 371 0
DWIDTH 9 0
BBX 7 18 2 0
BITMAP
1C
38
70
00
00
FE
FE
C0
C0
C0
C0
C0
C0
C0
C0
C0
C0
C0
ENDCHAR
STARTCHAR uni0454
ENCODING 1108
SWIDTH 472 0
DWIDTH 11 0
BBX 9 13 1 0
BITMAP
1E00
3F00
6380
E180
C180
FC00
FC00
C000
C000
E180
6380
7F00
1E00
ENDCHAR
STARTCHAR uni0455
ENCODING 1109
SWIDTH 455 0
DWIDTH 11 0
BBX 9 13 1 0
BITMAP
3E00
7F00
6300
6180
6000
7800
3E00
0700
0380
C180
E380
7F00
3E00
ENDCHAR
STARTCHAR uni0456
ENCODING 1110
SWIDTH 229 0
DWIDTH 6 0
BBX 2 17 2 0
BITMAP
C0
C0
00
00
C0
C0
C0
C0
C0
C0
C0
C0
C0
C0
C0
C0
C0
ENDCHAR
STARTCHAR uni0457
ENCODING 1111
SWIDTH 234 0
DWIDTH 6 0
BBX 8 17 -1 0
BITMAP
C6
E7
00
00
18
18
18
18
18
18
18
18
18
18
18
18
18
ENDCHAR
STARTCHAR uni0458
ENCODING 1112
SWIDTH 223 0
DWIDTH 5 0
BBX 4 22 0 -5
BITMAP
60
70
00
00
70
70
70
70
70
70
70
70
70
70
70
70
70
70
70
60
E0
C0
ENDCHAR
STARTCHAR uni0459
ENCODING 1113
SWIDTH 729 0
DWIDTH 18 0
BBX 16 13 1 0
BITMAP
3F80
3F80
3180
3180
3180
31FC
31FE
3187
3183
3183
6187
E1FE
C1FC
ENDCHAR
STARTCHAR uni045A
ENCODING 1114
SWIDTH 743 0
DWIDTH 18 0
BBX 15 13 2 0
BITMAP
C380
C380
C380
C380
C380
FFF8
FFFC
C38E
C386
C386
C38E
C3FC
C3F8
ENDCHAR
STARTCHAR uni045B
ENCODING 1115
SWIDTH 499 0
DWIDTH 12 0
BBX 10 18 0 0
BITMAP
3000
3000
FE00
FE00
3000
3700
3F80
39C0
30C0
30C0
30C0
30C0
30C0
30C0
30C0
30C0
30C0
30C0
ENDCHAR
STARTCHAR uni045C
ENCODING 1116
SWIDTH 479 0
DWIDTH 12 0
BBX 9 18 2 0
BITMAP
0E00
1C00
3800
0000
0000
C380
C700
C600
CC00
D800
F800
F800
DC00
CC00
CE00
C700
C300
C380
ENDCHAR
STARTCHAR uni045D
ENCODING 1117
SWIDTH 509 0
DWIDTH 12 0
BBX 8 18 2 0
BITMAP
F0
30
18
00
00
C3
C3
C7
C7
CF
CB
DB
D3
F3
F3
E3
E3
C3
ENDCHAR
STARTCHAR uni045E
ENCODING 1118
SWIDTH 416 0
DWIDTH 10 0
BBX 10 23 0 -5
BITMAP
2180
3300
1E00
0000
0000
E1C0
6180
6180
7380
3300
3300
3300
1E00
1E00
1E00
0E00
0C00
0C00
0C00
0800
1800
7800
7000
ENDCHAR
STARTCHAR uni045F
ENCODING 1119
SWIDTH 509 0
DWIDTH 12 0
BBX 8 17 2 -4
BITMAP
C3
C3
C3
C3
C3
C3
C3
C3
C3
C3
C3
FF
FF
18
18
18
18
ENDCHAR
STARTCHAR uni0460
ENCODING 1120
SWIDTH 754 0
DWIDTH 18 0
BBX 14 17 2 0
BITMAP
C30C
C30C
C30C
C30C
C30C
C30C
C30C
C30C
C30C
C30C
C30C
C30C
C30C
C30C
E79C
7FFC
3CF0
ENDCHAR
STARTCHAR uni0461
ENCODING 1121
SWIDTH 650 0
DWIDTH 16 0
BBX 13 13 2 0
BITMAP
C638
C638
C638
C638
C638
C638
C638
C638
C638
C630
CF30
FFF0
79E0
ENDCHAR
STARTCHAR uni0462
ENCODING 1122
SWIDTH 551 0
DWIDTH 13 0
BBX 12 17 0 0
BITMAP
3000
3000
FC00
FC00
3000
3000
3000
3FC0
3FE0
3070
3030
3030
3030
3030
3070
3FE0
3FC0
ENDCHAR
STARTCHAR uni0463
ENCODING 1123
SWIDTH 477 0
DWIDTH 11 0
BBX 10 18 0 0
BITMAP
7000
7000
7000
7000
FE00
FE00
7000
7000
7000
7000
7F00
7F80
71C0
70C0
70C0
71C0
7F80
7F00
ENDCHAR
STARTCHAR uni0464
ENCODING 1124
SWIDTH 772 0
DWIDTH 19 0
BBX 15 17 2 0
BITMAP
C0F0
C3FC
C70C
C606
CE06
CC06
CC00
FFF0
FFF0
CC00
CC00
CC00
CE06
C606
C70C
C3FC
C1F0
ENDCHAR
STARTCHAR uni0465
ENCODING 1125
SWIDTH 646 0
DWIDTH 16 0
BBX 13 13 2 0
BITMAP
C3C0
C7F0
CE30
CC18
CC18
FFC0
FFC0
CC00
CC00
CC18
C630
C7F0
C3C0
ENDCHAR
STARTCHAR uni0466
ENCODING 1126
SWIDTH 526 0
DWIDTH 13 0
BBX 12 17 1 0
BITMAP
0600
0E00
0E00
0F00
1B00
1B00
1B80
1980
3180
3180
3FC0
7FC0
66C0
66E0
E660
C660
C670
ENDCHAR
STARTCHAR uni0467
ENCODING 1127
SWIDTH 470 0
DWIDTH 11 0
BBX 11 13 0 0
BITMAP
0E00
0E00
0E00
1B00
1B00
1B00
3B80
3180
3F80
7FC0
66C0
66C0
E6E0
ENDCHAR
STARTCHAR uni0468
ENCODING 1128
SWIDTH 759 0
DWIDTH 18 0
BBX 16 17 2 0
BITMAP
C060
C060
C0F0
C0F0
C0F0
C1B0
C198
C198
C398
C30C
FFFC
FFFC
C66E
C666
C666
CE66
CC63
ENDCHAR
STARTCHAR uni0469
ENCODING 1129
SWIDTH 654 0
DWIDTH 16 0
BBX 13 13 2 0
BITMAP
C180
C180
C3C0
C3C0
C3C0
C660
C660
C660
FFF0
FFF0
CDB0
D9B8
D998
ENDCHAR
STARTCHAR uni046A
ENCODING 1130
SWIDTH 747 0
DWIDTH 18 0
BBX 14 17 2 0
BITMAP
7FF8
3FF0
3830
1860
1C60
0CC0
0CC0
07C0
3FF0
7FF8
E31C
C30C
C30C
C30C
C30C
C30C
C30C
ENDCHAR
STARTCHAR uni046B
ENCODING 1131
SWIDTH 645 0
DWIDTH 16 0
BBX 12 13 2 0
BITMAP
7FE0
3FC0
39C0
1980
1D80
0F00
3FC0
7FE0
E670
C630
C630
C630
C630
ENDCHAR
STARTCHAR uni046C
ENCODING 1132
SWIDTH 980 0
DWIDTH 24 0
BBX 20 17 2 0
BITMAP
C1FFE0
C0FFC0
C0C1C0
C06180
C06380
C07300
C03700
C03E00
FFFFC0
FFFFE0
C38C70
C30C30
C70C30
C70C30
C70C30
C70C30
C70C30
ENDCHAR
STARTCHAR uni046D
ENCODING 1133
SWIDTH 856 0
DWIDTH 21 0
BBX 17 13 2 0
BITMAP
C3FF00
C1FE00
C1CE00
C0CC00
C0EC00
C07800
FFFE00
FFFF00
C73380
C63180
C63180
C63180
C63180
ENDCHAR
STARTCHAR uni046E
ENCODING 1134
SWIDTH 454 0
DWIDTH 11 0
BBX 8 27 1 -5
BITMAP
63
14
1C
00
00
FC
FE
07
03
03
03
07
3E
3E
07
03
03
03
03
07
7E
FC
C0
C0
C0
60
20
ENDCHAR
STARTCHAR uni046F
ENCODING 1135
SWIDTH 423 0
DWIDTH 10 0
BBX 8 23 1 -5
BITMAP
66
3C
18
00
00
FC
FE
07
03
06
3E
3E
07
03
03
07
7E
FC
C0
C0
C0
60
20
ENDCHAR
STARTCHAR uni0470
ENCODING 1136
SWIDTH 600 0
DWIDTH 14 0
BBX 12 17 1 0
BITMAP
C630
C630
C630
C630
C630
C630
C630
C630
C670
E660
76E0
3FC0
1F80
0600
0600
0600
0600
ENDCHAR
STARTCHAR uni0471
ENCODING 1137
SWIDTH 612 0
DWIDTH 15 0
BBX 13 19 1 -6
BITMAP
C630
C630
C638
C618
C618
C618
C618
C618
6638
6630
7670
3FE0
1FC0
0600
0600
0600
0600
0600
0600
ENDCHAR
STARTCHAR uni0472
ENCODING 1138
SWIDTH 593 0
DWIDTH 14 0
BBX 12 17 1 0
BITMAP
0F00
3FC0
70C0
6060
6060
C060
C030
FFF0
FFF0
C030
C070
E070
6060
6060
70C0
3FC0
0F00
ENDCHAR
STARTCHAR uni0473
ENCODING 1139
SWIDTH 497 0
DWIDTH 12 0
BBX 10 13 1 0
BITMAP
1E00
3F00
7180
6180
C0C0
FFC0
FFC0
C0C0
E0C0
6180
7380
3F00
1E00
ENDCHAR
STARTCHAR uni0474
ENCODING 1140
SWIDTH 553 0
DWIDTH 13 0
BBX 12 17 0 0
BITMAP
E030
6030
6060
7060
3060
30C0
30C0
38C0
18C0
1980
1980
0D80
0D00
0F00
0700
0700
0600
ENDCHAR
STARTCHAR uni0475
ENCODING 1141
SWIDTH 443 0
DWIDTH 11 0
BBX 10 13 1 0
BITMAP
C1C0
C1C0
6300
6300
6300
6600
3600
3600
3600
1400
1C00
1C00
1800
ENDCHAR
STARTCHAR uni0476
ENCODING 1142
SWIDTH 553 0
DWIDTH 13 0
BBX 12 21 0 0
BITMAP
7600
1B00
0D80
0000
E030
6030
6060
7060
3060
30C0
30C0
38C0
18C0
1980
1980
0D80
0D00
0F00
0700
0700
0600
ENDCHAR
STARTCHAR uni0477
ENCODING 1143
SWIDTH 443 0
DWIDTH 11 0
BBX 11 18 0 0
BITMAP
EC00
3600
1B00
0000
0000
60E0
60E0
3180
3180
3180
3300
1B00
1B00
1B00
0A00
0E00
0E00
0C00
ENDCHAR
STARTCHAR uni0478
ENCODING 1144
SWIDTH 1017 0
DWIDTH 24 0
BBX 23 22 1 -5
BITMAP
0F8000
3FC000
70E000
606000
606306
C0730E
C0318C
C0318C
C0318C
C03198
C030D8
C070D8
6060D8
606070
70E070
3FC070
1F8020
000060
000060
0000E0
0003C0
000380
ENDCHAR
STARTCHAR uni0479
ENCODING 1145
SWIDTH 918 0
DWIDTH 22 0
BBX 21 18 1 -5
BITMAP
1E1C38
7F0C30
638C30
E1CE70
C0C660
C0C660
C0C660
C0C3C0
C0C3C0
E1C3C0
6181C0
7F0180
1E0180
000180
000100
000300
000F00
000E00
ENDCHAR
STARTCHAR uni047A
ENCODING 1146
SWIDTH 593 0
DWIDTH 14 0
BBX 12 20 1 -2
BITMAP
0600
0F00
3FC0
76C0
6060
6060
C070
C030
C030
C030
C030
C030
C070
6060
6060
76C0
3FC0
1F80
0600
0600
ENDCHAR
STARTCHAR uni047B
ENCODING 1147
SWIDTH 498 0
DWIDTH 12 0
BBX 10 15 1 -1
BITMAP
0C00
1E00
3F00
6D80
6180
C0C0
C0C0
C0C0
C0C0
C0C0
6180
6D80
3F00
1E00
0C00
ENDCHAR
STARTCHAR uni047C
ENCODING 1148
SWIDTH 752 0
DWIDTH 18 0
BBX 14 23 2 0
BITMAP
0700
0F80
09E0
0860
0100
0300
3230
7038
E01C
C00C
C00C
C00C
C00C
C30C
C30C
C30C
C30C
C30C
C30C
C30C
E79C
7FF8
3CF0
ENDCHAR
STARTCHAR uni047D
ENCODING 1149
SWIDTH 654 0
DWIDTH 16 0
BBX 13 18 2 0
BITMAP
0F00
1FE0
19E0
0300
0300
6260
E670
C030
C030
C038
C038
C638
C638
C638
C630
CF30
FFF0
79E0
ENDCHAR
STARTCHAR uni047E
ENCODING 1150
SWIDTH 754 0
DWIDTH 18 0
BBX 14 20 2 0
BITMAP
1FE0
0300
0000
C30C
C30C
C30C
C30C
C30C
C30C
C30C
C30C
C30C
C30C
C30C
C30C
C30C
C30C
E79C
7FFC
3CF0
ENDCHAR
STARTCHAR uni047F
ENCODING 1151
SWIDTH 650 0
DWIDTH 16 0
BBX 13 18 2 0
BITMAP
3FC0
0600
0600
0000
0000
C638
C638
C638
C638
C638
C638
C638
C638
C638
C630
CF30
FFF0
79E0
ENDCHAR
STARTCHAR uni0480
ENCODING 1152
SWIDTH 570 0
DWIDTH 14 0
BBX 11 21 1 -4
BITMAP
0F00
3FC0
30E0
7060
6060
6060
E000
E000
E000
E000
6000
6000
6000
7000
3000
3E00
0E00
0600
0600
0600
0600
ENDCHAR
STARTCHAR uni0481
ENCODING 1153
SWIDTH 472 0
DWIDTH 11 0
BBX 9 17 1 -4
BITMAP
1E00
7F00
6300
E180
C180
C000
C000
C000
C000
E000
6000
7C00
1C00
0C00
0C00
0C00
0C00
ENDCHAR
STARTCHAR uni0482
ENCODING 1154
SWIDTH 547 0
DWIDTH 13 0
BBX 11 16 1 0
BITMAP
00C0
0080
1980
1D80
0700
0380
07C0
0660
4C00
FC00
3800
1C00
1700
3300
2000
6000
ENDCHAR
STARTCHAR uni0483
ENCODING 1155
SWIDTH 0 0
DWIDTH 0 0
BBX 7 3 -9 14
BITMAP
06
FE
C0
ENDCHAR
STARTCHAR uni0484
ENCODING 1156
SWIDTH 0 0
DWIDTH 0 0
BBX 8 3 -9 15
BITMAP
1E
FF
E3
ENDCHAR
STARTCHAR uni0485
ENCODING 1157
SWIDTH 0 0
DWIDTH 0 0
BBX 2 4 -6 15
BITMAP
C0
C0
C0
40
ENDCHAR
STARTCHAR uni0486
ENCODING 1158
SWIDTH 0 0
DWIDTH 0 0
BBX 3 4 -6 15
BITMAP
60
60
40
80
ENDCHAR
STARTCHAR uni0488
ENCODING 1160
SWIDTH 0 0
DWIDTH 0 0
BBX 23 21 -18 -4
BITMAP
003800
006400
000000
1E0070
3200D8
000000
000000
000000
000000
70001C
C80032
000000
000000
000000
000000
1C0070
320098
000000
000000
003800
006400
ENDCHAR
STARTCHAR uni0489
ENCODING 1161
SWIDTH 0 0
DWIDTH 0 0
BBX 21 22 -17 -5
BITMAP
003000
002000
102000
186060
0801C0
0C0300
080000
000000
000000
C00060
F00078
100008
000000
000000
000000
000100
0C0180
1C0080
3030C0
002040
006000
004000
ENDCHAR
STARTCHAR uni048A
ENCODING 1162
SWIDTH 666 0
DWIDTH 16 0
BBX 13 27 2 -5
BITMAP
3180
1980
0F00
0000
0000
C0E0
C0E0
C1E0
C1E0
C360
C360
C660
C660
CC60
CC60
D860
D860
F060
F060
E060
E060
C078
0018
0018
0018
0030
0030
ENDCHAR
STARTCHAR uni048B
ENCODING 1163
SWIDTH 550 0
DWIDTH 13 0
BBX 11 23 2 -5
BITMAP
6300
6300
3E00
0000
0000
C300
C300
C700
C700
CF00
CB00
DB00
D300
F300
F300
E300
E300
C360
0060
00E0
00C0
00C0
0180
ENDCHAR
STARTCHAR uni048C
ENCODING 1164
SWIDTH 551 0
DWIDTH 13 0
BBX 12 17 0 0
BITMAP
3000
3000
FC00
FC00
3000
3000
3000
3FC0
3FE0
3070
3030
3030
3030
3030
3070
3FE0
3FC0
ENDCHAR
STARTCHAR uni048D
ENCODING 1165
SWIDTH 477 0
DWIDTH 11 0
BBX 10 19 0 0
BITMAP
7000
7000
FE00
FE00
7000
7000
7000
7000
7000
7000
7F00
7F80
71C0
70C0
70C0
70C0
71C0
7F80
7F00
ENDCHAR
STARTCHAR uni048E
ENCODING 1166
SWIDTH 557 0
DWIDTH 13 0
BBX 11 17 2 0
BITMAP
FE00
FF80
C180
C0C0
C0C0
C0C0
C2C0
C3C0
C1C0
FF80
FFC0
C060
C000
C000
C000
C000
C000
ENDCHAR
STARTCHAR uni048F
ENCODING 1167
SWIDTH 496 0
DWIDTH 12 0
BBX 9 18 2 -5
BITMAP
DC00
FF00
E700
C300
C380
C180
C180
C180
C780
CF00
C700
FF00
DD80
C100
C000
C000
C000
C000
ENDCHAR
STARTCHAR uni0490
ENCODING 1168
SWIDTH 479 0
DWIDTH 12 0
BBX 9 21 2 0
BITMAP
0180
0180
0180
0180
FF80
FF80
C000
C000
C000
C000
C000
C000
C000
C000
C000
C000
C000
C000
C000
C000
C000
ENDCHAR
STARTCHAR uni0491
ENCODING 1169
SWIDTH 395 0
DWIDTH 10 0
BBX 6 17 2 0
BITMAP
0C
0C
0C
0C
FC
FC
C0
C0
C0
C0
C0
C0
C0
C0
C0
C0
C0
ENDCHAR
STARTCHAR uni0492
ENCODING 1170
SWIDTH 487 0
DWIDTH 12 0
BBX 11 17 0 0
BITMAP
3FE0
3FE0
3000
3000
3000
3000
3000
FC00
FC00
3000
3000
3000
3000
3000
3000
3000
3000
ENDCHAR
STARTCHAR uni0493
ENCODING 1171
SWIDTH 371 0
DWIDTH 9 0
BBX 9 13 0 0
BITMAP
3F80
3F80
3000
3000
3000
FE00
FE00
3000
3000
3000
3000
3000
3000
ENDCHAR
STARTCHAR uni0494
ENCODING 1172
SWIDTH 539 0
DWIDTH 13 0
BBX 10 20 2 -3
BITMAP
FF80
FF80
C000
C000
C000
C000
C000
FC00
FF00
C380
C180
C1C0
C0C0
C0C0
C0C0
C0C0
C180
0180
0700
0600
ENDCHAR
STARTCHAR uni0495
ENCODING 1173
SWIDTH 443 0
DWIDTH 11 0
BBX 8 16 2 -3
BITMAP
FE
FE
C0
C0
C0
F8
FE
C6
C7
C3
C3
C3
C7
06
0E
08
ENDCHAR
STARTCHAR uni0496
ENCODING 1174
SWIDTH 833 0
DWIDTH 20 0
BBX 19 21 1 -4
BITMAP
E0C380
60C300
70C700
30C600
38CE00
18CC00
0CDC00
0FF800
0FF800
1CDC00
18CC00
38CE00
30C600
70C700
60C300
E0C3E0
C0C1E0
0000E0
0000E0
0000E0
0000E0
ENDCHAR
STARTCHAR uni0497
ENCODING 1175
SWIDTH 696 0
DWIDTH 17 0
BBX 16 17 0 -4
BITMAP
718E
318C
319C
1998
19B8
0FF0
0FF0
19B8
1998
399C
318C
718F
6187
8003
0003
0003
0003
ENDCHAR
STARTCHAR uni0498
ENCODING 1176
SWIDTH 517 0
DWIDTH 12 0
BBX 10 22 1 -5
BITMAP
1F00
7F80
E1C0
C0C0
C0C0
00C0
0180
1F00
1F80
01C0
00C0
00C0
C0C0
C0C0
E1C0
7F80
3E00
0C00
0C00
0C00
0C00
0C00
ENDCHAR
STARTCHAR uni0499
ENCODING 1177
SWIDTH 446 0
DWIDTH 11 0
BBX 9 18 1 -5
BITMAP
3E00
7F00
6300
C300
0300
1F00
1F00
0300
0180
C180
E300
7F00
3E00
1800
1800
1800
1800
1800
ENDCHAR
STARTCHAR uni049A
ENCODING 1178
SWIDTH 617 0
DWIDTH 15 0
BBX 12 21 2 -4
BITMAP
C0E0
C1C0
C380
C300
C700
CE00
CC00
FC00
FC00
CE00
C600
C700
C300
C380
C1C0
C0F0
C0F0
0030
0030
0030
0030
ENDCHAR
STARTCHAR uni049B
ENCODING 1179
SWIDTH 524 0
DWIDTH 13 0
BBX 10 17 2 -4
BITMAP
C380
C700
C600
CC00
D800
F800
F800
DC00
CC00
CE00
C700
C3C0
C3C0
00C0
00C0
00C0
00C0
ENDCHAR
STARTCHAR uni049C
ENCODING 1180
SWIDTH 553 0
DWIDTH 13 0
BBX 11 17 2 0
BITMAP
C0E0
C1C0
C180
C180
D300
D300
D600
FE00
FE00
D700
D300
D300
C180
C180
C1C0
C0C0
C0E0
ENDCHAR
STARTCHAR uni049D
ENCODING 1181
SWIDTH 498 0
DWIDTH 12 0
BBX 10 13 2 0
BITMAP
C180
C380
D300
D600
D600
FC00
FE00
D600
D700
C300
C380
C180
C1C0
ENDCHAR
STARTCHAR uni049E
ENCODING 1182
SWIDTH 570 0
DWIDTH 14 0
BBX 14 17 0 0
BITMAP
3038
3070
3060
FEE0
FFC0
3180
3380
3F00
3F00
3380
3180
31C0
30E0
3060
3070
3038
301C
ENDCHAR
STARTCHAR uni049F
ENCODING 1183
SWIDTH 462 0
DWIDTH 11 0
BBX 12 18 -1 0
BITMAP
1800
1800
FE00
FE00
1800
1860
18C0
18C0
1980
1B80
1F00
1F00
1B80
1980
18C0
18C0
1860
1870
ENDCHAR
STARTCHAR uni04A0
ENCODING 1184
SWIDTH 710 0
DWIDTH 17 0
BBX 16 17 1 0
BITMAP
FE0E
FE0C
0E1C
0E38
0E30
0E70
0EE0
0FC0
0FC0
0E60
0E70
0E30
0E38
0E1C
0E0C
0E0E
0E07
ENDCHAR
STARTCHAR uni04A1
ENCODING 1185
SWIDTH 607 0
DWIDTH 15 0
BBX 13 13 1 0
BITMAP
FC38
FC70
0C60
0CC0
0DC0
0F80
0F80
0CC0
0CE0
0C60
0C70
0C30
0C38
ENDCHAR
STARTCHAR uni04A2
ENCODING 1186
SWIDTH 662 0
DWIDTH 16 0
BBX 13 21 2 -4
BITMAP
C060
C060
C060
C060
C060
C060
C060
FFE0
FFE0
C060
C060
C060
C060
C060
C060
C078
C078
0018
0018
0018
0018
ENDCHAR
STARTCHAR uni04A3
ENCODING 1187
SWIDTH 541 0
DWIDTH 13 0
BBX 10 17 2 -4
BITMAP
C300
C300
C300
C300
C300
FF00
FF00
C300
C300
C300
C300
C3C0
C3C0
00C0
00C0
00C0
00C0
ENDCHAR
STARTCHAR uni04A4
ENCODING 1188
SWIDTH 829 0
DWIDTH 20 0
BBX 17 17 2 0
BITMAP
C07F80
C07F80
C06000
C06000
C06000
C06000
C06000
FFE000
FFE000
C06000
C06000
C06000
C06000
C06000
C06000
C06000
C06000
ENDCHAR
STARTCHAR uni04A5
ENCODING 1189
SWIDTH 614 0
DWIDTH 15 0
BBX 12 13 2 0
BITMAP
C3F0
C3F0
C300
C300
C300
FF00
FF00
C300
C300
C300
C300
C300
C300
ENDCHAR
STARTCHAR uni04A6
ENCODING 1190
SWIDTH 880 0
DWIDTH 21 0
BBX 18 20 2 -3
BITMAP
FFE000
FFE000
C06000
C06000
C06000
C06000
C06000
C07E00
C07F00
C06380
C06180
C061C0
C060C0
C060C0
C060C0
C060C0
C06180
000180
000700
000600
ENDCHAR
STARTCHAR uni04A7
ENCODING 1191
SWIDTH 755 0
DWIDTH 18 0
BBX 15 16 2 -3
BITMAP
FF00
FF00
C300
C300
C300
C3F0
C3FC
C30C
C306
C306
C306
C306
C306
000C
001C
0018
ENDCHAR
STARTCHAR uni04A8
ENCODING 1192
SWIDTH 641 0
DWIDTH 15 0
BBX 13 17 1 0
BITMAP
19E0
3BF0
7330
6618
E618
C618
C618
C618
C618
C618
C618
E718
6330
63F0
39E0
3FF8
0F38
ENDCHAR
STARTCHAR uni04A9
ENCODING 1193
SWIDTH 528 0
DWIDTH 13 0
BBX 11 13 1 0
BITMAP
3380
77C0
66C0
6CC0
EC60
EC60
EC60
ECE0
66C0
67C0
73C0
3FE0
1E60
ENDCHAR
STARTCHAR uni04AA
ENCODING 1194
SWIDTH 566 0
DWIDTH 14 0
BBX 11 22 2 -5
BITMAP
1F00
3F80
71C0
E0C0
C0E0
C060
C000
C000
C000
C000
C000
C060
C0E0
E0C0
71C0
3F80
1F00
0C00
0C00
0C00
0C00
0C00
ENDCHAR
STARTCHAR uni04AB
ENCODING 1195
SWIDTH 461 0
DWIDTH 11 0
BBX 9 18 1 -5
BITMAP
1E00
7F00
6380
C180
C180
C000
C000
C000
C000
C180
6380
7F00
1E00
1800
1800
1800
1800
1800
ENDCHAR
STARTCHAR uni04AC
ENCODING 1196
SWIDTH 520 0
DWIDTH 13 0
BBX 11 21 1 -4
BITMAP
FFE0
FFE0
0C00
0C00
0C00
0C00
0C00
0C00
0C00
0C00
0C00
0C00
0C00
0C00
0C00
0F00
0F00
0300
0300
0300
0300
ENDCHAR
STARTCHAR uni04AD
ENCODING 1197
SWIDTH 424 0
DWIDTH 10 0
BBX 9 17 1 -4
BITMAP
FF80
FF80
1800
1800
1800
1800
1800
1800
1800
1800
1800
1E00
1E00
0600
0600
0600
0600
ENDCHAR
STARTCHAR uni04AE
ENCODING 1198
SWIDTH 524 0
DWIDTH 13 0
BBX 12 17 0 0
BITMAP
E030
6070
7060
30E0
38C0
18C0
1980
0D80
0F00
0700
0600
0600
0600
0600
0600
0600
0600
ENDCHAR
STARTCHAR uni04AF
ENCODING 1199
SWIDTH 444 0
DWIDTH 11 0
BBX 9 18 1 -5
BITMAP
C180
C180
6380
6300
6300
3300
3600
3600
3600
1C00
1C00
1C00
0C00
0C00
0C00
0C00
0C00
0C00
ENDCHAR
STARTCHAR uni04B0
ENCODING 1200
SWIDTH 524 0
DWIDTH 13 0
BBX 11 17 1 0
BITMAP
C060
E0E0
60C0
60C0
3180
3180
1B00
1B00
1E00
3F80
3F80
0E00
0E00
0E00
0E00
0E00
0E00
ENDCHAR
STARTCHAR uni04B1
ENCODING 1201
SWIDTH 444 0
DWIDTH 11 0
BBX 9 18 1 -5
BITMAP
C180
C180
6380
6300
6300
3300
3600
3600
1600
1C00
1C00
7F00
7F00
0C00
0C00
0C00
0C00
0C00
ENDCHAR
STARTCHAR uni04B2
ENCODING 1202
SWIDTH 559 0
DWIDTH 13 0
BBX 12 21 1 -4
BITMAP
E060
60E0
70C0
31C0
3980
1B00
1F00
0E00
0E00
0E00
1F00
1B80
3980
31C0
70C0
60F0
E070
0030
0030
0030
0030
ENDCHAR
STARTCHAR uni04B3
ENCODING 1203
SWIDTH 465 0
DWIDTH 11 0
BBX 10 17 1 -4
BITMAP
C380
E300
6600
3600
3C00
1C00
1800
1C00
3C00
7600
6700
E3C0
C3C0
01C0
01C0
01C0
01C0
ENDCHAR
STARTCHAR uni04B4
ENCODING 1204
SWIDTH 781 0
DWIDTH 19 0
BBX 16 21 1 -4
BITMAP
FF8C
FF8C
1C0C
1C0C
1C0C
1C0C
1C0C
1C0C
1C0C
1C0C
1C0C
1C0C
1C0C
1C0C
1C0C
1FFF
1FFF
0003
0003
0003
0003
ENDCHAR
STARTCHAR uni04B5
ENCODING 1205
SWIDTH 587 0
DWIDTH 14 0
BBX 12 17 1 -4
BITMAP
FE60
FE60
3060
3060
3060
3060
3060
3060
3060
3060
3060
3FF0
3FF0
0030
0030
0030
0030
ENDCHAR
STARTCHAR uni04B6
ENCODING 1206
SWIDTH 638 0
DWIDTH 15 0
BBX 13 21 1 -4
BITMAP
E060
E060
E060
E060
E060
E060
E060
6060
7060
7FE0
1FE0
0060
0060
0060
0060
0078
0078
0018
0018
0018
0018
ENDCHAR
STARTCHAR uni04B7
ENCODING 1207
SWIDTH 512 0
DWIDTH 12 0
BBX 11 17 1 -4
BITMAP
E180
E180
E180
E180
E180
6180
6180
7F80
3F80
0180
0180
01E0
01E0
00E0
00E0
00E0
00E0
ENDCHAR
STARTCHAR uni04B8
ENCODING 1208
SWIDTH 595 0
DWIDTH 14 0
BBX 11 17 1 0
BITMAP
E060
E060
E060
E060
E060
E660
6660
6660
6660
3FE0
1FE0
0660
0660
0660
0060
0060
0060
ENDCHAR
STARTCHAR uni04B9
ENCODING 1209
SWIDTH 483 0
DWIDTH 12 0
BBX 8 13 2 0
BITMAP
C3
C3
C3
C3
DB
DB
DB
7F
3F
1B
1B
03
03
ENDCHAR
STARTCHAR uni04BA
ENCODING 1210
SWIDTH 595 0
DWIDTH 14 0
BBX 11 17 1 0
BITMAP
C000
C000
C000
C000
C000
C000
DF80
FFC0
E0E0
C060
C060
C060
C060
C060
C060
C060
C060
ENDCHAR
STARTCHAR uni04BB
ENCODING 1211
SWIDTH 482 0
DWIDTH 12 0
BBX 8 18 2 0
BITMAP
C0
C0
C0
C0
C0
DE
FF
E3
C3
C3
C3
C3
C3
C3
C3
C3
C3
C3
ENDCHAR
STARTCHAR uni04BC
ENCODING 1212
SWIDTH 674 0
DWIDTH 16 0
BBX 14 17 1 0
BITMAP
03E0
07F0
0E38
0C18
DC18
D80C
D80C
7FFC
3FFC
1800
1800
1800
1C00
0C00
0E08
07F8
01F0
ENDCHAR
STARTCHAR uni04BD
ENCODING 1213
SWIDTH 518 0
DWIDTH 12 0
BBX 11 13 0 0
BITMAP
0780
0FC0
98E0
B860
F060
FFE0
3FE0
3000
3000
3800
1C60
0FC0
0780
ENDCHAR
STARTCHAR uni04BE
ENCODING 1214
SWIDTH 674 0
DWIDTH 16 0
BBX 14 22 1 -5
BITMAP
03E0
07F0
0E38
0C18
DC18
D80C
D80C
7FFC
3FFC
1800
1800
1800
1C00
0C00
0E08
07F8
01F0
00C0
00C0
00C0
00C0
00C0
ENDCHAR
STARTCHAR uni04BF
ENCODING 1215
SWIDTH 518 0
DWIDTH 12 0
BBX 11 18 0 -5
BITMAP
0780
0FC0
98E0
B860
F060
FFE0
3FE0
3000
3000
3800
1C60
0FC0
0780
0300
0300
0300
0300
0300
ENDCHAR
STARTCHAR uni04C0
ENCODING 1216
SWIDTH 250 0
DWIDTH 6 0
BBX 2 17 2 0
BITMAP
C0
C0
C0
C0
C0
C0
C0
C0
C0
C0
C0
C0
C0
C0
C0
C0
C0
ENDCHAR
STARTCHAR uni04C1
ENCODING 1217
SWIDTH 791 0
DWIDTH 19 0
BBX 18 22 1 0
BITMAP
063000
063000
03E000
000000
000000
E0C380
60C300
70C700
30C600
38CE00
18CC00
0CDC00
0FF800
0FF800
1CDC00
18CC00
38CE00
30C600
70C700
60C300
E0C380
C0C1C0
ENDCHAR
STARTCHAR uni04C2
ENCODING 1218
SWIDTH 662 0
DWIDTH 16 0
BBX 15 18 0 0
BITMAP
0C60
0660
03C0
0000
0000
718E
318C
319C
1998
19B8
0FF0
0FF0
19B8
1998
399C
318C
718E
E186
ENDCHAR
STARTCHAR uni04C3
ENCODING 1219
SWIDTH 553 0
DWIDTH 13 0
BBX 10 21 2 -4
BITMAP
C0C0
C180
C380
C700
C600
CC00
DC00
FE00
FF00
C380
C1C0
C0C0
C0C0
C0C0
C0C0
C0C0
C0C0
00C0
0180
0780
0700
ENDCHAR
STARTCHAR uni04C4
ENCODING 1220
SWIDTH 481 0
DWIDTH 12 0
BBX 9 16 2 -3
BITMAP
C380
C700
C600
CC00
D800
FC00
FE00
C700
C380
C180
C180
C180
C380
0300
0E00
0400
ENDCHAR
STARTCHAR uni04C5
ENCODING 1221
SWIDTH 662 0
DWIDTH 16 0
BBX 14 22 1 -5
BITMAP
1FF0
1FF0
1830
1830
1830
1830
1830
1830
1830
1830
3830
3830
3030
3030
7030
E030
C03C
000C
000C
000C
0018
0010
ENDCHAR
STARTCHAR uni04C6
ENCODING 1222
SWIDTH 551 0
DWIDTH 13 0
BBX 12 18 1 -5
BITMAP
3F80
3F80
3180
3180
3180
3180
3180
3180
3180
6180
6180
E180
C1B0
0030
0030
0060
0060
00C0
ENDCHAR
STARTCHAR uni04C7
ENCODING 1223
SWIDTH 620 0
DWIDTH 15 0
BBX 11 22 2 -5
BITMAP
C060
C060
C060
C060
C060
C060
C060
FFE0
FFE0
C060
C060
C060
C060
C060
C060
C060
C060
0060
0060
00E0
01C0
0180
ENDCHAR
STARTCHAR uni04C8
ENCODING 1224
SWIDTH 498 0
DWIDTH 12 0
BBX 8 18 2 -5
BITMAP
C3
C3
C3
C3
C3
FF
FF
C3
C3
C3
C3
C3
C3
03
03
03
0F
0E
ENDCHAR
STARTCHAR uni04C9
ENCODING 1225
SWIDTH 671 0
DWIDTH 16 0
BBX 13 22 2 -5
BITMAP
C060
C060
C060
C060
C060
C060
C060
FFE0
FFE0
C060
C060
C060
C060
C060
C060
C060
C078
0018
0018
0018
0030
0030
ENDCHAR
STARTCHAR uni04CA
ENCODING 1226
SWIDTH 550 0
DWIDTH 13 0
BBX 11 18 2 -5
BITMAP
C300
C300
C300
C300
C300
FF00
FF00
C300
C300
C300
C300
C300
C360
0060
00E0
00C0
00C0
0180
ENDCHAR
STARTCHAR uni04CB
ENCODING 1227
SWIDTH 600 0
DWIDTH 14 0
BBX 11 21 1 -4
BITMAP
E060
E060
E060
E060
E060
E060
E060
6060
7060
7FE0
1FE0
0060
0060
0060
0060
00E0
00E0
00C0
00C0
00C0
00C0
ENDCHAR
STARTCHAR uni04CC
ENCODING 1228
SWIDTH 479 0
DWIDTH 12 0
BBX 9 17 1 -4
BITMAP
E180
E180
E180
E180
E180
6180
6180
7F80
3F80
0180
0180
0780
0780
0600
0600
0600
0600
ENDCHAR
STARTCHAR uni04CD
ENCODING 1229
SWIDTH 801 0
DWIDTH 19 0
BBX 16 22 2 -5
BITMAP
E01C
E01C
E01C
F03C
F03C
F03C
D86C
D86C
D86C
CCCC
CCCC
CCCC
C78C
C78C
C78C
C30C
C30F
0003
0003
0003
0007
0002
ENDCHAR
STARTCHAR uni04CE
ENCODING 1230
SWIDTH 687 0
DWIDTH 17 0
BBX 14 18 2 -5
BITMAP
E070
E070
E0F0
F0F0
F0F0
F1B0
D9B0
D930
DB30
CF30
CE30
C630
C63C
000C
000C
000C
0018
0010
ENDCHAR
STARTCHAR uni04CF
ENCODING 1231
SWIDTH 250 0
DWIDTH 6 0
BBX 2 17 2 0
BITMAP
C0
C0
C0
C0
C0
C0
C0
C0
C0
C0
C0
C0
C0
C0
C0
C0
C0
ENDCHAR
STARTCHAR uni04D0
ENCODING 1232
SWIDTH 576 0
DWIDTH 14 0
BBX 12 22 1 0
BITMAP
3080
1980
0F00
0000
0000
0600
0600
0F00
0F00
0F00
1980
1980
1980
30C0
30C0
30C0
7FE0
7FE0
6060
E070
C030
C030
ENDCHAR
STARTCHAR uni04D1
ENCODING 1233
SWIDTH 479 0
DWIDTH 12 0
BBX 8 18 2 0
BITMAP
C2
66
3C
00
00
3C
7E
C3
C3
03
3F
7F
E3
C3
C3
C7
FF
7B
ENDCHAR
STARTCHAR uni04D2
ENCODING 1234
SWIDTH 576 0
DWIDTH 14 0
BBX 12 20 1 0
BITMAP
39C0
39C0
0000
0600
0600
0F00
0F00
0F00
1980
1980
1980
30C0
30C0
30C0
7FE0
7FE0
6060
E070
C030
C030
ENDCHAR
STARTCHAR uni04D3
ENCODING 1235
SWIDTH 479 0
DWIDTH 12 0
BBX 8 17 2 0
BITMAP
E7
E7
00
00
3C
7E
C3
C3
03
3F
7F
E3
C3
C3
C7
FF
7B
ENDCHAR
STARTCHAR uni04D4
ENCODING 1236
SWIDTH 812 0
DWIDTH 19 0
BBX 19 17 0 0
BITMAP
00FFC0
00FFC0
01F000
01B000
03B000
033000
073000
063FC0
0E3FC0
0C3000
1C3000
1FF000
3FF000
303000
703000
603FE0
E03FE0
ENDCHAR
STARTCHAR uni04D5
ENCODING 1237
SWIDTH 728 0
DWIDTH 17 0
BBX 15 13 1 0
BITMAP
3C78
7EFC
E3CE
C386
0306
3FFE
7FFE
E300
C300
C380
C7C2
FEFE
7C7C
ENDCHAR
STARTCHAR uni04D6
ENCODING 1238
SWIDTH 496 0
DWIDTH 12 0
BBX 9 22 2 0
BITMAP
4300
6600
3C00
0000
0000
FF80
FF80
C000
C000
C000
C000
C000
FF00
FF00
C000
C000
C000
C000
C000
C000
FF80
FF80
ENDCHAR
STARTCHAR uni04D7
ENCODING 1239
SWIDTH 468 0
DWIDTH 11 0
BBX 9 18 1 0
BITMAP
6300
2300
1E00
0000
0000
1E00
7F00
6380
C180
C180
FF80
FF80
C000
C000
C000
6180
7F80
3E00
ENDCHAR
STARTCHAR uni04D8
ENCODING 1240
SWIDTH 597 0
DWIDTH 14 0
BBX 12 17 1 0
BITMAP
1F00
7F80
21C0
00E0
0060
0070
0030
0030
FFF0
FFF0
C030
C070
C060
6060
71C0
3F80
1F00
ENDCHAR
STARTCHAR uni04D9
ENCODING 1241
SWIDTH 465 0
DWIDTH 11 0
BBX 9 13 1 0
BITMAP
3C00
7F00
C300
0380
0180
0180
FF80
FF80
C180
C180
6300
7F00
3C00
ENDCHAR
STARTCHAR uni04DA
ENCODING 1242
SWIDTH 597 0
DWIDTH 14 0
BBX 12 20 1 0
BITMAP
3180
3180
0000
1F00
7F80
21C0
00E0
0060
0070
0030
0030
FFF0
FFF0
C030
C070
C060
6060
71C0
3F80
1F00
ENDCHAR
STARTCHAR uni04DB
ENCODING 1243
SWIDTH 465 0
DWIDTH 11 0
BBX 9 17 1 0
BITMAP
6300
7380
0000
0000
3C00
7F00
C300
0380
0180
0180
FF80
FF80
C180
C180
6300
7F00
3C00
ENDCHAR
STARTCHAR uni04DC
ENCODING 1244
SWIDTH 791 0
DWIDTH 19 0
BBX 18 20 1 0
BITMAP
063000
063000
000000
E0C380
60C300
70C700
30C600
38CE00
18CC00
0CDC00
0FF800
0FF800
1CDC00
18CC00
38CE00
30C600
70C700
60C300
E0C380
C0C1C0
ENDCHAR
STARTCHAR uni04DD
ENCODING 1245
SWIDTH 662 0
DWIDTH 16 0
BBX 15 17 0 0
BITMAP
0E70
0E70
0000
0000
718E
318C
319C
1998
19B8
0FF0
0FF0
19B8
1998
399C
318C
718E
E186
ENDCHAR
STARTCHAR uni04DE
ENCODING 1246
SWIDTH 517 0
DWIDTH 12 0
BBX 10 20 1 0
BITMAP
3180
7380
0000
1F00
7F80
E1C0
C0C0
C0C0
00C0
0180
1F00
1F80
01C0
00C0
00C0
C0C0
C0C0
E1C0
7F80
3E00
ENDCHAR
STARTCHAR uni04DF
ENCODING 1247
SWIDTH 446 0
DWIDTH 11 0
BBX 9 17 1 0
BITMAP
6300
6300
0000
0000
3E00
7F00
6300
C300
0300
1F00
1F00
0300
0180
C180
E300
7F00
3E00
ENDCHAR
STARTCHAR uni04E0
ENCODING 1248
SWIDTH 510 0
DWIDTH 12 0
BBX 10 17 1 0
BITMAP
7F80
7F80
0380
0300
0600
0C00
1C00
1E00
1F80
0380
01C0
00C0
C0C0
E1C0
6380
7F80
3E00
ENDCHAR
STARTCHAR uni04E1
ENCODING 1249
SWIDTH 510 0
DWIDTH 12 0
BBX 10 18 1 -5
BITMAP
7F80
7F80
0300
0700
0600
0C00
1C00
1E00
1F00
0380
0180
00C0
00C0
C0C0
E180
6380
7F00
1E00
ENDCHAR
STARTCHAR uni04E2
ENCODING 1250
SWIDTH 619 0
DWIDTH 15 0
BBX 11 21 2 0
BITMAP
3F80
3F80
0000
0000
C0E0
C0E0
C1E0
C1E0
C360
C360
C660
C660
CC60
CC60
D860
D860
F060
F060
E060
E060
C060
ENDCHAR
STARTCHAR uni04E3
ENCODING 1251
SWIDTH 509 0
DWIDTH 12 0
BBX 8 17 2 0
BITMAP
7F
7F
00
00
C3
C3
C7
C7
CF
CB
DB
D3
F3
F3
E3
E3
C3
ENDCHAR
STARTCHAR uni04E4
ENCODING 1252
SWIDTH 619 0
DWIDTH 15 0
BBX 11 20 2 0
BITMAP
3180
3180
0000
C0E0
C0E0
C1E0
C1E0
C360
C360
C660
C660
CC60
CC60
D860
D860
F060
F060
E060
E060
C060
ENDCHAR
STARTCHAR uni04E5
ENCODING 1253
SWIDTH 509 0
DWIDTH 12 0
BBX 8 17 2 0
BITMAP
E3
E7
00
00
C3
C3
C7
C7
CF
CB
DB
D3
F3
F3
E3
E3
C3
ENDCHAR
STARTCHAR uni04E6
ENCODING 1254
SWIDTH 600 0
DWIDTH 14 0
BBX 12 20 1 0
BITMAP
18C0
39C0
0000
0F80
3FC0
70E0
6060
6060
C070
C030
C030
C030
C030
C030
C070
6060
6060
70E0
3FC0
1F80
ENDCHAR
STARTCHAR uni04E7
ENCODING 1255
SWIDTH 501 0
DWIDTH 12 0
BBX 10 17 1 0
BITMAP
7380
7380
0000
0000
1E00
7F00
6380
E1C0
C0C0
C0C0
C0C0
C0C0
C0C0
E1C0
6180
7F00
1E00
ENDCHAR
STARTCHAR uni04E8
ENCODING 1256
SWIDTH 593 0
DWIDTH 14 0
BBX 12 17 1 0
BITMAP
0F00
3FC0
70C0
6060
6060
C060
C030
FFF0
FFF0
C030
C070
E070
6060
6060
70C0
3FC0
0F00
ENDCHAR
STARTCHAR uni04E9
ENCODING 1257
SWIDTH 497 0
DWIDTH 12 0
BBX 10 13 1 0
BITMAP
1E00
3F00
7180
6180
C0C0
FFC0
FFC0
C0C0
E0C0
6180
7380
3F00
1E00
ENDCHAR
STARTCHAR uni04EA
ENCODING 1258
SWIDTH 593 0
DWIDTH 14 0
BBX 12 20 1 0
BITMAP
18C0
18C0
0000
0F00
3FC0
70C0
6060
6060
C060
C030
FFF0
FFF0
C030
C070
E070
6060
6060
70C0
3FC0
0F00
ENDCHAR
STARTCHAR uni04EB
ENCODING 1259
SWIDTH 497 0
DWIDTH 12 0
BBX 10 17 1 0
BITMAP
6300
7380
0000
0000
1E00
3F00
7180
6180
C0C0
FFC0
FFC0
C0C0
E0C0
6180
7380
3F00
1E00
ENDCHAR
STARTCHAR uni04EC
ENCODING 1260
SWIDTH 589 0
DWIDTH 14 0
BBX 11 20 2 0
BITMAP
7380
7380
0000
1E00
7F80
E180
C0C0
C0C0
C060
0060
1FE0
1FE0
0060
0060
00E0
C0C0
C0C0
E1C0
7F80
1E00
ENDCHAR
STARTCHAR uni04ED
ENCODING 1261
SWIDTH 472 0
DWIDTH 11 0
BBX 9 17 1 0
BITMAP
6300
6300
0000
0000
3C00
7E00
E300
C300
0180
1F80
1F80
0180
C180
C300
E700
7E00
3C00
ENDCHAR
STARTCHAR uni04EE
ENCODING 1262
SWIDTH 547 0
DWIDTH 13 0
BBX 11 21 1 0
BITMAP
3F80
3F80
0000
0000
E060
60E0
60C0
70C0
31C0
3180
3980
1B80
1B00
0F00
0F00
0E00
0600
0C00
0C00
3C00
3800
ENDCHAR
STARTCHAR uni04EF
ENCODING 1263
SWIDTH 416 0
DWIDTH 10 0
BBX 10 22 0 -5
BITMAP
3F80
3F80
0000
0000
E1C0
6180
6180
7380
3300
3300
3300
1E00
1E00
1E00
0E00
0C00
0C00
0C00
0800
1800
7800
7000
ENDCHAR
STARTCHAR uni04F0
ENCODING 1264
SWIDTH 547 0
DWIDTH 13 0
BBX 11 20 1 0
BITMAP
3180
3180
0000
E060
60E0
60C0
70C0
31C0
3180
3980
1B80
1B00
0F00
0F00
0E00
0600
0C00
0C00
3C00
3800
ENDCHAR
STARTCHAR uni04F1
ENCODING 1265
SWIDTH 416 0
DWIDTH 10 0
BBX 10 22 0 -5
BITMAP
3180
7380
0000
0000
E1C0
6180
6180
7380
3300
3300
3300
1E00
1E00
1E00
0E00
0C00
0C00
0C00
0800
1800
7800
7000
ENDCHAR
STARTCHAR uni04F2
ENCODING 1266
SWIDTH 547 0
DWIDTH 13 0
BBX 11 22 1 0
BITMAP
0EC0
0D80
1B80
1B00
0000
E060
60E0
60C0
70C0
31C0
3180
3980
1B80
1B00
0F00
0F00
0E00
0600
0C00
0C00
3C00
3800
ENDCHAR
STARTCHAR uni04F3
ENCODING 1267
SWIDTH 416 0
DWIDTH 10 0
BBX 10 24 0 -5
BITMAP
0DC0
0D80
1B00
1F00
0000
0000
E1C0
6180
6180
7380
3300
3300
3300
1E00
1E00
1E00
0E00
0C00
0C00
0C00
0800
1800
7800
7000
ENDCHAR
STARTCHAR uni04F4
ENCODING 1268
SWIDTH 600 0
DWIDTH 14 0
BBX 11 20 1 0
BITMAP
39C0
39C0
0000
E060
E060
E060
E060
E060
E060
E060
6060
7060
7FE0
1FE0
0060
0060
0060
0060
0060
0060
ENDCHAR
STARTCHAR uni04F5
ENCODING 1269
SWIDTH 479 0
DWIDTH 12 0
BBX 9 17 1 0
BITMAP
6300
6300
0000
0000
E180
E180
E180
E180
E180
6180
6180
7F80
3F80
0180
0180
0180
0180
ENDCHAR
STARTCHAR uni04F6
ENCODING 1270
SWIDTH 487 0
DWIDTH 12 0
BBX 9 21 2 -4
BITMAP
FF80
FF80
C000
C000
C000
C000
C000
C000
C000
C000
C000
C000
C000
C000
C000
F000
F000
3000
3000
3000
3000
ENDCHAR
STARTCHAR uni04F7
ENCODING 1271
SWIDTH 371 0
DWIDTH 9 0
BBX 7 17 2 -4
BITMAP
FE
FE
C0
C0
C0
C0
C0
C0
C0
C0
C0
F0
F0
30
30
30
30
ENDCHAR
STARTCHAR uni04F8
ENCODING 1272
SWIDTH 755 0
DWIDTH 18 0
BBX 14 20 2 0
BITMAP
1CE0
1CE0
0000
C00C
C00C
C00C
C00C
C00C
C00C
C00C
FF0C
FF8C
C1CC
C0CC
C0CC
C0CC
C0CC
C1CC
FF8C
FF0C
ENDCHAR
STARTCHAR uni04F9
ENCODING 1273
SWIDTH 679 0
DWIDTH 16 0
BBX 13 17 1 0
BITMAP
1CE0
1CE0
0000
0000
E018
E018
E018
E018
FE18
FF18
E398
E198
E198
E198
E398
FF18
FE18
ENDCHAR
STARTCHAR uni04FA
ENCODING 1274
SWIDTH 520 0
DWIDTH 13 0
BBX 11 22 1 -5
BITMAP
3FE0
3FE0
3000
3000
3000
3000
3000
FC00
FC00
3000
3000
3000
3000
3000
3000
3C00
3C00
0C00
0C00
1C00
3800
3000
ENDCHAR
STARTCHAR uni04FB
ENCODING 1275
SWIDTH 410 0
DWIDTH 10 0
BBX 8 18 1 -5
BITMAP
3F
3F
30
30
30
FC
FC
30
30
30
30
3C
3C
0C
0C
1C
78
70
ENDCHAR
STARTCHAR uni04FC
ENCODING 1276
SWIDTH 570 0
DWIDTH 14 0
BBX 12 22 1 -5
BITMAP
E060
60E0
70C0
31C0
3980
1B00
1F00
0E00
0E00
0E00
1F00
1B80
3980
31C0
70C0
60F0
E070
0030
0030
0030
00F0
00E0
ENDCHAR
STARTCHAR uni04FD
ENCODING 1277
SWIDTH 476 0
DWIDTH 11 0
BBX 10 18 1 -5
BITMAP
C380
E300
6600
3600
3C00
1C00
1800
1C00
3C00
7600
6700
E3C0
C3C0
00C0
00C0
01C0
0380
0300
ENDCHAR
STARTCHAR uni04FE
ENCODING 1278
SWIDTH 550 0
DWIDTH 13 0
BBX 11 17 1 0
BITMAP
E060
60E0
70C0
3180
3980
1B00
0F00
3F80
3F80
0F00
1F00
1B80
3980
31C0
70C0
60E0
E060
ENDCHAR
STARTCHAR uni04FF
ENCODING 1279
SWIDTH 438 0
DWIDTH 11 0
BBX 9 13 1 0
BITMAP
C380
6300
6600
3600
3C00
7E00
7E00
3C00
3E00
7600
6700
E300
C380
ENDCHAR
STARTCHAR uni0500
ENCODING 1280
SWIDTH 555 0
DWIDTH 13 0
BBX 10 17 1 0
BITMAP
00C0
00C0
00C0
00C0
00C0
00C0
00C0
1FC0
7FC0
E0C0
C0C0
C0C0
C0C0
C0C0
60C0
7FC0
3FC0
ENDCHAR
STARTCHAR uni0501
ENCODING 1281
SWIDTH 496 0
DWIDTH 12 0
BBX 9 18 1 0
BITMAP
0180
0180
0180
0180
0180
3D80
7F80
6380
E180
C180
C180
C180
C180
C180
E180
6380
7F80
3D80
ENDCHAR
STARTCHAR uni0502
ENCODING 1282
SWIDTH 723 0
DWIDTH 17 0
BBX 15 17 1 0
BITMAP
00C0
00C0
00C0
00C0
00C0
00C0
00C0
3FC0
7FC6
E0C6
C0C6
C0C6
C0C6
C0C6
E0CE
7FFC
1FF8
ENDCHAR
STARTCHAR uni0503
ENCODING 1283
SWIDTH 743 0
DWIDTH 18 0
BBX 16 18 1 0
BITMAP
0180
0180
0180
0180
0180
1D80
3F80
7386
6186
E187
C183
C183
C187
C186
6186
73CE
7EFC
1C78
ENDCHAR
STARTCHAR uni0504
ENCODING 1284
SWIDTH 685 0
DWIDTH 16 0
BBX 14 17 1 0
BITMAP
FC00
FE00
0700
0300
0300
0300
0318
0618
7C1C
7E0C
070C
031C
031C
0318
0338
03F0
01E0
ENDCHAR
STARTCHAR uni0505
ENCODING 1285
SWIDTH 562 0
DWIDTH 14 0
BBX 12 13 1 0
BITMAP
F800
FC00
0E00
0600
0660
0E30
7C30
7C30
0E30
0670
0660
07E0
03C0
ENDCHAR
STARTCHAR uni0506
ENCODING 1286
SWIDTH 470 0
DWIDTH 11 0
BBX 9 20 1 -3
BITMAP
F800
FC00
0E00
0600
0600
0600
0600
0E00
7C00
7C00
0E00
0600
0600
0600
0600
0780
0380
0180
0180
0300
ENDCHAR
STARTCHAR uni0507
ENCODING 1287
SWIDTH 443 0
DWIDTH 11 0
BBX 8 17 2 -4
BITMAP
F8
FC
0C
0E
0E
0C
F8
FC
0C
0E
06
07
07
03
03
03
06
ENDCHAR
STARTCHAR uni0508
ENCODING 1288
SWIDTH 834 0
DWIDTH 20 0
BBX 18 17 1 0
BITMAP
1FF000
1FF000
183000
183000
183000
183000
1831C0
1830C0
1830C0
1830C0
1830C0
3830C0
3030C0
3031C0
703180
E03F00
C01E00
ENDCHAR
STARTCHAR uni0509
ENCODING 1289
SWIDTH 698 0
DWIDTH 17 0
BBX 15 13 1 0
BITMAP
3F80
3F80
3186
3186
3186
3186
3186
3186
3186
3186
70CC
E0FC
C078
ENDCHAR
STARTCHAR uni050A
ENCODING 1290
SWIDTH 864 0
DWIDTH 21 0
BBX 17 17 2 0
BITMAP
C06000
C06000
C06000
C06000
C06000
C06000
C06180
FFE180
FFE180
C06180
C06180
C06180
C06180
C06180
C07300
C03F00
C03E00
ENDCHAR
STARTCHAR uni050B
ENCODING 1291
SWIDTH 716 0
DWIDTH 17 0
BBX 14 13 2 0
BITMAP
C300
C300
C30C
C30C
C30C
FF0C
FF0C
C30C
C30C
C30C
C198
C1F8
C0F0
ENDCHAR
STARTCHAR uni050C
ENCODING 1292
SWIDTH 541 0
DWIDTH 13 0
BBX 11 17 1 0
BITMAP
0F80
3FC0
3080
6000
6000
E000
E000
C0C0
C060
C060
E060
E060
6060
60E0
30C0
3FC0
0F00
ENDCHAR
STARTCHAR uni050D
ENCODING 1293
SWIDTH 452 0
DWIDTH 11 0
BBX 9 13 1 0
BITMAP
1E00
3F00
7200
6000
E000
C000
C180
C180
E180
6180
7380
3F00
1E00
ENDCHAR
STARTCHAR uni050E
ENCODING 1294
SWIDTH 616 0
DWIDTH 15 0
BBX 13 17 1 0
BITMAP
FFE0
FFE0
0C00
0C00
0C00
0C00
0C30
0C30
0C18
0C18
0C18
0C18
0C38
0C30
0E70
07E0
03C0
ENDCHAR
STARTCHAR uni050F
ENCODING 1295
SWIDTH 558 0
DWIDTH 13 0
BBX 11 13 1 0
BITMAP
FF80
FF80
1800
1800
18E0
1860
1860
1860
1860
1860
1CC0
0FC0
0780
ENDCHAR
STARTCHAR uni0510
ENCODING 1296
SWIDTH 589 0
DWIDTH 14 0
BBX 11 17 2 0
BITMAP
1F00
7F80
E1C0
C0E0
C0E0
C000
6000
3E00
7E00
E000
C000
C000
C060
C0E0
E1C0
7FC0
1F00
ENDCHAR
STARTCHAR uni0511
ENCODING 1297
SWIDTH 470 0
DWIDTH 11 0
BBX 9 13 1 0
BITMAP
3E00
7F00
E380
C000
E000
7C00
7C00
E000
C000
C180
E380
7F00
3E00
ENDCHAR
STARTCHAR uni0512
ENCODING 1298
SWIDTH 664 0
DWIDTH 16 0
BBX 14 22 1 -5
BITMAP
1FF0
1FF0
1830
1830
1830
1830
1830
1830
1830
1830
3830
3830
3030
3030
7030
E03C
C03C
000C
000C
000C
0038
0030
ENDCHAR
STARTCHAR uni0513
ENCODING 1299
SWIDTH 553 0
DWIDTH 13 0
BBX 12 18 1 -5
BITMAP
3F80
3F80
3180
3180
3180
3180
3180
3180
3180
6180
6180
E1B0
C1B0
0030
0030
0070
01E0
01C0
ENDCHAR
STARTCHAR uni1E00
ENCODING 7680
SWIDTH 576 0
DWIDTH 14 0
BBX 12 22 1 -5
BITMAP
0600
0600
0F00
0F00
0F00
1980
1980
1980
30C0
30C0
30C0
7FE0
7FE0
6060
E070
C030
C030
0000
0600
0900
0900
0600
ENDCHAR
STARTCHAR uni1E01
ENCODING 7681
SWIDTH 479 0
DWIDTH 12 0
BBX 8 18 2 -5
BITMAP
3C
7E
C3
C3
03
3F
7F
E3
C3
C3
C7
FF
7B
00
30
48
48
30
ENDCHAR
STARTCHAR uni1E3E
ENCODING 7742
SWIDTH 755 0
DWIDTH 18 0
BBX 14 21 2 0
BITMAP
00E0
0180
0300
0000
E01C
E01C
E01C
F03C
F03C
F03C
D86C
D86C
D86C
CCCC
CCCC
CCCC
C78C
C78C
C78C
C30C
C30C
ENDCHAR
STARTCHAR uni1E3F
ENCODING 7743
SWIDTH 752 0
DWIDTH 18 0
BBX 14 18 2 0
BITMAP
00E0
0180
0300
0000
0000
9C78
FEFC
C78C
C30C
C30C
C30C
C30C
C30C
C30C
C30C
C30C
C30C
C30C
ENDCHAR
STARTCHAR Wgrave
ENCODING 7808
SWIDTH 761 0
DWIDTH 18 0
BBX 17 21 1 0
BITMAP
070000
038000
01C000
000000
C18380
C1C300
C1C300
61C300
63C300
634700
636600
626600
366600
362600
363600
343C00
343C00
1C1C00
1C1C00
1C1C00
181800
ENDCHAR
STARTCHAR wgrave
ENCODING 7809
SWIDTH 649 0
DWIDTH 16 0
BBX 14 18 1 0
BITMAP
1C00
0600
0300
0000
0000
C30C
C30C
C70C
6798
6798
6798
6C98
2CD0
3CF0
3870
3870
1860
1860
ENDCHAR
STARTCHAR Wacute
ENCODING 7810
SWIDTH 761 0
DWIDTH 18 0
BBX 17 21 1 0
BITMAP
007000
00C000
018000
000000
C18380
C1C300
C1C300
61C300
63C300
634700
636600
626600
366600
362600
363600
343C00
343C00
1C1C00
1C1C00
1C1C00
181800
ENDCHAR
STARTCHAR wacute
ENCODING 7811
SWIDTH 649 0
DWIDTH 16 0
BBX 14 18 1 0
BITMAP
01C0
0380
0300
0000
0000
C30C
C30C
C70C
6798
6798
6798
6C98
2CD0
3CF0
3870
3870
1860
1860
ENDCHAR
STARTCHAR Wdieresis
ENCODING 7812
SWIDTH 761 0
DWIDTH 18 0
BBX 17 20 1 0
BITMAP
063000
063000
000000
C18380
C1C300
C1C300
61C300
63C300
634700
636600
626600
366600
362600
363600
343C00
343C00
1C1C00
1C1C00
1C1C00
181800
ENDCHAR
STARTCHAR wdieresis
ENCODING 7813
SWIDTH 649 0
DWIDTH 16 0
BBX 14 17 1 0
BITMAP
18C0
1CE0
0000
0000
C30C
C30C
C70C
6798
6798
6798
6C98
2CD0
3CF0
3870
3870
1860
1860
ENDCHAR
STARTCHAR uni1EA0
ENCODING 7840
SWIDTH 576 0
DWIDTH 14 0
BBX 12 21 1 -4
BITMAP
0600
0600
0F00
0F00
0F00
1980
1980
1980
30C0
30C0
30C0
7FE0
7FE0
6060
E070
C030
C030
0000
0000
0600
0600
ENDCHAR
STARTCHAR uni1EA1
ENCODING 7841
SWIDTH 479 0
DWIDTH 12 0
BBX 8 17 2 -4
BITMAP
3C
7E
C3
C3
03
3F
7F
E3
C3
C3
C7
FF
7B
00
00
30
30
ENDCHAR
STARTCHAR uni1EA2
ENCODING 7842
SWIDTH 576 0
DWIDTH 14 0
BBX 12 23 1 0
BITMAP
0600
0300
0300
0700
0600
0000
0600
0600
0F00
0F00
0F00
1980
1980
1980
30C0
30C0
30C0
7FE0
7FE0
6060
E070
C030
C030
ENDCHAR
STARTCHAR uni1EA3
ENCODING 7843
SWIDTH 479 0
DWIDTH 12 0
BBX 8 20 2 0
BITMAP
18
0C
0C
1C
18
00
00
3C
7E
C3
C3
03
3F
7F
E3
C3
C3
C7
FF
7B
ENDCHAR
STARTCHAR uni1EA4
ENCODING 7844
SWIDTH 576 0
DWIDTH 14 0
BBX 13 23 1 0
BITMAP
0038
0030
0660
1F80
39C0
0000
0600
0600
0F00
0F00
0F00
1980
1980
1980
30C0
30C0
30C0
7FE0
7FE0
6060
E070
C030
C030
ENDCHAR
STARTCHAR uni1EA5
ENCODING 7845
SWIDTH 479 0
DWIDTH 12 0
BBX 11 20 2 0
BITMAP
00E0
00C0
1980
7E00
E700
0000
0000
3C00
7E00
C300
C300
0300
3F00
7F00
E300
C300
C300
C700
FF00
7B00
ENDCHAR
STARTCHAR uni1EA6
ENCODING 7846
SWIDTH 576 0
DWIDTH 14 0
BBX 13 23 0 0
BITMAP
E000
6000
3300
0FC0
1CE0
0000
0300
0300
0780
0780
0780
0CC0
0CC0
0CC0
1860
1860
1860
3FF0
3FF0
3030
7038
6018
6018
ENDCHAR
STARTCHAR uni1EA7
ENCODING 7847
SWIDTH 479 0
DWIDTH 12 0
BBX 11 20 -1 0
BITMAP
E000
6000
3300
0FC0
1CE0
0000
0000
0780
0FC0
1860
1860
0060
07E0
0FE0
1C60
1860
1860
18E0
1FE0
0F60
ENDCHAR
STARTCHAR uni1EA8
ENCODING 7848
SWIDTH 576 0
DWIDTH 14 0
BBX 12 24 1 0
BITMAP
0060
0020
0060
0F40
1980
39C0
0000
0600
0600
0F00
0F00
0F00
1980
1980
1980
30C0
30C0
30C0
7FE0
7FE0
6060
E070
C030
C030
ENDCHAR
STARTCHAR uni1EA9
ENCODING 7849
SWIDTH 479 0
DWIDTH 12 0
BBX 9 21 2 0
BITMAP
0180
0080
0180
3D00
6600
E700
0000
0000
3C00
7E00
C300
C300
0300
3F00
7F00
E300
C300
C300
C700
FF00
7B00
ENDCHAR
STARTCHAR uni1EAA
ENCODING 7850
SWIDTH 576 0
DWIDTH 14 0
BBX 12 24 1 0
BITMAP
0C80
1300
0000
0600
1F80
39C0
0000
0600
0600
0F00
0F00
0F00
1980
1980
1980
30C0
30C0
30C0
7FE0
7FE0
6060
E070
C030
C030
ENDCHAR
STARTCHAR uni1EAB
ENCODING 7851
SWIDTH 479 0
DWIDTH 12 0
BBX 8 20 2 0
BITMAP
32
4C
00
18
7E
E7
00
3C
7E
C3
C3
03
3F
7F
E3
C3
C3
C7
FF
7B
ENDCHAR
STARTCHAR uni1EAC
ENCODING 7852
SWIDTH 576 0
DWIDTH 14 0
BBX 12 25 1 -4
BITMAP
0600
0F00
1980
0000
0600
0600
0F00
0F00
0F00
1980
1980
1980
30C0
30C0
30C0
7FE0
7FE0
6060
E070
C030
C030
0000
0000
0600
0600
ENDCHAR
STARTCHAR uni1EAD
ENCODING 7853
SWIDTH 479 0
DWIDTH 12 0
BBX 8 22 2 -4
BITMAP
18
3C
66
00
00
3C
7E
C3
C3
03
3F
7F
E3
C3
C3
C7
FF
7B
00
00
30
30
ENDCHAR
STARTCHAR uni1EAE
ENCODING 7854
SWIDTH 576 0
DWIDTH 14 0
BBX 12 23 1 0
BITMAP
0300
0600
1980
0F00
0000
0000
0600
0600
0F00
0F00
0F00
1980
1980
1980
30C0
30C0
30C0
7FE0
7FE0
6060
E070
C030
C030
ENDCHAR
STARTCHAR uni1EAF
ENCODING 7855
SWIDTH 479 0
DWIDTH 12 0
BBX 8 19 2 0
BITMAP
0C
18
66
3C
00
00
3C
7E
C3
C3
03
3F
7F
E3
C3
C3
C7
FF
7B
ENDCHAR
STARTCHAR uni1EB0
ENCODING 7856
SWIDTH 576 0
DWIDTH 14 0
BBX 12 23 1 0
BITMAP
0C00
0600
1980
0F00
0000
0000
0600
0600
0F00
0F00
0F00
1980
1980
1980
30C0
30C0
30C0
7FE0
7FE0
6060
E070
C030
C030
ENDCHAR
STARTCHAR uni1EB1
ENCODING 7857
SWIDTH 479 0
DWIDTH 12 0
BBX 8 19 2 0
BITMAP
30
18
66
3C
00
00
3C
7E
C3
C3
03
3F
7F
E3
C3
C3
C7
FF
7B
ENDCHAR
STARTCHAR uni1EB2
ENCODING 7858
SWIDTH 576 0
DWIDTH 14 0
BBX 12 25 1 0
BITMAP
0600
0300
0700
0600
1980
0F00
0000
0000
0600
0600
0F00
0F00
0F00
1980
1980
1980
30C0
30C0
30C0
7FE0
7FE0
6060
E070
C030
C030
ENDCHAR
STARTCHAR uni1EB3
ENCODING 7859
SWIDTH 479 0
DWIDTH 12 0
BBX 8 21 2 0
BITMAP
18
0C
1C
18
66
3C
00
00
3C
7E
C3
C3
03
3F
7F
E3
C3
C3
C7
FF
7B
ENDCHAR
STARTCHAR uni1EB4
ENCODING 7860
SWIDTH 576 0
DWIDTH 14 0
BBX 12 24 1 0
BITMAP
0C80
1300
0000
1980
0F00
0000
0000
0600
0600
0F00
0F00
0F00
1980
1980
1980
30C0
30C0
30C0
7FE0
7FE0
6060
E070
C030
C030
ENDCHAR
STARTCHAR uni1EB5
ENCODING 7861
SWIDTH 479 0
DWIDTH 12 0
BBX 8 20 2 0
BITMAP
32
4C
00
66
3C
00
00
3C
7E
C3
C3
03
3F
7F
E3
C3
C3
C7
FF
7B
ENDCHAR
STARTCHAR uni1EB6
ENCODING 7862
SWIDTH 576 0
DWIDTH 14 0
BBX 12 26 1 -4
BITMAP
3080
1980
0F00
0000
0000
0600
0600
0F00
0F00
0F00
1980
1980
1980
30C0
30C0
30C0
7FE0
7FE0
6060
E070
C030
C030
0000
0000
0600
0600
ENDCHAR
STARTCHAR uni1EB7
ENCODING 7863
SWIDTH 479 0
DWIDTH 12 0
BBX 8 22 2 -4
BITMAP
C2
66
3C
00
00
3C
7E
C3
C3
03
3F
7F
E3
C3
C3
C7
FF
7B
00
00
30
30
ENDCHAR
STARTCHAR uni1EB8
ENCODING 7864
SWIDTH 496 0
DWIDTH 12 0
BBX 9 21 2 -4
BITMAP
FF80
FF80
C000
C000
C000
C000
C000
FF00
FF00
C000
C000
C000
C000
C000
C000
FF80
FF80
0000
0000
1800
1C00
ENDCHAR
STARTCHAR uni1EB9
ENCODING 7865
SWIDTH 468 0
DWIDTH 11 0
BBX 9 17 1 -4
BITMAP
1E00
7F00
6380
C180
C180
FF80
FF80
C000
C000
C000
6180
7F80
3E00
0000
0000
0C00
1C00
ENDCHAR
STARTCHAR uni1EBA
ENCODING 7866
SWIDTH 496 0
DWIDTH 12 0
BBX 9 23 2 0
BITMAP
0C00
1400
0600
0C00
0800
0000
FF80
FF80
C000
C000
C000
C000
C000
FF00
FF00
C000
C000
C000
C000
C000
C000
FF80
FF80
ENDCHAR
STARTCHAR uni1EBB
ENCODING 7867
SWIDTH 468 0
DWIDTH 11 0
BBX 9 20 1 0
BITMAP
0C00
0600
0600
0E00
0C00
0000
0000
1E00
7F00
6380
C180
C180
FF80
FF80
C000
C000
C000
6180
7F80
3E00
ENDCHAR
STARTCHAR uni1EBC
ENCODING 7868
SWIDTH 496 0
DWIDTH 12 0
BBX 9 21 2 0
BITMAP
3300
7F00
4E00
0000
FF80
FF80
C000
C000
C000
C000
C000
FF00
FF00
C000
C000
C000
C000
C000
C000
FF80
FF80
ENDCHAR
STARTCHAR uni1EBD
ENCODING 7869
SWIDTH 468 0
DWIDTH 11 0
BBX 9 18 1 0
BITMAP
3900
7F00
6600
0000
0000
1E00
7F00
6380
C180
C180
FF80
FF80
C000
C000
C000
6180
7F80
3E00
ENDCHAR
STARTCHAR uni1EBE
ENCODING 7870
SWIDTH 496 0
DWIDTH 12 0
BBX 11 23 2 0
BITMAP
00E0
00C0
1D80
3600
6300
0000
FF80
FF80
C000
C000
C000
C000
C000
FF00
FF00
C000
C000
C000
C000
C000
C000
FF80
FF80
ENDCHAR
STARTCHAR uni1EBF
ENCODING 7871
SWIDTH 468 0
DWIDTH 11 0
BBX 11 20 1 0
BITMAP
0060
00C0
1CC0
3E00
7380
0000
0000
1E00
7F00
6380
C180
C180
FF80
FF80
C000
C000
C000
6180
7F80
3E00
ENDCHAR
STARTCHAR uni1EC0
ENCODING 7872
SWIDTH 496 0
DWIDTH 12 0
BBX 11 23 0 0
BITMAP
C000
6000
6700
0D80
19C0
0000
3FE0
3FE0
3000
3000
3000
3000
3000
3FC0
3FC0
3000
3000
3000
3000
3000
3000
3FE0
3FE0
ENDCHAR
STARTCHAR uni1EC1
ENCODING 7873
SWIDTH 468 0
DWIDTH 11 0
BBX 11 20 -1 0
BITMAP
E000
6000
3700
0F80
1CE0
0000
0000
0780
1FC0
18E0
3060
3060
3FE0
3FE0
3000
3000
3000
1860
1FE0
0F80
ENDCHAR
STARTCHAR uni1EC2
ENCODING 7874
SWIDTH 496 0
DWIDTH 12 0
BBX 10 24 2 0
BITMAP
0180
00C0
0180
1D00
3600
6300
0000
FF80
FF80
C000
C000
C000
C000
C000
FF00
FF00
C000
C000
C000
C000
C000
C000
FF80
FF80
ENDCHAR
STARTCHAR uni1EC3
ENCODING 7875
SWIDTH 468 0
DWIDTH 11 0
BBX 10 21 1 0
BITMAP
0180
0040
00C0
1C80
3600
6380
0000
0000
1E00
7F00
6380
C180
C180
FF80
FF80
C000
C000
C000
6180
7F80
3E00
ENDCHAR
STARTCHAR uni1EC4
ENCODING 7876
SWIDTH 496 0
DWIDTH 12 0
BBX 9 24 2 0
BITMAP
3200
2C00
0000
1C00
3600
6300
0000
FF80
FF80
C000
C000
C000
C000
C000
FF00
FF00
C000
C000
C000
C000
C000
C000
FF80
FF80
ENDCHAR
STARTCHAR uni1EC5
ENCODING 7877
SWIDTH 468 0
DWIDTH 11 0
BBX 9 20 1 0
BITMAP
1A00
2600
0000
1C00
3600
6380
0000
1E00
7F00
6380
C180
C180
FF80
FF80
C000
C000
C000
6180
7F80
3E00
ENDCHAR
STARTCHAR uni1EC6
ENCODING 7878
SWIDTH 496 0
DWIDTH 12 0
BBX 9 25 2 -4
BITMAP
1800
3400
6600
0000
FF80
FF80
C000
C000
C000
C000
C000
FF00
FF00
C000
C000
C000
C000
C000
C000
FF80
FF80
0000
0000
1800
1C00
ENDCHAR
STARTCHAR uni1EC7
ENCODING 7879
SWIDTH 468 0
DWIDTH 11 0
BBX 9 22 1 -4
BITMAP
0C00
1E00
3300
0000
0000
1E00
7F00
6380
C180
C180
FF80
FF80
C000
C000
C000
6180
7F80
3E00
0000
0000
0C00
1C00
ENDCHAR
STARTCHAR uni1EC8
ENCODING 7880
SWIDTH 250 0
DWIDTH 6 0
BBX 3 23 2 0
BITMAP
C0
60
20
E0
C0
00
C0
C0
C0
C0
C0
C0
C0
C0
C0
C0
C0
C0
C0
C0
C0
C0
C0
ENDCHAR
STARTCHAR uni1EC9
ENCODING 7881
SWIDTH 234 0
DWIDTH 6 0
BBX 3 20 2 0
BITMAP
C0
60
60
E0
C0
00
00
C0
C0
C0
C0
C0
C0
C0
C0
C0
C0
C0
C0
C0
ENDCHAR
STARTCHAR uni1ECA
ENCODING 7882
SWIDTH 250 0
DWIDTH 6 0
BBX 2 21 2 -4
BITMAP
C0
C0
C0
C0
C0
C0
C0
C0
C0
C0
C0
C0
C0
C0
C0
C0
C0
00
00
C0
C0
ENDCHAR
STARTCHAR uni1ECB
ENCODING 7883
SWIDTH 229 0
DWIDTH 6 0
BBX 3 21 1 -4
BITMAP
60
60
00
00
60
60
60
60
60
60
60
60
60
60
60
60
60
00
00
60
E0
ENDCHAR
STARTCHAR uni1ECC
ENCODING 7884
SWIDTH 600 0
DWIDTH 14 0
BBX 12 21 1 -4
BITMAP
0F80
3FC0
70E0
6060
6060
C070
C030
C030
C030
C030
C030
C070
6060
6060
70E0
3FC0
1F80
0000
0000
0600
0600
ENDCHAR
STARTCHAR uni1ECD
ENCODING 7885
SWIDTH 501 0
DWIDTH 12 0
BBX 10 17 1 -4
BITMAP
1E00
7F00
6380
E1C0
C0C0
C0C0
C0C0
C0C0
C0C0
E1C0
6180
7F00
1E00
0000
0000
0C00
0C00
ENDCHAR
STARTCHAR uni1ECE
ENCODING 7886
SWIDTH 600 0
DWIDTH 14 0
BBX 12 23 1 0
BITMAP
0600
0100
0100
0300
0200
0000
0F80
3FC0
70E0
6060
6060
C070
C030
C030
C030
C030
C030
C070
6060
6060
70E0
3FC0
1F80
ENDCHAR
STARTCHAR uni1ECF
ENCODING 7887
SWIDTH 501 0
DWIDTH 12 0
BBX 10 20 1 0
BITMAP
0C00
0600
0600
0E00
0C00
0000
0000
1E00
7F00
6380
E1C0
C0C0
C0C0
C0C0
C0C0
C0C0
E1C0
6180
7F00
1E00
ENDCHAR
STARTCHAR uni1ED0
ENCODING 7888
SWIDTH 600 0
DWIDTH 14 0
BBX 13 23 1 0
BITMAP
0038
0030
0760
0D80
39C0
0000
0F80
3FC0
70E0
6060
6060
C070
C030
C030
C030
C030
C030
C070
6060
6060
70E0
3FC0
1F80
ENDCHAR
STARTCHAR uni1ED1
ENCODING 7889
SWIDTH 501 0
DWIDTH 12 0
BBX 12 20 1 0
BITMAP
0070
00C0
0CC0
3F00
7380
0000
0000
1E00
7F00
6380
E1C0
C0C0
C0C0
C0C0
C0C0
C0C0
E1C0
6180
7F00
1E00
ENDCHAR
STARTCHAR uni1ED2
ENCODING 7890
SWIDTH 600 0
DWIDTH 14 0
BBX 12 23 1 0
BITMAP
C000
6000
6700
0D80
39C0
0000
0F80
3FC0
70E0
6060
6060
C070
C030
C030
C030
C030
C030
C070
6060
6060
70E0
3FC0
1F80
ENDCHAR
STARTCHAR uni1ED3
ENCODING 7891
SWIDTH 501 0
DWIDTH 12 0
BBX 12 20 -1 0
BITMAP
E000
6000
3700
0F80
1CE0
0000
0000
0780
1FC0
18E0
3870
3030
3030
3030
3030
3030
3870
1860
1FC0
0780
ENDCHAR
STARTCHAR uni1ED4
ENCODING 7892
SWIDTH 600 0
DWIDTH 14 0
BBX 12 24 1 0
BITMAP
0060
0030
0060
0740
0D80
38C0
0000
0F80
3FC0
70E0
6060
6060
C070
C030
C030
C030
C030
C030
C070
6060
6060
70E0
3FC0
1F80
ENDCHAR
STARTCHAR uni1ED5
ENCODING 7893
SWIDTH 501 0
DWIDTH 12 0
BBX 10 21 1 0
BITMAP
00C0
0040
00C0
1C80
3700
6380
0000
0000
1E00
7F00
6380
E1C0
C0C0
C0C0
C0C0
C0C0
C0C0
E1C0
6180
7F00
1E00
ENDCHAR
STARTCHAR uni1ED6
ENCODING 7894
SWIDTH 600 0
DWIDTH 14 0
BBX 12 24 1 0
BITMAP
0C80
0B00
0000
0700
0D80
38C0
0000
0F80
3FC0
70E0
6060
6060
C070
C030
C030
C030
C030
C030
C070
6060
6060
70E0
3FC0
1F80
ENDCHAR
STARTCHAR uni1ED7
ENCODING 7895
SWIDTH 501 0
DWIDTH 12 0
BBX 10 20 1 0
BITMAP
1A00
2600
0000
0C00
3600
6380
0000
1E00
7F00
6380
E1C0
C0C0
C0C0
C0C0
C0C0
C0C0
E1C0
6180
7F00
1E00
ENDCHAR
STARTCHAR uni1ED8
ENCODING 7896
SWIDTH 600 0
DWIDTH 14 0
BBX 12 25 1 -4
BITMAP
0600
0F00
1980
0000
0F80
3FC0
70E0
6060
6060
C070
C030
C030
C030
C030
C030
C070
6060
6060
70E0
3FC0
1F80
0000
0000
0600
0600
ENDCHAR
STARTCHAR uni1ED9
ENCODING 7897
SWIDTH 501 0
DWIDTH 12 0
BBX 10 22 1 -4
BITMAP
0C00
1E00
3300
0000
0000
1E00
7F00
6380
E1C0
C0C0
C0C0
C0C0
C0C0
C0C0
E1C0
6180
7F00
1E00
0000
0000
0C00
0C00
ENDCHAR
STARTCHAR uni1EDA
ENCODING 7898
SWIDTH 592 0
DWIDTH 14 0
BBX 13 21 1 0
BITMAP
01C0
0300
0600
0018
0F18
3F98
70F0
6060
E060
C060
C070
C030
C030
C030
C070
C060
E060
6060
70C0
3FC0
0F00
ENDCHAR
STARTCHAR uni1EDB
ENCODING 7899
SWIDTH 502 0
DWIDTH 12 0
BBX 11 18 1 0
BITMAP
0380
0600
0C00
0000
0020
1E60
3F60
73C0
6180
C0C0
C0C0
C0C0
C0C0
C0C0
6180
7380
3F00
1E00
ENDCHAR
STARTCHAR uni1EDC
ENCODING 7900
SWIDTH 592 0
DWIDTH 14 0
BBX 13 21 1 0
BITMAP
3C00
0C00
0600
0018
0F18
3F98
70F0
6060
E060
C060
C070
C030
C030
C030
C070
C060
E060
6060
70C0
3FC0
0F00
ENDCHAR
STARTCHAR uni1EDD
ENCODING 7901
SWIDTH 502 0
DWIDTH 12 0
BBX 11 18 1 0
BITMAP
7000
1800
0C00
0000
0020
1E60
3F60
73C0
6180
C0C0
C0C0
C0C0
C0C0
C0C0
6180
7380
3F00
1E00
ENDCHAR
STARTCHAR uni1EDE
ENCODING 7902
SWIDTH 592 0
DWIDTH 14 0
BBX 13 23 1 0
BITMAP
0600
0100
0100
0700
0600
0018
0F18
3F98
70F0
6060
E060
C060
C070
C030
C030
C030
C070
C060
E060
6060
70C0
3FC0
0F00
ENDCHAR
STARTCHAR uni1EDF
ENCODING 7903
SWIDTH 502 0
DWIDTH 12 0
BBX 11 20 1 0
BITMAP
0C00
0600
0600
0E00
0C00
0000
0020
1E60
3F60
73C0
6180
C0C0
C0C0
C0C0
C0C0
C0C0
6180
7380
3F00
1E00
ENDCHAR
STARTCHAR uni1EE0
ENCODING 7904
SWIDTH 592 0
DWIDTH 14 0
BBX 13 21 1 0
BITMAP
1CC0
1F80
1380
0018
0F18
3F98
70F0
6060
E060
C060
C070
C030
C030
C030
C070
C060
E060
6060
70C0
3FC0
0F00
ENDCHAR
STARTCHAR uni1EE1
ENCODING 7905
SWIDTH 502 0
DWIDTH 12 0
BBX 11 18 1 0
BITMAP
3980
3F00
6700
0000
0020
1E60
3F60
73C0
6180
C0C0
C0C0
C0C0
C0C0
C0C0
6180
7380
3F00
1E00
ENDCHAR
STARTCHAR uni1EE2
ENCODING 7906
SWIDTH 592 0
DWIDTH 14 0
BBX 13 22 1 -4
BITMAP
0018
0F18
3F98
70F0
6060
E060
C060
C070
C030
C030
C030
C070
C060
E060
6060
70C0
3FC0
0F00
0000
0000
0600
0600
ENDCHAR
STARTCHAR uni1EE3
ENCODING 7907
SWIDTH 502 0
DWIDTH 12 0
BBX 11 18 1 -4
BITMAP
0020
1E60
3F60
73C0
6180
C0C0
C0C0
C0C0
C0C0
C0C0
6180
7380
3F00
1E00
0000
0000
0C00
0C00
ENDCHAR
STARTCHAR uni1EE4
ENCODING 7908
SWIDTH 561 0
DWIDTH 13 0
BBX 11 21 1 -4
BITMAP
C060
C060
C060
C060
C060
C060
C060
C060
C060
C060
C060
C060
C060
E0E0
71C0
7FC0
1F00
0000
0000
0600
0E00
ENDCHAR
STARTCHAR uni1EE5
ENCODING 7909
SWIDTH 483 0
DWIDTH 12 0
BBX 8 17 2 -4
BITMAP
C3
C3
C3
C3
C3
C3
C3
C3
C3
C3
C7
FF
7B
00
00
30
30
ENDCHAR
STARTCHAR uni1EE6
ENCODING 7910
SWIDTH 561 0
DWIDTH 13 0
BBX 11 23 1 0
BITMAP
0600
0300
0300
0700
0600
0000
C060
C060
C060
C060
C060
C060
C060
C060
C060
C060
C060
C060
C060
E0E0
71C0
7FC0
1F00
ENDCHAR
STARTCHAR uni1EE7
ENCODING 7911
SWIDTH 483 0
DWIDTH 12 0
BBX 8 20 2 0
BITMAP
18
0C
0C
1C
18
00
00
C3
C3
C3
C3
C3
C3
C3
C3
C3
C3
C7
FF
7B
ENDCHAR
STARTCHAR uni1EE8
ENCODING 7912
SWIDTH 608 0
DWIDTH 15 0
BBX 14 21 2 0
BITMAP
0380
0600
0C00
000C
C0CC
C0D8
C0F0
C0C0
C0C0
C0C0
C0C0
C0C0
C0C0
C0C0
C0C0
C0C0
C0C0
C0C0
E180
7F80
1E00
ENDCHAR
STARTCHAR uni1EE9
ENCODING 7913
SWIDTH 549 0
DWIDTH 13 0
BBX 12 18 1 0
BITMAP
0380
0600
0C00
0000
0030
C1B0
C1B0
C1E0
C180
C180
C180
C180
C180
C180
E180
6380
7F80
3D80
ENDCHAR
STARTCHAR uni1EEA
ENCODING 7914
SWIDTH 608 0
DWIDTH 15 0
BBX 14 21 2 0
BITMAP
7800
1800
0C00
000C
C0CC
C0D8
C0F0
C0C0
C0C0
C0C0
C0C0
C0C0
C0C0
C0C0
C0C0
C0C0
C0C0
C0C0
E180
7F80
1E00
ENDCHAR
STARTCHAR uni1EEB
ENCODING 7915
SWIDTH 549 0
DWIDTH 13 0
BBX 12 18 1 0
BITMAP
7000
1800
0C00
0000
0030
C1B0
C1B0
C1E0
C180
C180
C180
C180
C180
C180
E180
6380
7F80
3D80
ENDCHAR
STARTCHAR uni1EEC
ENCODING 7916
SWIDTH 608 0
DWIDTH 15 0
BBX 14 23 2 0
BITMAP
0C00
0600
0200
0E00
0C00
000C
C0CC
C0D8
C0F0
C0C0
C0C0
C0C0
C0C0
C0C0
C0C0
C0C0
C0C0
C0C0
C0C0
C0C0
E180
7F80
1E00
ENDCHAR
STARTCHAR uni1EED
ENCODING 7917
SWIDTH 549 0
DWIDTH 13 0
BBX 12 20 1 0
BITMAP
0C00
0600
0600
0E00
0C00
0000
0030
C1B0
C1B0
C1E0
C180
C180
C180
C180
C180
C180
E180
6380
7F80
3D80
ENDCHAR
STARTCHAR uni1EEE
ENCODING 7918
SWIDTH 608 0
DWIDTH 15 0
BBX 14 21 2 0
BITMAP
3980
3F00
2700
000C
C0CC
C0D8
C0F0
C0C0
C0C0
C0C0
C0C0
C0C0
C0C0
C0C0
C0C0
C0C0
C0C0
C0C0
E180
7F80
1E00
ENDCHAR
STARTCHAR uni1EEF
ENCODING 7919
SWIDTH 549 0
DWIDTH 13 0
BBX 12 18 1 0
BITMAP
3900
3F00
6700
0000
0030
C1B0
C1B0
C1E0
C180
C180
C180
C180
C180
C180
E180
6380
7F80
3D80
ENDCHAR
STARTCHAR uni1EF0
ENCODING 7920
SWIDTH 608 0
DWIDTH 15 0
BBX 14 22 2 -4
BITMAP
000C
C0CC
C0D8
C0F0
C0C0
C0C0
C0C0
C0C0
C0C0
C0C0
C0C0
C0C0
C0C0
C0C0
C0C0
E180
7F80
1E00
0000
0000
0C00
0C00
ENDCHAR
STARTCHAR uni1EF1
ENCODING 7921
SWIDTH 549 0
DWIDTH 13 0
BBX 12 18 1 -4
BITMAP
0030
C1B0
C1B0
C1E0
C180
C180
C180
C180
C180
C180
E180
6380
7F80
3D80
0000
0000
0C00
1C00
ENDCHAR
STARTCHAR Ygrave
ENCODING 7922
SWIDTH 524 0
DWIDTH 13 0
BBX 12 21 0 0
BITMAP
1C00
0E00
0700
0000
E030
6070
7060
30E0
38C0
18C0
1980
0D80
0F00
0700
0600
0600
0600
0600
0600
0600
0600
ENDCHAR
STARTCHAR ygrave
ENCODING 7923
SWIDTH 416 0
DWIDTH 10 0
BBX 10 23 0 -5
BITMAP
3800
1C00
0C00
0000
0000
E1C0
6180
6180
7380
3300
3300
3300
1E00
1E00
1E00
0E00
0C00
0C00
0C00
0800
1800
7800
7000
ENDCHAR
STARTCHAR uni1EF4
ENCODING 7924
SWIDTH 524 0
DWIDTH 13 0
BBX 12 21 0 -4
BITMAP
E030
6070
7060
30E0
38C0
18C0
1980
0D80
0F00
0700
0600
0600
0600
0600
0600
0600
0600
0000
0000
0600
0700
ENDCHAR
STARTCHAR uni1EF5
ENCODING 7925
SWIDTH 416 0
DWIDTH 10 0
BBX 10 19 0 -6
BITMAP
E1C0
6180
6180
7380
3300
3300
3300
1E00
1E00
1E00
0E00
0C00
0C00
0C00
0800
1800
7800
7300
0300
ENDCHAR
STARTCHAR uni1EF6
ENCODING 7926
SWIDTH 524 0
DWIDTH 13 0
BBX 12 23 0 0
BITMAP
0300
0500
0180
0300
0200
0000
E030
6070
7060
30E0
38C0
18C0
1980
0D80
0F00
0700
0600
0600
0600
0600
0600
0600
0600
ENDCHAR
STARTCHAR uni1EF7
ENCODING 7927
SWIDTH 416 0
DWIDTH 10 0
BBX 10 25 0 -5
BITMAP
0E00
0200
0200
0600
0400
0000
0000
E1C0
6180
6180
7380
3300
3300
3300
1E00
1E00
1E00
0E00
0C00
0C00
0C00
0800
1800
7800
7000
ENDCHAR
STARTCHAR uni1EF8
ENCODING 7928
SWIDTH 524 0
DWIDTH 13 0
BBX 12 21 0 0
BITMAP
0CC0
1FC0
1380
0000
E030
6070
7060
30E0
38C0
18C0
1980
0D80
0F00
0700
0600
0600
0600
0600
0600
0600
0600
ENDCHAR
STARTCHAR uni1EF9
ENCODING 7929
SWIDTH 416 0
DWIDTH 10 0
BBX 10 23 0 -5
BITMAP
1980
3F00
2700
0000
0000
E1C0
6180
6180
7380
3300
3300
3300
1E00
1E00
1E00
0E00
0C00
0C00
0C00
0800
1800
7800
7000
ENDCHAR
STARTCHAR uni1F4D
ENCODING 8013
SWIDTH 634 0
DWIDTH 15 0
BBX 19 17 -5 0
BITMAP
CE3E00
CC7F80
68E1C0
38C0C0
01C0C0
0180C0
0180E0
0180E0
0180E0
0180E0
0180E0
0180C0
01C0C0
00C0C0
00E1C0
007F80
003E00
ENDCHAR
STARTCHAR uni2000
ENCODING 8192
SWIDTH 447 0
DWIDTH 11 0
BBX 1 1 0 0
BITMAP
00
ENDCHAR
STARTCHAR uni2001
ENCODING 8193
SWIDTH 876 0
DWIDTH 21 0
BBX 1 1 0 0
BITMAP
00
ENDCHAR
STARTCHAR uni2002
ENCODING 8194
SWIDTH 447 0
DWIDTH 11 0
BBX 1 1 0 0
BITMAP
00
ENDCHAR
STARTCHAR uni2003
ENCODING 8195
SWIDTH 876 0
DWIDTH 21 0
BBX 1 1 0 0
BITMAP
00
ENDCHAR
STARTCHAR uni2004
ENCODING 8196
SWIDTH 305 0
DWIDTH 7 0
BBX 1 1 0 0
BITMAP
00
ENDCHAR
STARTCHAR uni2005
ENCODING 8197
SWIDTH 233 0
DWIDTH 6 0
BBX 1 1 0 0
BITMAP
00
ENDCHAR
STARTCHAR uni2006
ENCODING 8198
SWIDTH 162 0
DWIDTH 4 0
BBX 1 1 0 0
BITMAP
00
ENDCHAR
STARTCHAR uni2007
ENCODING 8199
SWIDTH 491 0
DWIDTH 12 0
BBX 1 1 0 0
BITMAP
00
ENDCHAR
STARTCHAR uni2008
ENCODING 8200
SWIDTH 249 0
DWIDTH 6 0
BBX 1 1 0 0
BITMAP
00
ENDCHAR
STARTCHAR uni2009
ENCODING 8201
SWIDTH 190 0
DWIDTH 5 0
BBX 1 1 0 0
BITMAP
00
ENDCHAR
STARTCHAR uni200A
ENCODING 8202
SWIDTH 105 0
DWIDTH 3 0
BBX 1 1 0 0
BITMAP
00
ENDCHAR
STARTCHAR uni200B
ENCODING 8203
SWIDTH 0 0
DWIDTH 0 0
BBX 1 1 0 0
BITMAP
00
ENDCHAR
STARTCHAR uni2010
ENCODING 8208
SWIDTH 248 0
DWIDTH 6 0
BBX 4 2 1 6
BITMAP
F0
F0
ENDCHAR
STARTCHAR uni2011
ENCODING 8209
SWIDTH 248 0
DWIDTH 6 0
BBX 4 2 1 6
BITMAP
F0
F0
ENDCHAR
STARTCHAR endash
ENCODING 8211
SWIDTH 572 0
DWIDTH 14 0
BBX 10 2 2 7
BITMAP
FFC0
FFC0
ENDCHAR
STARTCHAR emdash
ENCODING 8212
SWIDTH 678 0
DWIDTH 16 0
BBX 13 2 2 7
BITMAP
FFF8
FFF8
ENDCHAR
STARTCHAR uni2015
ENCODING 8213
SWIDTH 678 0
DWIDTH 16 0
BBX 13 2 2 7
BITMAP
FFF8
FFF8
ENDCHAR
STARTCHAR underscoredbl
ENCODING 8215
SWIDTH 402 0
DWIDTH 10 0
BBX 9 5 1 -5
BITMAP
FF80
FF80
0000
FF80
FF80
ENDCHAR
STARTCHAR quoteleft
ENCODING 8216
SWIDTH 194 0
DWIDTH 5 0
BBX 3 6 1 12
BITMAP
20
60
60
C0
C0
C0
ENDCHAR
STARTCHAR quoteright
ENCODING 8217
SWIDTH 194 0
DWIDTH 5 0
BBX 3 6 1 12
BITMAP
60
60
60
60
C0
80
ENDCHAR
STARTCHAR quotesinglbase
ENCODING 8218
SWIDTH 194 0
DWIDTH 5 0
BBX 3 5 1 -3
BITMAP
60
60
60
C0
80
ENDCHAR
STARTCHAR quotereversed
ENCODING 8219
SWIDTH 194 0
DWIDTH 5 0
BBX 3 6 1 12
BITMAP
C0
C0
C0
C0
60
40
ENDCHAR
STARTCHAR quotedblleft
ENCODING 8220
SWIDTH 333 0
DWIDTH 8 0
BBX 6 6 1 12
BITMAP
24
64
6C
6C
CC
CC
ENDCHAR
STARTCHAR quotedblright
ENCODING 8221
SWIDTH 337 0
DWIDTH 8 0
BBX 6 6 1 12
BITMAP
6C
6C
6C
6C
CC
D8
ENDCHAR
STARTCHAR quotedblbase
ENCODING 8222
SWIDTH 326 0
DWIDTH 8 0
BBX 6 6 1 -4
BITMAP
6C
6C
6C
CC
D8
90
ENDCHAR
STARTCHAR dagger
ENCODING 8224
SWIDTH 482 0
DWIDTH 12 0
BBX 10 17 1 0
BITMAP
0C00
0C00
0C00
0C00
FFC0
FFC0
0C00
0C00
0C00
0C00
0C00
0C00
0C00
0C00
0C00
0C00
0C00
ENDCHAR
STARTCHAR daggerdbl
ENCODING 8225
SWIDTH 500 0
DWIDTH 12 0
BBX 10 22 1 -5
BITMAP
0C00
0C00
0C00
0C00
FFC0
FFC0
0C00
0C00
0C00
0C00
0C00
0C00
0C00
0C00
0C00
FFC0
FFC0
0C00
0C00
0C00
0C00
0C00
ENDCHAR
STARTCHAR bullet
ENCODING 8226
SWIDTH 336 0
DWIDTH 8 0
BBX 4 5 2 6
BITMAP
E0
F0
F0
F0
F0
ENDCHAR
STARTCHAR twodotenleader
ENCODING 8229
SWIDTH 420 0
DWIDTH 10 0
BBX 7 2 2 0
BITMAP
CE
CE
ENDCHAR
STARTCHAR ellipsis
ENCODING 8230
SWIDTH 590 0
DWIDTH 14 0
BBX 11 2 2 0
BITMAP
CEE0
CEE0
ENDCHAR
STARTCHAR uni2027
ENCODING 8231
SWIDTH 181 0
DWIDTH 4 0
BBX 2 2 1 7
BITMAP
C0
C0
ENDCHAR
STARTCHAR perthousand
ENCODING 8240
SWIDTH 818 0
DWIDTH 20 0
BBX 18 17 1 0
BITMAP
780000
C80000
CC4000
CC6000
CCC000
CC8000
C98000
790000
030000
027700
06DC80
0C8CC0
0D88C0
1988C0
1088C0
10DC80
007700
ENDCHAR
STARTCHAR minute
ENCODING 8242
SWIDTH 174 0
DWIDTH 4 0
BBX 2 6 1 12
BITMAP
C0
C0
C0
C0
C0
C0
ENDCHAR
STARTCHAR second
ENCODING 8243
SWIDTH 319 0
DWIDTH 8 0
BBX 4 6 2 12
BITMAP
90
90
90
90
90
90
ENDCHAR
STARTCHAR guilsinglleft
ENCODING 8249
SWIDTH 271 0
DWIDTH 7 0
BBX 5 9 1 2
BITMAP
18
30
20
60
C0
60
20
30
18
ENDCHAR
STARTCHAR guilsinglright
ENCODING 8250
SWIDTH 271 0
DWIDTH 7 0
BBX 5 9 1 2
BITMAP
C0
60
60
30
18
30
60
60
C0
ENDCHAR
STARTCHAR exclamdbl
ENCODING 8252
SWIDTH 491 0
DWIDTH 12 0
BBX 8 17 2 0
BITMAP
C3
C3
C3
C3
C3
C3
C3
C3
C3
C3
C3
C3
00
00
00
C3
C3
ENDCHAR
STARTCHAR fraction
ENCODING 8260
SWIDTH 403 0
DWIDTH 10 0
BBX 8 14 1 1
BITMAP
01
03
06
06
0C
08
18
10
30
20
60
40
C0
80
ENDCHAR
STARTCHAR uni2074
ENCODING 8308
SWIDTH 329 0
DWIDTH 8 0
BBX 6 9 1 8
BITMAP
18
18
38
78
58
D8
FC
FC
18
ENDCHAR
STARTCHAR uni207F
ENCODING 8319
SWIDTH 374 0
DWIDTH 9 0
BBX 7 9 1 8
BITMAP
DC
FC
E6
C6
C6
C6
C6
C6
C6
ENDCHAR
STARTCHAR franc
ENCODING 8355
SWIDTH 480 0
DWIDTH 12 0
BBX 11 17 0 0
BITMAP
3FE0
3FE0
3000
3000
3000
3000
3000
3FC0
3FC0
3000
3000
3000
3000
FE00
FE00
3000
3000
ENDCHAR
STARTCHAR lira
ENCODING 8356
SWIDTH 510 0
DWIDTH 12 0
BBX 10 17 1 0
BITMAP
0F00
1F80
31C0
30C0
70C0
7000
7000
FE00
FE00
7000
FE00
FE00
3000
3000
6000
FFC0
FFC0
ENDCHAR
STARTCHAR uni20A6
ENCODING 8358
SWIDTH 691 0
DWIDTH 17 0
BBX 15 17 1 0
BITMAP
3018
3818
3818
3C18
3C18
3618
FFFE
FFFE
3318
3198
FFFE
FFFE
30D8
3078
3078
3038
3038
ENDCHAR
STARTCHAR peseta
ENCODING 8359
SWIDTH 709 0
DWIDTH 17 0
BBX 13 17 2 0
BITMAP
FC00
FE70
C770
C370
C3F8
C3F8
C370
C370
C770
FE70
FC70
C070
C070
C070
C070
C038
C038
ENDCHAR
STARTCHAR uni20A8
ENCODING 8360
SWIDTH 911 0
DWIDTH 22 0
BBX 19 17 2 0
BITMAP
FE0000
FF8000
C18000
C1C000
C0CF80
C0DFC0
C1D8C0
C3B8E0
FF9800
FE1E00
C70F80
C301C0
C300E0
C1B060
C1B8E0
C0DFC0
C0CF80
ENDCHAR
STARTCHAR uni20A9
ENCODING 8361
SWIDTH 634 0
DWIDTH 15 0
BBX 15 17 0 0
BITMAP
638C
638C
638C
638C
628C
3298
FFFE
FFFE
36D8
36D8
FFFE
FFFE
1C70
1C70
1C70
1C70
0C60
ENDCHAR
STARTCHAR uni20AA
ENCODING 8362
SWIDTH 669 0
DWIDTH 16 0
BBX 13 13 2 0
BITMAP
FE38
FF38
C338
C3B8
D9B8
D9B8
D9B8
D9B8
D9B8
D830
D830
DFF0
DFE0
ENDCHAR
STARTCHAR dong
ENCODING 8363
SWIDTH 510 0
DWIDTH 12 0
BBX 11 22 1 -4
BITMAP
0180
0180
07E0
07E0
0180
3D80
7F80
6380
E180
C180
C180
C180
C180
C180
E180
6380
7F80
3D80
0000
0000
7FC0
7FC0
ENDCHAR
STARTCHAR Euro
ENCODING 8364
SWIDTH 493 0
DWIDTH 12 0
BBX 10 17 1 0
BITMAP
07C0
0FC0
1C00
3800
3000
3000
FF00
FF00
3000
FF00
FF00
3000
3000
3800
1C00
1FC0
07C0
ENDCHAR
STARTCHAR uni20B1
ENCODING 8369
SWIDTH 648 0
DWIDTH 16 0
BBX 14 17 1 0
BITMAP
7F80
7FE0
7060
FFFC
FFFC
7030
FFFC
FFFC
7060
7FE0
7F80
7000
7000
7000
7000
7000
7000
ENDCHAR
STARTCHAR uni20B9
ENCODING 8377
SWIDTH 462 0
DWIDTH 11 0
BBX 9 17 1 0
BITMAP
FF80
FF80
0E00
0600
FF80
FF80
0600
0E00
FE00
F800
E000
7000
3000
3800
1C00
0E00
0600
ENDCHAR
STARTCHAR uni20BA
ENCODING 8378
SWIDTH 500 0
DWIDTH 12 0
BBX 11 17 0 0
BITMAP
1800
1800
1900
1F00
1E00
7800
F900
9F00
1E60
7860
F860
9860
18E0
18C0
19C0
1F80
1E00
ENDCHAR
STARTCHAR uni20BC
ENCODING 8380
SWIDTH 575 0
DWIDTH 14 0
BBX 12 13 1 0
BITMAP
0600
0600
0F00
3FC0
36C0
6660
6660
6670
C630
C630
C630
C630
C630
ENDCHAR
STARTCHAR uni20BD
ENCODING 8381
SWIDTH 583 0
DWIDTH 14 0
BBX 12 17 1 0
BITMAP
3F80
3FE0
3060
3070
3030
3030
3030
3030
3060
FFE0
FF80
3000
FE00
FE00
3000
3000
3000
ENDCHAR
STARTCHAR uni2105
ENCODING 8453
SWIDTH 640 0
DWIDTH 15 0
BBX 13 17 1 0
BITMAP
3800
4C00
4C40
C060
C0C0
4C80
4D80
3900
0300
02F0
0698
0D98
0D88
1988
1198
1098
00F0
ENDCHAR
STARTCHAR uni2113
ENCODING 8467
SWIDTH 422 0
DWIDTH 10 0
BBX 8 18 1 0
BITMAP
0E
1F
3B
33
33
33
33
36
36
3C
3C
F0
F0
30
30
18
1C
0C
ENDCHAR
STARTCHAR uni2116
ENCODING 8470
SWIDTH 886 0
DWIDTH 21 0
BBX 18 17 2 0
BITMAP
C18700
E18F80
E198C0
E198C0
F198C0
F198C0
D998C0
D98F80
C98700
CD8000
CD8000
C79F80
C79F80
C38000
C38000
C18000
C18000
ENDCHAR
STARTCHAR trademark
ENCODING 8482
SWIDTH 547 0
DWIDTH 13 0
BBX 10 6 1 11
BITMAP
F440
24C0
26C0
2740
2540
2540
ENDCHAR
STARTCHAR Omega
ENCODING 8486
SWIDTH 581 0
DWIDTH 14 0
BBX 11 17 1 0
BITMAP
0F00
3F80
71C0
60E0
6060
E060
E060
E060
E060
E060
E060
6060
6060
60C0
30C0
FBE0
FBE0
ENDCHAR
STARTCHAR estimated
ENCODING 8494
SWIDTH 636 0
DWIDTH 15 0
BBX 12 13 2 0
BITMAP
0F00
30C0
6040
E060
E060
E070
FFF0
E000
E000
E000
6000
30C0
1F00
ENDCHAR
STARTCHAR oneeighth
ENCODING 8539
SWIDTH 666 0
DWIDTH 16 0
BBX 14 17 1 0
BITMAP
3000
F000
F040
30C0
3080
3180
3100
3300
3278
06F8
04CC
0C78
18F8
18CC
30CC
20F8
0078
ENDCHAR
STARTCHAR threeeighths
ENCODING 8540
SWIDTH 736 0
DWIDTH 18 0
BBX 15 17 1 0
BITMAP
7800
FC00
0C10
3830
3C20
0C60
CC40
FCC0
78BC
01BE
0326
023E
063E
0466
0C66
083E
003C
ENDCHAR
STARTCHAR fiveeighths
ENCODING 8541
SWIDTH 736 0
DWIDTH 18 0
BBX 15 17 1 0
BITMAP
7C00
7C00
4020
F830
FC60
4C40
0CC0
FC80
79BC
013E
0326
023E
063E
0466
0C66
083E
003C
ENDCHAR
STARTCHAR seveneighths
ENCODING 8542
SWIDTH 692 0
DWIDTH 17 0
BBX 14 17 1 0
BITMAP
FC00
FC00
0C40
0860
18C0
1080
3180
3100
6338
027C
0664
047C
0C7C
0844
1844
107C
0038
ENDCHAR
STARTCHAR partialdiff
ENCODING 8706
SWIDTH 497 0
DWIDTH 12 0
BBX 10 18 1 0
BITMAP
3C00
7F00
4300
0380
0180
0180
1EC0
3FC0
71C0
60C0
C0C0
C0C0
C0C0
E180
6180
7380
3F00
1E00
ENDCHAR
STARTCHAR Delta
ENCODING 8710
SWIDTH 614 0
DWIDTH 15 0
BBX 14 17 0 0
BITMAP
0380
0380
0380
06C0
06C0
06C0
0C60
0C60
0C60
1870
1830
3830
3038
3018
7018
7FFC
FFFC
ENDCHAR
STARTCHAR product
ENCODING 8719
SWIDTH 614 0
DWIDTH 15 0
BBX 11 20 2 -3
BITMAP
FFE0
FFE0
C060
C060
C060
C060
C060
C060
C060
C060
C060
C060
C060
C060
C060
C060
C060
C060
C060
C060
ENDCHAR
STARTCHAR summation
ENCODING 8721
SWIDTH 513 0
DWIDTH 12 0
BBX 11 20 1 -3
BITMAP
FFC0
FFC0
E000
6000
3000
1800
1C00
0C00
0600
0300
0300
0600
0C00
1C00
1800
3000
6000
E000
FFE0
FFE0
ENDCHAR
STARTCHAR minus
ENCODING 8722
SWIDTH 499 0
DWIDTH 12 0
BBX 8 2 2 7
BITMAP
FF
FF
ENDCHAR
STARTCHAR radical
ENCODING 8730
SWIDTH 536 0
DWIDTH 13 0
BBX 11 17 1 0
BITMAP
0060
0060
00E0
00C0
00C0
01C0
0180
0180
E180
F300
3300
3300
1E00
1E00
1E00
0C00
0C00
ENDCHAR
STARTCHAR infinity
ENCODING 8734
SWIDTH 874 0
DWIDTH 21 0
BBX 19 13 1 0
BITMAP
1E0F00
3F1F80
73B9C0
61B0C0
C0E0E0
C0E060
C0E060
C0E060
C0E0E0
61B0C0
73B9C0
3F1F80
1E0F00
ENDCHAR
STARTCHAR integral
ENCODING 8747
SWIDTH 235 0
DWIDTH 6 0
BBX 7 23 0 -5
BITMAP
0E
1E
38
30
30
30
30
30
30
30
30
30
30
30
30
30
30
30
30
30
30
F0
E0
ENDCHAR
STARTCHAR approxequal
ENCODING 8776
SWIDTH 492 0
DWIDTH 12 0
BBX 10 9 1 3
BITMAP
7040
FCC0
8FC0
8380
0000
7040
FCC0
8FC0
8380
ENDCHAR
STARTCHAR notequal
ENCODING 8800
SWIDTH 479 0
DWIDTH 12 0
BBX 8 13 2 2
BITMAP
02
06
04
FF
FF
08
10
10
FF
FF
60
40
C0
ENDCHAR
STARTCHAR lessequal
ENCODING 8804
SWIDTH 445 0
DWIDTH 11 0
BBX 8 13 1 0
BITMAP
01
07
1E
78
E0
E0
78
1E
07
01
00
FF
FF
ENDCHAR
STARTCHAR greaterequal
ENCODING 8805
SWIDTH 460 0
DWIDTH 11 0
BBX 8 13 2 0
BITMAP
80
E0
78
1E
07
07
3E
F8
C0
80
00
FF
FF
ENDCHAR
STARTCHAR lozenge
ENCODING 9674
SWIDTH 442 0
DWIDTH 11 0
BBX 9 17 1 0
BITMAP
1C00
1C00
1C00
3600
3600
6300
6300
C180
C180
C180
6300
6300
3600
3600
1C00
1C00
0C00
ENDCHAR
STARTCHAR uniEE01
ENCODING 60929
SWIDTH 271 0
DWIDTH 7 0
BBX 3 12 2 2
BITMAP
E0
E0
00
00
00
00
00
00
00
00
E0
E0
ENDCHAR
STARTCHAR uniEE02
ENCODING 60930
SWIDTH 298 0
DWIDTH 7 0
BBX 5 5 1 8
BITMAP
C8
C8
C8
C8
C8
ENDCHAR
STARTCHAR uniF6C3
ENCODING 63171
SWIDTH 235 0
DWIDTH 6 0
BBX 3 5 1 -2
BITMAP
60
60
60
C0
40
ENDCHAR
STARTCHAR uniFB01
ENCODING 64257
SWIDTH 489 0
DWIDTH 12 0
BBX 9 18 1 0
BITMAP
1F00
3F00
7100
7000
6000
F980
F980
6180
6180
6180
6180
6180
6180
6180
6180
6180
6180
6180
ENDCHAR
STARTCHAR uniFB02
ENCODING 64258
SWIDTH 503 0
DWIDTH 12 0
BBX 9 18 1 0
BITMAP
1F00
3F80
3180
7180
7180
FD80
FD80
7180
7180
7180
7180
7180
7180
7180
7180
7180
7180
7180
ENDCHAR
STARTCHAR uniFB03
ENCODING 64259
SWIDTH 744 0
DWIDTH 18 0
BBX 15 18 1 0
BITMAP
1C7C
3CFC
31C4
3180
3180
FFE6
FFE6
3186
3186
3186
3186
3186
3186
3186
3186
3186
3186
3186
ENDCHAR
STARTCHAR uniFB04
ENCODING 64260
SWIDTH 744 0
DWIDTH 18 0
BBX 15 18 1 0
BITMAP
1C7C
3CFE
31C6
3186
3186
FFF6
FFF6
3186
3186
3186
3186
3186
3186
3186
3186
3186
3186
3186
ENDCHAR
STARTCHAR uniFEFF
ENCODING 65279
SWIDTH 0 0
DWIDTH 0 0
BBX 1 1 0 0
BITMAP
00
ENDCHAR
STARTCHAR uniFFFC
ENCODING 65532
SWIDTH 1024 0
DWIDTH 25 0
BBX 23 22 1 -5
BITMAP
F7B9DE
C00002
C00002
C00002
000000
C00002
C00002
C00002
0F3C10
C9A412
D8BC12
D8A412
09A690
CF3CE2
C00002
C00002
C00002
000000
C00002
C00002
C00002
F7B9DE
ENDCHAR
STARTCHAR uniFFFD
ENCODING 65533
SWIDTH 1025 0
DWIDTH 25 0
BBX 23 22 1 -3
BITMAP
001000
003800
007C00
00FE00
01FF00
03FF80
0787C0
0F01E0
1F39F0
3FF9F8
7FF9FC
FFE3FE
3FC7F8
1FCFF0
0FFFE0
07CFC0
03CF80
01FF00
00FE00
007C00
003800
001000
ENDCHAR
STARTCHAR .notdef
ENCODING -1
SWIDTH 392 0
DWIDTH 9 0
BBX 7 17 1 0
BITMAP
FE
82
C6
C6
CA
AA
AA
B2
92
B2
B2
AA
CA
C6
C6
82
FE
ENDCHAR
STARTCHAR glyph369
ENCODING -1
SWIDTH 364 0
DWIDTH 9 0
BBX 7 4 1 13
BITMAP
CE
CC
68
38
ENDCHAR
STARTCHAR uni2009.locl
ENCODING -1
SWIDTH 124 0
DWIDTH 3 0
BBX 1 1 0 0
BITMAP
00
ENDCHAR
STARTCHAR f_f.dlig
ENCODING -1
SWIDTH 546 0
DWIDTH 13 0
BBX 12 18 1 0
BITMAP
1E70
3EF0
31C0
3180
3180
FFE0
FFE0
3180
3180
3180
3180
3180
3180
3180
3180
3180
3180
3180
ENDCHAR
STARTCHAR longs_t.dlig
ENCODING -1
SWIDTH 544 0
DWIDTH 13 0
BBX 11 18 1 0
BITMAP
1F00
3F80
3180
7180
7180
F7E0
F7E0
7180
7180
7180
7180
7180
7180
7180
7180
7180
71E0
70E0
ENDCHAR
STARTCHAR s_t.dlig
ENCODING -1
SWIDTH 710 0
DWIDTH 17 0
BBX 15 18 1 0
BITMAP
01E0
03F8
0318
0318
0318
3F7E
7F7E
6318
E198
6018
7C18
1E18
0718
0398
C198
E398
7F1E
3E0E
ENDCHAR
STARTCHAR two.dnom
ENCODING -1
SWIDTH 329 0
DWIDTH 8 0
BBX 6 9 1 0
BITMAP
78
FC
CC
0C
18
30
60
FC
FC
ENDCHAR
STARTCHAR one.dnom
ENCODING -1
SWIDTH 329 0
DWIDTH 8 0
BBX 4 9 1 0
BITMAP
30
F0
F0
30
30
30
30
30
30
ENDCHAR
STARTCHAR zero.dnom
ENCODING -1
SWIDTH 329 0
DWIDTH 8 0
BBX 6 9 1 0
BITMAP
78
F8
CC
CC
CC
CC
CC
F8
78
ENDCHAR
STARTCHAR nine.c2sc
ENCODING -1
SWIDTH 447 0
DWIDTH 11 0
BBX 8 14 1 0
BITMAP
3C
7E
E7
C3
C3
C3
E3
7F
3F
03
07
0E
3C
38
ENDCHAR
STARTCHAR eight.c2sc
ENCODING -1
SWIDTH 447 0
DWIDTH 11 0
BBX 9 14 1 0
BITMAP
3E00
7F00
6300
6300
6300
7700
3E00
7F00
6300
C180
C380
6300
7F00
3E00
ENDCHAR
STARTCHAR seven.c2sc
ENCODING -1
SWIDTH 447 0
DWIDTH 11 0
BBX 9 14 1 0
BITMAP
FF80
FF80
0300
0300
0300
0600
0600
0C00
0C00
1C00
1800
1800
3000
3000
ENDCHAR
STARTCHAR six.c2sc
ENCODING -1
SWIDTH 447 0
DWIDTH 11 0
BBX 9 14 1 0
BITMAP
0E00
3E00
3800
6000
6000
7E00
FF00
E380
E180
E180
6180
6300
3F00
1E00
ENDCHAR
STARTCHAR five.c2sc
ENCODING -1
SWIDTH 447 0
DWIDTH 11 0
BBX 8 14 2 0
BITMAP
7E
FE
C0
C0
C0
FC
FE
C7
03
03
C3
C7
FE
3C
ENDCHAR
STARTCHAR four.c2sc
ENCODING -1
SWIDTH 447 0
DWIDTH 11 0
BBX 9 14 1 0
BITMAP
0700
0F00
0F00
1F00
1F00
3700
3700
6700
C700
FF80
FF80
0700
0700
0700
ENDCHAR
STARTCHAR three.c2sc
ENCODING -1
SWIDTH 447 0
DWIDTH 11 0
BBX 9 14 1 0
BITMAP
3C00
7F00
E300
C300
0300
0300
1E00
1E00
0300
0300
C380
E300
7F00
3C00
ENDCHAR
STARTCHAR two.c2sc
ENCODING -1
SWIDTH 447 0
DWIDTH 11 0
BBX 9 14 1 0
BITMAP
3E00
7F00
E300
C300
0300
0300
0700
0600
0C00
1800
3000
6000
FF80
FF80
ENDCHAR
STARTCHAR one.c2sc
ENCODING -1
SWIDTH 447 0
DWIDTH 11 0
BBX 5 14 2 0
BITMAP
08
78
F8
98
18
18
18
18
18
18
18
18
18
18
ENDCHAR
STARTCHAR zero.c2sc
ENCODING -1
SWIDTH 447 0
DWIDTH 11 0
BBX 9 14 1 0
BITMAP
1C00
7F00
6300
6300
C180
C180
C180
C180
C180
C380
6300
6300
7F00
1C00
ENDCHAR
STARTCHAR Z.c2sc
ENCODING -1
SWIDTH 454 0
DWIDTH 11 0
BBX 9 14 1 0
BITMAP
FF80
FF80
0300
0700
0600
0C00
0C00
1800
3800
3000
6000
E000
FF80
FF80
ENDCHAR
STARTCHAR Y.c2sc
ENCODING -1
SWIDTH 458 0
DWIDTH 11 0
BBX 11 14 0 0
BITMAP
E0E0
60C0
71C0
3180
3B80
1B00
1B00
0E00
0E00
0E00
0E00
0E00
0E00
0E00
ENDCHAR
STARTCHAR X.c2sc
ENCODING -1
SWIDTH 478 0
DWIDTH 11 0
BBX 10 14 1 0
BITMAP
C1C0
E180
6300
3300
3600
1E00
1C00
1C00
1E00
3600
3300
6380
E180
C1C0
ENDCHAR
STARTCHAR W.c2sc
ENCODING -1
SWIDTH 655 0
DWIDTH 16 0
BBX 14 14 1 0
BITMAP
C30C
C30C
C38C
678C
6798
6698
6498
64D8
2CD8
3C50
3870
3870
3870
1870
ENDCHAR
STARTCHAR V.c2sc
ENCODING -1
SWIDTH 487 0
DWIDTH 12 0
BBX 11 14 0 0
BITMAP
E060
6060
60E0
30C0
30C0
31C0
3180
1980
1980
1B00
0F00
0F00
0E00
0600
ENDCHAR
STARTCHAR U.c2sc
ENCODING -1
SWIDTH 488 0
DWIDTH 12 0
BBX 10 14 1 0
BITMAP
C1C0
C1C0
C1C0
C1C0
C1C0
C1C0
C1C0
C1C0
C1C0
C1C0
6180
6180
7F80
1E00
ENDCHAR
STARTCHAR T.c2sc
ENCODING -1
SWIDTH 456 0
DWIDTH 11 0
BBX 9 14 1 0
BITMAP
FF80
FF80
1C00
1C00
1C00
1C00
1C00
1C00
1C00
1C00
1C00
1C00
1C00
1C00
ENDCHAR
STARTCHAR S.c2sc
ENCODING -1
SWIDTH 453 0
DWIDTH 11 0
BBX 9 14 1 0
BITMAP
3E00
7F00
E380
C180
E000
7000
3E00
1F00
0380
C180
C180
E380
7F00
3E00
ENDCHAR
STARTCHAR R.c2sc
ENCODING -1
SWIDTH 465 0
DWIDTH 11 0
BBX 10 14 1 0
BITMAP
FE00
FF00
E380
E180
E180
E180
E380
FF00
FE00
E600
E300
E300
E180
E1C0
ENDCHAR
STARTCHAR Q.c2sc
ENCODING -1
SWIDTH 519 0
DWIDTH 12 0
BBX 10 16 1 -2
BITMAP
1E00
7F00
6380
E1C0
C0C0
C0C0
C0C0
C0C0
C0C0
C0C0
E1C0
6180
7F00
1F00
01C0
0080
ENDCHAR
STARTCHAR P.c2sc
ENCODING -1
SWIDTH 481 0
DWIDTH 12 0
BBX 9 14 2 0
BITMAP
FE00
FF00
C380
C180
C180
C180
C380
FF00
FE00
C000
C000
C000
C000
C000
ENDCHAR
STARTCHAR O.c2sc
ENCODING -1
SWIDTH 519 0
DWIDTH 12 0
BBX 10 14 1 0
BITMAP
1E00
3F00
6180
E1C0
C0C0
C0C0
C0C0
C0C0
C0C0
C0C0
E1C0
6180
3F00
1E00
ENDCHAR
STARTCHAR N.c2sc
ENCODING -1
SWIDTH 533 0
DWIDTH 13 0
BBX 9 14 2 0
BITMAP
C180
C180
E180
E180
F180
D980
D980
CD80
CD80
C780
C780
C380
C380
C180
ENDCHAR
STARTCHAR M.c2sc
ENCODING -1
SWIDTH 652 0
DWIDTH 16 0
BBX 12 14 2 0
BITMAP
E070
E070
E070
F0F0
F0F0
F0F0
D9B0
D9B0
D9B0
CF30
CF30
CF30
C630
C630
ENDCHAR
STARTCHAR L.c2sc
ENCODING -1
SWIDTH 411 0
DWIDTH 10 0
BBX 7 14 2 0
BITMAP
C0
C0
C0
C0
C0
C0
C0
C0
C0
C0
C0
C0
FE
FE
ENDCHAR
STARTCHAR K.c2sc
ENCODING -1
SWIDTH 473 0
DWIDTH 11 0
BBX 10 14 1 0
BITMAP
C1C0
C380
C700
C600
CC00
DC00
F800
FC00
EE00
C600
C700
C300
C180
C1C0
ENDCHAR
STARTCHAR J.c2sc
ENCODING -1
SWIDTH 419 0
DWIDTH 10 0
BBX 8 14 1 0
BITMAP
03
03
03
03
03
03
03
03
03
03
C7
C6
FE
7C
ENDCHAR
STARTCHAR I.c2sc
ENCODING -1
SWIDTH 221 0
DWIDTH 5 0
BBX 2 14 2 0
BITMAP
C0
C0
C0
C0
C0
C0
C0
C0
C0
C0
C0
C0
C0
C0
ENDCHAR
STARTCHAR H.c2sc
ENCODING -1
SWIDTH 533 0
DWIDTH 13 0
BBX 9 14 2 0
BITMAP
C180
C180
C180
C180
C180
C180
FF80
FF80
C180
C180
C180
C180
C180
C180
ENDCHAR
STARTCHAR G.c2sc
ENCODING -1
SWIDTH 509 0
DWIDTH 12 0
BBX 10 14 1 0
BITMAP
1E00
3F80
6180
E1C0
C000
C000
C000
C7C0
C7C0
C0C0
E0C0
71C0
3F80
1F00
ENDCHAR
STARTCHAR F.c2sc
ENCODING -1
SWIDTH 415 0
DWIDTH 10 0
BBX 7 14 2 0
BITMAP
FE
FE
C0
C0
C0
C0
FE
FE
C0
C0
C0
C0
C0
C0
ENDCHAR
STARTCHAR dollar.c2sc
ENCODING -1
SWIDTH 453 0
DWIDTH 11 0
BBX 9 20 1 -3
BITMAP
0C00
0C00
0C00
3E00
7F00
E380
C180
C000
7000
7E00
1F00
0380
0180
C180
E380
7F00
3E00
0C00
0C00
0C00
ENDCHAR
STARTCHAR sterling.c2sc
ENCODING -1
SWIDTH 467 0
DWIDTH 11 0
BBX 9 14 1 0
BITMAP
1E00
3F00
7300
6180
6180
6000
6000
FE00
6000
6000
6000
6000
FF80
FF80
ENDCHAR
STARTCHAR yen.c2sc
ENCODING -1
SWIDTH 400 0
DWIDTH 10 0
BBX 8 14 1 0
BITMAP
C3
C3
66
66
66
3C
3C
FF
18
18
FF
18
18
18
ENDCHAR
STARTCHAR Gamma.c2sc
ENCODING -1
SWIDTH 405 0
DWIDTH 10 0
BBX 7 14 2 0
BITMAP
FE
FE
C0
C0
C0
C0
C0
C0
C0
C0
C0
C0
C0
C0
ENDCHAR
STARTCHAR Delta.c2sc
ENCODING -1
SWIDTH 487 0
DWIDTH 12 0
BBX 10 14 1 0
BITMAP
0C00
0C00
1E00
1E00
1200
3300
3300
3300
6180
6180
6180
C0C0
FFC0
FFC0
ENDCHAR
STARTCHAR Theta.c2sc
ENCODING -1
SWIDTH 519 0
DWIDTH 12 0
BBX 10 14 1 0
BITMAP
1E00
3F00
6180
E1C0
C0C0
C0C0
DEC0
DEC0
C0C0
C0C0
E1C0
6180
3F00
1E00
ENDCHAR
STARTCHAR Lambda.c2sc
ENCODING -1
SWIDTH 487 0
DWIDTH 12 0
BBX 10 14 1 0
BITMAP
0C00
0C00
1E00
1E00
1200
3300
3300
3300
6180
6180
6180
E0C0
C0C0
C0C0
ENDCHAR
STARTCHAR Xi.c2sc
ENCODING -1
SWIDTH 389 0
DWIDTH 9 0
BBX 7 14 1 0
BITMAP
FE
FE
00
00
00
00
FE
FE
00
00
00
00
FE
FE
ENDCHAR
STARTCHAR Pi.c2sc
ENCODING -1
SWIDTH 525 0
DWIDTH 13 0
BBX 9 14 2 0
BITMAP
FF80
FF80
C180
C180
C180
C180
C180
C180
C180
C180
C180
C180
C180
C180
ENDCHAR
STARTCHAR Sigma.c2sc
ENCODING -1
SWIDTH 435 0
DWIDTH 10 0
BBX 9 14 1 0
BITMAP
FF00
FF00
C000
6000
7000
3000
1800
1800
3000
7000
6000
C000
FF80
FF80
ENDCHAR
STARTCHAR Phi.c2sc
ENCODING -1
SWIDTH 587 0
DWIDTH 14 0
BBX 12 14 1 0
BITMAP
0600
1F80
3FC0
76E0
E670
C630
C630
C630
C630
E670
76E0
3FC0
1F80
0600
ENDCHAR
STARTCHAR Psi.c2sc
ENCODING -1
SWIDTH 560 0
DWIDTH 13 0
BBX 11 14 1 0
BITMAP
CE60
CE60
CE60
CE60
CE60
CE60
CE60
EEC0
6FC0
3F80
1F00
0E00
0E00
0E00
ENDCHAR
STARTCHAR Omega.c2sc
ENCODING -1
SWIDTH 540 0
DWIDTH 13 0
BBX 11 14 1 0
BITMAP
1F00
3F80
71C0
60C0
E0C0
C060
C060
C060
E0C0
60C0
60C0
3180
FBE0
FBE0
ENDCHAR
STARTCHAR uni0402.c2sc
ENCODING -1
SWIDTH 596 0
DWIDTH 14 0
BBX 13 14 0 0
BITMAP
FF80
FF80
0C00
0C00
0C00
0FE0
0FF0
0C38
0C18
0C18
0C18
0C38
0C70
0C60
ENDCHAR
STARTCHAR uni0404.c2sc
ENCODING -1
SWIDTH 490 0
DWIDTH 12 0
BBX 10 14 1 0
BITMAP
1F00
3F80
7180
60C0
E0C0
C000
FC00
FC00
C000
C0C0
60C0
7180
3F80
1F00
ENDCHAR
STARTCHAR uni0409.c2sc
ENCODING -1
SWIDTH 782 0
DWIDTH 19 0
BBX 17 14 1 0
BITMAP
3FC000
3FC000
30C000
30C000
30C000
30FE00
30FF00
30C380
30C180
30C180
30C180
60C380
E0FF00
C0FE00
ENDCHAR
STARTCHAR uni040A.c2sc
ENCODING -1
SWIDTH 788 0
DWIDTH 19 0
BBX 16 14 2 0
BITMAP
C180
C180
C180
C180
C180
C1FC
FFFE
FF87
C183
C183
C183
C187
C1FE
C1FC
ENDCHAR
STARTCHAR uni040B.c2sc
ENCODING -1
SWIDTH 596 0
DWIDTH 14 0
BBX 13 14 0 0
BITMAP
FF80
FF80
0C00
0C00
0C00
0FE0
0FF0
0C38
0C18
0C18
0C18
0C18
0C18
0C18
ENDCHAR
STARTCHAR uni040F.c2sc
ENCODING -1
SWIDTH 524 0
DWIDTH 13 0
BBX 9 18 2 -4
BITMAP
C180
C180
C180
C180
C180
C180
C180
C180
C180
C180
C180
C180
FF80
FF80
1C00
1C00
1C00
1C00
ENDCHAR
STARTCHAR uni0411.c2sc
ENCODING -1
SWIDTH 479 0
DWIDTH 12 0
BBX 9 14 2 0
BITMAP
FF00
FF00
C000
C000
C000
FE00
FF00
C300
C180
C180
C180
C300
FF00
FE00
ENDCHAR
STARTCHAR uni0414.c2sc
ENCODING -1
SWIDTH 563 0
DWIDTH 14 0
BBX 12 18 1 -4
BITMAP
1FE0
1FE0
18E0
18E0
18E0
18E0
38E0
30E0
30E0
30E0
30E0
60E0
FFF0
FFF0
C030
C030
C030
C030
ENDCHAR
STARTCHAR uni0416.c2sc
ENCODING -1
SWIDTH 651 0
DWIDTH 16 0
BBX 14 14 1 0
BITMAP
E31C
6318
7338
3330
3B70
1B60
1FE0
1FE0
1B70
3330
7338
7318
E31C
E31C
ENDCHAR
STARTCHAR uni0417.c2sc
ENCODING -1
SWIDTH 466 0
DWIDTH 11 0
BBX 9 14 1 0
BITMAP
3E00
7F00
E300
C380
0380
0300
1E00
1F00
0300
0180
C180
E380
7F00
3E00
ENDCHAR
STARTCHAR uni0418.c2sc
ENCODING -1
SWIDTH 537 0
DWIDTH 13 0
BBX 9 14 2 0
BITMAP
C180
C180
C380
C780
C780
CD80
CD80
D980
D980
F180
F180
E180
E180
C180
ENDCHAR
STARTCHAR uni041A.c2sc
ENCODING -1
SWIDTH 473 0
DWIDTH 11 0
BBX 10 14 1 0
BITMAP
C180
C300
C700
C600
CC00
CC00
F800
F800
CC00
CE00
C600
C700
C380
C1C0
ENDCHAR
STARTCHAR uni041B.c2sc
ENCODING -1
SWIDTH 521 0
DWIDTH 13 0
BBX 10 14 1 0
BITMAP
3FC0
3FC0
30C0
30C0
30C0
30C0
30C0
30C0
30C0
30C0
30C0
60C0
E0C0
C0C0
ENDCHAR
STARTCHAR uni0423.c2sc
ENCODING -1
SWIDTH 454 0
DWIDTH 11 0
BBX 10 14 1 0
BITMAP
C1C0
C180
6380
6300
6300
3700
3600
3600
1C00
1C00
1C00
1800
7800
7000
ENDCHAR
STARTCHAR uni0426.c2sc
ENCODING -1
SWIDTH 564 0
DWIDTH 14 0
BBX 11 18 2 -4
BITMAP
C180
C180
C180
C180
C180
C180
C180
C180
C180
C180
C180
C180
FFE0
FFE0
0060
0060
0060
0060
ENDCHAR
STARTCHAR uni0427.c2sc
ENCODING -1
SWIDTH 487 0
DWIDTH 12 0
BBX 9 14 1 0
BITMAP
C180
C180
C180
C180
C180
C180
E180
7F80
3F80
0180
0180
0180
0180
0180
ENDCHAR
STARTCHAR uni0428.c2sc
ENCODING -1
SWIDTH 691 0
DWIDTH 17 0
BBX 13 14 2 0
BITMAP
C718
C718
C718
C718
C718
C718
C718
C718
C718
C718
C718
C718
FFF8
FFF8
ENDCHAR
STARTCHAR uni0429.c2sc
ENCODING -1
SWIDTH 731 0
DWIDTH 18 0
BBX 15 18 2 -4
BITMAP
C718
C718
C718
C718
C718
C718
C718
C718
C718
C718
C718
C718
FFFE
FFFE
0006
0006
0006
0006
ENDCHAR
STARTCHAR uni042A.c2sc
ENCODING -1
SWIDTH 559 0
DWIDTH 13 0
BBX 12 14 0 0
BITMAP
F800
F800
1800
1800
1800
1FC0
1FE0
1870
1830
1830
1830
1870
1FE0
1FC0
ENDCHAR
STARTCHAR uni042B.c2sc
ENCODING -1
SWIDTH 658 0
DWIDTH 16 0
BBX 13 14 1 0
BITMAP
C018
C018
C018
C018
C018
FE18
FF18
C398
C198
C198
C198
C398
FF18
FE18
ENDCHAR
STARTCHAR uni042C.c2sc
ENCODING -1
SWIDTH 475 0
DWIDTH 11 0
BBX 9 14 1 0
BITMAP
C000
C000
C000
C000
C000
FE00
FF00
C380
C180
C180
C180
C380
FF00
FE00
ENDCHAR
STARTCHAR uni042D.c2sc
ENCODING -1
SWIDTH 491 0
DWIDTH 12 0
BBX 10 14 1 0
BITMAP
3E00
7F00
6380
C180
C1C0
00C0
0FC0
0FC0
00C0
C1C0
C180
6380
7F00
3E00
ENDCHAR
STARTCHAR uni042E.c2sc
ENCODING -1
SWIDTH 705 0
DWIDTH 17 0
BBX 14 14 2 0
BITMAP
C1E0
C7F0
C638
CC18
CC0C
CC0C
FC0C
FC0C
CC0C
CC0C
CC18
C638
C7F0
C1E0
ENDCHAR
STARTCHAR uni042F.c2sc
ENCODING -1
SWIDTH 499 0
DWIDTH 12 0
BBX 9 14 1 0
BITMAP
3F80
7F80
6180
6180
6180
6180
7F80
1F80
3980
3180
3180
6180
6180
C180
ENDCHAR
STARTCHAR uni0492.c2sc
ENCODING -1
SWIDTH 444 0
DWIDTH 11 0
BBX 10 14 0 0
BITMAP
1FC0
1FC0
1800
1800
1800
1800
FE00
FE00
1800
1800
1800
1800
1800
1800
ENDCHAR
STARTCHAR uni0496.c2sc
ENCODING -1
SWIDTH 676 0
DWIDTH 16 0
BBX 16 18 0 -4
BITMAP
618E
718C
3198
3998
19B0
1DB0
0FE0
0FF0
1DB0
19B8
3998
319C
718F
618F
8003
0003
0003
0003
ENDCHAR
STARTCHAR uni049A.c2sc
ENCODING -1
SWIDTH 492 0
DWIDTH 12 0
BBX 9 18 2 -4
BITMAP
C380
C700
C600
CC00
DC00
D800
F000
F800
D800
DC00
CE00
C600
C780
C380
0180
0180
0180
0180
ENDCHAR
STARTCHAR uni049C.c2sc
ENCODING -1
SWIDTH 562 0
DWIDTH 14 0
BBX 11 14 2 0
BITMAP
C0E0
C0C0
C180
D380
D300
D600
FE00
FE00
D700
D300
C380
C1C0
C0C0
C0E0
ENDCHAR
STARTCHAR uni04A0.c2sc
ENCODING -1
SWIDTH 571 0
DWIDTH 14 0
BBX 12 14 1 0
BITMAP
F870
F860
18C0
19C0
1980
1B00
1F00
1F00
1B80
1980
19C0
18E0
1860
1870
ENDCHAR
STARTCHAR uni04A8.c2sc
ENCODING -1
SWIDTH 625 0
DWIDTH 15 0
BBX 13 14 1 0
BITMAP
19C0
3BF0
6730
6630
C630
C630
C630
C630
C630
E730
6370
71E0
3FF8
1F38
ENDCHAR
STARTCHAR uni04B0.c2sc
ENCODING -1
SWIDTH 480 0
DWIDTH 12 0
BBX 11 14 0 0
BITMAP
E0E0
60C0
71C0
3180
3B80
1B00
1B00
0E00
3F80
3F80
0E00
0E00
0E00
0E00
ENDCHAR
STARTCHAR uni04B2.c2sc
ENCODING -1
SWIDTH 514 0
DWIDTH 12 0
BBX 11 18 0 -4
BITMAP
E0E0
71C0
3180
3B80
1B00
0F00
0E00
0E00
1F00
1B00
3980
3180
70E0
60E0
8020
0020
0020
0020
ENDCHAR
STARTCHAR uni04B4.c2sc
ENCODING -1
SWIDTH 695 0
DWIDTH 17 0
BBX 15 18 1 -4
BITMAP
FF98
FF98
1818
1818
1818
1818
1818
1818
1818
1818
1818
1818
1FFE
1FFE
0004
0004
0004
0004
ENDCHAR
STARTCHAR uni04B8.c2sc
ENCODING -1
SWIDTH 487 0
DWIDTH 12 0
BBX 9 14 1 0
BITMAP
C180
C180
C180
C180
C980
C980
E980
7F80
3F80
0980
0980
0180
0180
0180
ENDCHAR
STARTCHAR uni04BA.c2sc
ENCODING -1
SWIDTH 487 0
DWIDTH 12 0
BBX 9 14 2 0
BITMAP
C000
C000
C000
C000
C000
FE00
FF00
C380
C180
C180
C180
C180
C180
C180
ENDCHAR
STARTCHAR uni04BC.c2sc
ENCODING -1
SWIDTH 632 0
DWIDTH 15 0
BBX 14 14 0 0
BITMAP
01E0
07F0
0618
CC1C
CC0C
EC0C
7FFC
3FFC
0C00
0C00
0C00
0E10
07F0
01F8
ENDCHAR
STARTCHAR uni04D8.c2sc
ENCODING -1
SWIDTH 527 0
DWIDTH 13 0
BBX 11 14 1 0
BITMAP
1F00
3F80
21C0
00C0
00E0
0060
FFE0
FFE0
C060
C0E0
60C0
71C0
3F80
1F00
ENDCHAR
STARTCHAR uni04E0.c2sc
ENCODING -1
SWIDTH 466 0
DWIDTH 11 0
BBX 9 14 1 0
BITMAP
FF00
FF00
0700
0E00
1C00
1C00
1F00
0300
0180
0180
C180
E300
7F00
3E00
ENDCHAR
STARTCHAR uni04E8.c2sc
ENCODING -1
SWIDTH 519 0
DWIDTH 12 0
BBX 10 14 1 0
BITMAP
1E00
3F00
6180
E1C0
C0C0
C0C0
FFC0
FFC0
C0C0
C0C0
E1C0
6180
3F00
1E00
ENDCHAR
STARTCHAR lira.c2sc
ENCODING -1
SWIDTH 467 0
DWIDTH 11 0
BBX 9 14 1 0
BITMAP
1E00
3F00
7300
6180
6180
6000
FE00
6000
6000
FE00
6000
6000
FF80
FF80
ENDCHAR
STARTCHAR Euro.c2sc
ENCODING -1
SWIDTH 433 0
DWIDTH 10 0
BBX 8 14 1 0
BITMAP
0F
3F
30
70
60
FE
60
60
FE
60
70
30
3F
0F
ENDCHAR
STARTCHAR uni2116.c2sc
ENCODING -1
SWIDTH 884 0
DWIDTH 21 0
BBX 19 14 1 0
BITMAP
E0C780
E0CFC0
F0CCC0
F0CC60
D8CC60
C8CC60
CCCCC0
C4CFC0
C6C780
C3C000
C3CFC0
C1CFC0
C1C000
C0C000
ENDCHAR
STARTCHAR uni20BD.c2sc
ENCODING -1
SWIDTH 512 0
DWIDTH 12 0
BBX 11 14 0 0
BITMAP
3F80
3FC0
30E0
3060
3060
3060
30E0
FFC0
FF80
3000
FE00
FE00
3000
3000
ENDCHAR
STARTCHAR three.dnom
ENCODING -1
SWIDTH 329 0
DWIDTH 8 0
BBX 6 9 1 0
BITMAP
78
FC
0C
38
38
0C
CC
FC
78
ENDCHAR
STARTCHAR four.dnom
ENCODING -1
SWIDTH 329 0
DWIDTH 8 0
BBX 6 9 1 0
BITMAP
18
18
38
78
58
D8
FC
FC
18
ENDCHAR
STARTCHAR five.dnom
ENCODING -1
SWIDTH 329 0
DWIDTH 8 0
BBX 6 9 1 0
BITMAP
7C
7C
40
F8
FC
4C
0C
FC
78
ENDCHAR
STARTCHAR six.dnom
ENCODING -1
SWIDTH 329 0
DWIDTH 8 0
BBX 6 9 1 0
BITMAP
38
78
C0
F8
FC
CC
CC
FC
78
ENDCHAR
STARTCHAR seven.dnom
ENCODING -1
SWIDTH 329 0
DWIDTH 8 0
BBX 6 9 1 0
BITMAP
FC
FC
08
18
18
30
30
60
60
ENDCHAR
STARTCHAR eight.dnom
ENCODING -1
SWIDTH 329 0
DWIDTH 8 0
BBX 6 9 1 0
BITMAP
78
FC
CC
78
78
CC
CC
FC
78
ENDCHAR
STARTCHAR nine.dnom
ENCODING -1
SWIDTH 329 0
DWIDTH 8 0
BBX 6 9 1 0
BITMAP
78
F8
CC
CC
FC
7C
0C
78
70
ENDCHAR
STARTCHAR glyph550
ENCODING -1
SWIDTH 404 0
DWIDTH 10 0
BBX 6 2 2 7
BITMAP
FC
FC
ENDCHAR
STARTCHAR glyph551
ENCODING -1
SWIDTH 306 0
DWIDTH 7 0
BBX 4 7 2 13
BITMAP
30
60
00
E0
A0
A0
E0
ENDCHAR
STARTCHAR E.c2sc
ENCODING -1
SWIDTH 428 0
DWIDTH 10 0
BBX 8 14 2 0
BITMAP
FE
FE
C0
C0
C0
C0
FE
FE
C0
C0
C0
C0
FF
FF
ENDCHAR
STARTCHAR g.ss01
ENCODING -1
SWIDTH 463 0
DWIDTH 11 0
BBX 11 18 0 -5
BITMAP
1FE0
3FE0
7180
6180
61C0
6180
7180
3F80
3E00
2000
6000
3F80
3FC0
60C0
C0C0
E1C0
7F80
3F00
ENDCHAR
STARTCHAR alpha.ss02
ENCODING -1
SWIDTH 523 0
DWIDTH 13 0
BBX 11 13 1 0
BITMAP
1CC0
3FC0
73C0
61C0
61C0
E0C0
C080
C0C0
E1C0
61C0
73C0
3FC0
1CE0
ENDCHAR
STARTCHAR R.ss03
ENCODING -1
SWIDTH 577 0
DWIDTH 14 0
BBX 11 17 2 0
BITMAP
FF00
FF80
C1C0
C0C0
C0C0
C0C0
C0C0
C180
FF80
FF80
C1C0
C0C0
C0C0
C0C0
C0C0
C0C0
C0E0
ENDCHAR
STARTCHAR K.ss04
ENCODING -1
SWIDTH 560 0
DWIDTH 13 0
BBX 11 17 2 0
BITMAP
C0E0
C1C0
C380
C300
C700
CE00
CC00
FC00
FC00
CE00
C600
C700
C300
C380
C1C0
C0C0
C0E0
ENDCHAR
STARTCHAR k.ss04
ENCODING -1
SWIDTH 453 0
DWIDTH 11 0
BBX 9 18 2 0
BITMAP
C000
C000
C000
C000
C000
C700
C600
CE00
CC00
D800
F800
F800
DC00
CC00
CE00
C600
C700
C380
ENDCHAR
STARTCHAR K.ss05
ENCODING -1
SWIDTH 572 0
DWIDTH 14 0
BBX 11 17 2 0
BITMAP
C0E0
C1C0
C380
C700
C600
CC00
DC00
F800
F000
F800
DC00
CE00
C700
C300
C380
C1C0
C0E0
ENDCHAR
STARTCHAR k.ss05
ENCODING -1
SWIDTH 454 0
DWIDTH 11 0
BBX 8 18 2 0
BITMAP
C0
C0
C0
C0
C0
C7
CE
CC
D8
F8
F0
F0
F8
D8
DC
CE
C6
C3
ENDCHAR
STARTCHAR D.c2sc
ENCODING -1
SWIDTH 492 0
DWIDTH 12 0
BBX 9 14 2 0
BITMAP
FC00
FE00
C700
C300
C300
C180
C180
C180
C180
C380
C300
C700
FE00
F800
ENDCHAR
STARTCHAR C.c2sc
ENCODING -1
SWIDTH 490 0
DWIDTH 12 0
BBX 10 14 1 0
BITMAP
1E00
3F80
7180
60C0
E0C0
C000
C000
C000
C000
E0C0
60C0
7180
3F80
1F00
ENDCHAR
STARTCHAR B.c2sc
ENCODING -1
SWIDTH 475 0
DWIDTH 11 0
BBX 8 14 2 0
BITMAP
FC
FE
C7
C3
C3
C7
FE
FE
C3
C3
C3
C3
FF
FC
ENDCHAR
STARTCHAR A.c2sc
ENCODING -1
SWIDTH 501 0
DWIDTH 12 0
BBX 12 14 0 0
BITMAP
0600
0600
0F00
0F00
0F00
1980
1980
1980
30C0
3FC0
3FC0
6060
6060
E070
ENDCHAR
STARTCHAR glyph564
ENCODING -1
SWIDTH 236 0
DWIDTH 6 0
BBX 3 5 2 14
BITMAP
40
E0
C0
C0
C0
ENDCHAR
STARTCHAR glyph565
ENCODING -1
SWIDTH 402 0
DWIDTH 10 0
BBX 7 4 1 15
BITMAP
30
10
C6
7C
ENDCHAR
STARTCHAR glyph566
ENCODING -1
SWIDTH 0 0
DWIDTH 0 0
BBX 5 6 -8 14
BITMAP
18
30
20
00
E8
B8
ENDCHAR
STARTCHAR glyph567
ENCODING -1
SWIDTH 455 0
DWIDTH 11 0
BBX 11 5 1 15
BITMAP
00E0
00C0
1D80
3E00
E700
ENDCHAR
STARTCHAR glyph568
ENCODING -1
SWIDTH 454 0
DWIDTH 11 0
BBX 11 5 -2 14
BITMAP
E000
6000
3300
0FC0
1CE0
ENDCHAR
STARTCHAR glyph569
ENCODING -1
SWIDTH 446 0
DWIDTH 11 0
BBX 9 6 1 15
BITMAP
0180
0080
0180
3D00
6600
E700
ENDCHAR
STARTCHAR glyph570
ENCODING -1
SWIDTH 453 0
DWIDTH 11 0
BBX 8 6 1 15
BITMAP
32
4C
00
18
7E
E7
ENDCHAR
STARTCHAR uni0490.c2sc
ENCODING -1
SWIDTH 405 0
DWIDTH 10 0
BBX 7 18 2 0
BITMAP
06
06
06
06
FE
FE
C0
C0
C0
C0
C0
C0
C0
C0
C0
C0
C0
C0
ENDCHAR
STARTCHAR glyph572
ENCODING -1
SWIDTH 404 0
DWIDTH 10 0
BBX 7 4 1 15
BITMAP
0C
10
C6
7C
ENDCHAR
STARTCHAR glyph573
ENCODING -1
SWIDTH 404 0
DWIDTH 10 0
BBX 6 6 1 15
BITMAP
18
0C
18
10
C4
78
ENDCHAR
STARTCHAR zero.numr
ENCODING -1
SWIDTH 329 0
DWIDTH 8 0
BBX 6 9 1 8
BITMAP
78
F8
CC
CC
CC
CC
CC
F8
78
ENDCHAR
STARTCHAR four.numr
ENCODING -1
SWIDTH 329 0
DWIDTH 8 0
BBX 6 9 1 8
BITMAP
18
18
38
78
58
D8
FC
FC
18
ENDCHAR
STARTCHAR five.numr
ENCODING -1
SWIDTH 329 0
DWIDTH 8 0
BBX 6 9 1 8
BITMAP
7C
7C
40
F8
FC
4C
0C
FC
78
ENDCHAR
STARTCHAR six.numr
ENCODING -1
SWIDTH 329 0
DWIDTH 8 0
BBX 6 9 1 8
BITMAP
38
78
C0
F8
FC
CC
CC
FC
78
ENDCHAR
STARTCHAR seven.numr
ENCODING -1
SWIDTH 329 0
DWIDTH 8 0
BBX 6 9 1 8
BITMAP
FC
FC
08
18
18
30
30
60
60
ENDCHAR
STARTCHAR eight.numr
ENCODING -1
SWIDTH 329 0
DWIDTH 8 0
BBX 6 9 1 8
BITMAP
78
FC
CC
78
78
CC
CC
FC
78
ENDCHAR
STARTCHAR nine.numr
ENCODING -1
SWIDTH 329 0
DWIDTH 8 0
BBX 6 9 1 8
BITMAP
78
F8
CC
CC
FC
7C
0C
78
70
ENDCHAR
STARTCHAR C.ss06
ENCODING -1
SWIDTH 603 0
DWIDTH 14 0
BBX 12 17 1 0
BITMAP
0F80
1FC0
38E0
7070
6030
E030
C000
C000
C000
C000
E000
E030
6030
7070
38E0
1FC0
0F80
ENDCHAR
STARTCHAR G.ss06
ENCODING -1
SWIDTH 618 0
DWIDTH 15 0
BBX 11 17 2 0
BITMAP
1F00
3FC0
70E0
6060
C060
C000
C000
C000
C000
C3E0
C3E0
C060
C060
6060
70E0
3FE0
0F80
ENDCHAR
STARTCHAR D.ss06
ENCODING -1
SWIDTH 608 0
DWIDTH 15 0
BBX 11 17 2 0
BITMAP
FE00
FF80
C1C0
C0C0
C0E0
C060
C060
C060
C060
C060
C060
C060
C0E0
C0C0
C3C0
FF80
FE00
ENDCHAR
STARTCHAR O.ss06
ENCODING -1
SWIDTH 643 0
DWIDTH 15 0
BBX 13 17 1 0
BITMAP
0F80
1FC0
38E0
7070
6030
6030
E038
C018
C018
C018
E038
6030
6030
7070
38E0
1FC0
0F80
ENDCHAR
STARTCHAR Q.ss06
ENCODING -1
SWIDTH 644 0
DWIDTH 15 0
BBX 13 20 1 -3
BITMAP
0F80
1FC0
38E0
7070
6030
6030
E038
C018
C018
C018
C038
6030
6030
7070
38E0
1FC0
0FC0
00E0
0070
0020
ENDCHAR
STARTCHAR one.oldstyle.pnum
ENCODING -1
SWIDTH 421 0
DWIDTH 10 0
BBX 6 14 2 0
BITMAP
0C
7C
FC
9C
1C
1C
1C
1C
1C
1C
1C
1C
1C
1C
ENDCHAR
STARTCHAR two.oldstyle.pnum
ENCODING -1
SWIDTH 492 0
DWIDTH 12 0
BBX 9 14 2 0
BITMAP
3C00
7E00
E700
C300
C300
0300
0600
0E00
1C00
3800
3000
6000
FF80
FF80
ENDCHAR
STARTCHAR three.oldstyle.pnum
ENCODING -1
SWIDTH 474 0
DWIDTH 11 0
BBX 10 18 0 -4
BITMAP
7FC0
7FC0
0180
0300
0600
0600
0F00
0F80
0380
01C0
00C0
00C0
00C0
00C0
0180
4380
FF00
3E00
ENDCHAR
STARTCHAR four.oldstyle.pnum
ENCODING -1
SWIDTH 524 0
DWIDTH 13 0
BBX 11 18 1 -4
BITMAP
0380
0380
0780
0780
0D80
0D80
1980
1980
3180
3180
6180
E180
FFE0
FFE0
0180
0180
0180
0180
ENDCHAR
STARTCHAR five.oldstyle.pnum
ENCODING -1
SWIDTH 483 0
DWIDTH 12 0
BBX 9 18 1 -4
BITMAP
7F80
7F80
6000
6000
6000
6000
7E00
7F00
6380
4180
0180
0180
0180
0180
0180
4380
FF00
3C00
ENDCHAR
STARTCHAR seven.oldstyle.pnum
ENCODING -1
SWIDTH 458 0
DWIDTH 11 0
BBX 9 18 1 -4
BITMAP
FF80
FF80
0180
0300
0300
0300
0600
0600
0600
0C00
0C00
0C00
1800
1800
3000
3000
3000
6000
ENDCHAR
STARTCHAR glyph592
ENCODING -1
SWIDTH 402 0
DWIDTH 10 0
BBX 6 5 1 15
BITMAP
74
5C
00
C4
78
ENDCHAR
STARTCHAR glyph593
ENCODING -1
SWIDTH 183 0
DWIDTH 4 0
BBX 2 6 1 -4
BITMAP
C0
C0
C0
C0
C0
C0
ENDCHAR
STARTCHAR OE.c2sc
ENCODING -1
SWIDTH 714 0
DWIDTH 17 0
BBX 15 14 1 0
BITMAP
1FFE
3FFE
7180
6180
C180
C180
C1FC
C1FC
C180
C180
6180
7180
3FFE
1FFE
ENDCHAR
STARTCHAR nine.oldstyle.pnum
ENCODING -1
SWIDTH 520 0
DWIDTH 12 0
BBX 10 18 1 -4
BITMAP
1E00
3F00
7380
6180
E0C0
C0C0
C0C0
E0C0
60C0
71C0
3FC0
1EC0
01C0
0180
0180
4300
7F00
3C00
ENDCHAR
STARTCHAR glyph596
ENCODING -1
SWIDTH 234 0
DWIDTH 6 0
BBX 4 7 0 -5
BITMAP
30
30
30
30
30
F0
E0
ENDCHAR
STARTCHAR three.oldstyle
ENCODING -1
SWIDTH 494 0
DWIDTH 12 0
BBX 9 18 1 -4
BITMAP
7F80
7F80
0380
0300
0600
0C00
1E00
1F00
0380
0180
0180
0180
0180
0180
0180
8300
FF00
7C00
ENDCHAR
STARTCHAR five.oldstyle
ENCODING -1
SWIDTH 494 0
DWIDTH 12 0
BBX 10 18 1 -4
BITMAP
3FC0
3FC0
6000
6000
6000
6000
7E00
7F00
6380
4180
0180
01C0
01C0
0180
0180
4380
FF00
3E00
ENDCHAR
STARTCHAR four.oldstyle
ENCODING -1
SWIDTH 494 0
DWIDTH 12 0
BBX 11 18 1 -4
BITMAP
0380
0380
0780
0780
0D80
0980
1980
3180
3180
6180
6180
C180
FFE0
FFE0
0180
0180
0180
0180
ENDCHAR
STARTCHAR two.oldstyle
ENCODING -1
SWIDTH 494 0
DWIDTH 12 0
BBX 10 14 1 0
BITMAP
1E00
3F00
7380
6180
E180
0180
0300
0700
0E00
1C00
3800
7000
7FC0
7FC0
ENDCHAR
STARTCHAR seven.oldstyle
ENCODING -1
SWIDTH 494 0
DWIDTH 12 0
BBX 10 18 1 -4
BITMAP
FFC0
FFC0
0180
0180
0180
0300
0300
0600
0600
0600
0C00
0C00
0C00
1800
1800
1800
3000
3000
ENDCHAR
STARTCHAR zero.oldstyle
ENCODING -1
SWIDTH 494 0
DWIDTH 12 0
BBX 10 14 1 0
BITMAP
1E00
7F00
6380
C180
C0C0
C0C0
C0C0
C0C0
C0C0
C0C0
C1C0
6380
7F00
1E00
ENDCHAR
STARTCHAR six.oldstyle
ENCODING -1
SWIDTH 494 0
DWIDTH 12 0
BBX 9 17 2 0
BITMAP
0E00
3E00
7000
6000
C000
C000
DC00
FF00
E300
C300
C180
C180
C180
C300
E300
7E00
3C00
ENDCHAR
STARTCHAR nine.oldstyle
ENCODING -1
SWIDTH 494 0
DWIDTH 12 0
BBX 9 18 1 -4
BITMAP
3E00
7F00
6380
C180
C180
C180
C180
C180
E180
6380
7F80
3F80
0180
0180
0380
8700
7E00
7C00
ENDCHAR
STARTCHAR eight.oldstyle
ENCODING -1
SWIDTH 494 0
DWIDTH 12 0
BBX 10 17 1 0
BITMAP
1E00
3F00
7380
6180
6180
6180
7380
3F00
3F00
7380
6180
E1C0
E1C0
6180
6180
3F00
1E00
ENDCHAR
STARTCHAR one.oldstyle
ENCODING -1
SWIDTH 494 0
DWIDTH 12 0
BBX 5 14 3 0
BITMAP
08
78
F8
98
18
18
18
18
18
18
18
18
18
18
ENDCHAR
STARTCHAR glyph607
ENCODING -1
SWIDTH 237 0
DWIDTH 6 0
BBX 4 18 0 -5
BITMAP
30
30
30
30
30
30
30
30
30
30
30
30
30
30
30
30
E0
C0
ENDCHAR
STARTCHAR glyph608
ENCODING -1
SWIDTH 238 0
DWIDTH 6 0
BBX 4 18 0 -5
BITMAP
30
30
30
30
30
30
30
30
30
30
30
30
30
30
30
30
E0
C0
ENDCHAR
STARTCHAR glyph609
ENCODING -1
SWIDTH 235 0
DWIDTH 6 0
BBX 2 13 2 0
BITMAP
C0
C0
C0
C0
C0
C0
C0
C0
C0
C0
C0
C0
C0
ENDCHAR
STARTCHAR glyph610
ENCODING -1
SWIDTH 235 0
DWIDTH 6 0
BBX 4 18 0 -5
BITMAP
30
30
30
30
30
30
30
30
30
30
30
30
30
60
C0
C0
F0
70
ENDCHAR
STARTCHAR glyph611
ENCODING -1
SWIDTH 235 0
DWIDTH 6 0
BBX 2 13 2 0
BITMAP
C0
C0
C0
C0
C0
C0
C0
C0
C0
C0
C0
C0
C0
ENDCHAR
STARTCHAR germandbls.sc
ENCODING -1
SWIDTH 475 0
DWIDTH 11 0
BBX 9 14 1 0
BITMAP
3C00
7F00
6300
E600
C600
CC00
CE00
CF00
C380
C180
C180
D380
DF00
DE00
ENDCHAR
STARTCHAR zero.oldstyle.pnum
ENCODING -1
SWIDTH 545 0
DWIDTH 13 0
BBX 11 14 1 0
BITMAP
1F00
3F80
71C0
60C0
60C0
E060
C060
C060
C0E0
60C0
60C0
71C0
3F80
1F00
ENDCHAR
STARTCHAR seven.pnum
ENCODING -1
SWIDTH 458 0
DWIDTH 11 0
BBX 9 17 1 0
BITMAP
FF80
FF80
0180
0300
0300
0300
0600
0600
0C00
0C00
0C00
1800
1800
1800
3000
3000
7000
ENDCHAR
STARTCHAR b.ss06
ENCODING -1
SWIDTH 493 0
DWIDTH 12 0
BBX 9 18 2 0
BITMAP
C000
C000
C000
C000
C000
DE00
FF00
E300
C380
C180
C180
C180
C180
C180
C380
E300
FF00
DE00
ENDCHAR
STARTCHAR c.ss06
ENCODING -1
SWIDTH 460 0
DWIDTH 11 0
BBX 9 13 1 0
BITMAP
1E00
3F00
6380
E180
C180
C000
C000
C000
C000
E180
6380
3F00
1E00
ENDCHAR
STARTCHAR d.ss06
ENCODING -1
SWIDTH 503 0
DWIDTH 12 0
BBX 9 18 1 0
BITMAP
0180
0180
0180
0180
0180
1D80
3F80
7380
E180
C180
C180
C180
C180
C180
E180
7380
3F80
1C80
ENDCHAR
STARTCHAR g.ss06
ENCODING -1
SWIDTH 500 0
DWIDTH 12 0
BBX 9 18 1 -5
BITMAP
1C80
3F80
7180
6180
C180
C180
C180
C180
C180
6180
7180
3F80
1D80
0180
0180
2380
7F00
3E00
ENDCHAR
STARTCHAR o.ss06
ENCODING -1
SWIDTH 508 0
DWIDTH 12 0
BBX 10 13 1 0
BITMAP
1E00
3F00
7380
E180
C0C0
C0C0
C0C0
C0C0
C0C0
E1C0
7380
3F00
1E00
ENDCHAR
STARTCHAR p.ss06
ENCODING -1
SWIDTH 500 0
DWIDTH 12 0
BBX 9 18 2 -5
BITMAP
9C00
FF00
C700
C380
C180
C180
C180
C180
C180
C300
C700
FF00
FC00
C000
C000
C000
C000
C000
ENDCHAR
STARTCHAR q.ss06
ENCODING -1
SWIDTH 508 0
DWIDTH 12 0
BBX 9 18 1 -5
BITMAP
1D80
7F80
7380
E180
C180
C180
C180
C180
C180
E180
7380
7F80
1D80
0180
0180
0180
0180
0180
ENDCHAR
STARTCHAR e.ss07
ENCODING -1
SWIDTH 468 0
DWIDTH 11 0
BBX 9 13 1 0
BITMAP
1E00
3F00
6380
E180
C180
FF80
FF80
C000
C000
E000
7100
3F80
1F00
ENDCHAR
STARTCHAR g.ss07
ENCODING -1
SWIDTH 492 0
DWIDTH 12 0
BBX 9 18 1 -5
BITMAP
1C80
3F80
7380
6180
E180
C180
C180
C180
E180
6180
7380
3F80
1D80
0180
0180
2380
3F00
7E00
ENDCHAR
STARTCHAR one.pnum
ENCODING -1
SWIDTH 382 0
DWIDTH 9 0
BBX 6 17 1 0
BITMAP
0C
7C
FC
8C
0C
0C
0C
0C
0C
0C
0C
0C
0C
0C
0C
0C
0C
ENDCHAR
STARTCHAR ampersand.c2sc
ENCODING -1
SWIDTH 526 0
DWIDTH 13 0
BBX 11 14 1 0
BITMAP
1C00
3E00
7700
6300
7600
3E00
1C00
3CC0
6EC0
E6C0
C3C0
E380
7FC0
3EE0
ENDCHAR
STARTCHAR Lslash.c2sc
ENCODING -1
SWIDTH 411 0
DWIDTH 10 0
BBX 9 14 0 0
BITMAP
3000
3000
3000
3000
3000
3400
3C00
F800
F000
3000
3000
3000
3F80
3F80
ENDCHAR
STARTCHAR AE.c2sc
ENCODING -1
SWIDTH 676 0
DWIDTH 16 0
BBX 15 14 0 0
BITMAP
03FE
03FE
06C0
06C0
06C0
0CFC
0CFC
18C0
18C0
3FC0
3FC0
70C0
60FE
E0FE
ENDCHAR
STARTCHAR Thorn.c2sc
ENCODING -1
SWIDTH 440 0
DWIDTH 11 0
BBX 8 14 2 0
BITMAP
C0
C0
FC
FE
C7
C3
C3
C3
C7
FE
FC
C0
C0
C0
ENDCHAR
STARTCHAR Oslash.c2sc
ENCODING -1
SWIDTH 519 0
DWIDTH 12 0
BBX 10 14 1 0
BITMAP
1EC0
3F80
6180
E3C0
C2C0
C6C0
CCC0
CCC0
D8C0
D0C0
F1C0
6180
7F00
DE00
ENDCHAR
STARTCHAR Hbar.c2sc
ENCODING -1
SWIDTH 533 0
DWIDTH 13 0
BBX 11 14 1 0
BITMAP
60C0
60C0
FFE0
FFE0
60C0
60C0
7FC0
7FC0
60C0
60C0
60C0
60C0
60C0
60C0
ENDCHAR
STARTCHAR Eng.c2sc
ENCODING -1
SWIDTH 533 0
DWIDTH 13 0
BBX 9 19 2 -5
BITMAP
C180
E180
E180
F180
F180
D980
D980
CD80
CD80
C780
C380
C380
C180
C180
0180
0180
0180
0780
0700
ENDCHAR
STARTCHAR Dcroat.c2sc
ENCODING -1
SWIDTH 492 0
DWIDTH 12 0
BBX 11 14 0 0
BITMAP
3F00
3F80
31C0
30C0
30C0
3060
FC60
FC60
3060
30E0
30C0
31C0
3F80
3E00
ENDCHAR
STARTCHAR Eth.c2sc
ENCODING -1
SWIDTH 492 0
DWIDTH 12 0
BBX 11 14 0 0
BITMAP
3F00
3F80
31C0
30C0
30C0
3060
FC60
FC60
3060
30E0
30C0
31C0
3F80
3E00
ENDCHAR
STARTCHAR Tbar.c2sc
ENCODING -1
SWIDTH 456 0
DWIDTH 11 0
BBX 9 14 1 0
BITMAP
FF80
FF80
1C00
1C00
1C00
7F00
7F00
1C00
1C00
1C00
1C00
1C00
1C00
1C00
ENDCHAR
STARTCHAR Agrave.c2sc
ENCODING -1
SWIDTH 501 0
DWIDTH 12 0
BBX 12 18 0 0
BITMAP
3800
0C00
0600
0000
0600
0600
0F00
0F00
0F00
1980
1980
1980
30C0
3FC0
3FC0
6060
6060
E070
ENDCHAR
STARTCHAR Aacute.c2sc
ENCODING -1
SWIDTH 501 0
DWIDTH 12 0
BBX 12 18 0 0
BITMAP
01C0
0300
0600
0000
0600
0600
0F00
0F00
0F00
1980
1980
1980
30C0
3FC0
3FC0
6060
6060
E070
ENDCHAR
STARTCHAR Acircumflex.c2sc
ENCODING -1
SWIDTH 501 0
DWIDTH 12 0
BBX 12 18 0 0
BITMAP
0600
0F00
1980
0000
0600
0600
0F00
0F00
0F00
1980
1980
1980
30C0
3FC0
3FC0
6060
6060
E070
ENDCHAR
STARTCHAR Atilde.c2sc
ENCODING -1
SWIDTH 501 0
DWIDTH 12 0
BBX 12 19 0 0
BITMAP
1CC0
1F80
1380
0000
0000
0600
0600
0F00
0F00
0F00
1980
1980
1980
30C0
3FC0
3FC0
6060
6060
E070
ENDCHAR
STARTCHAR Adieresis.c2sc
ENCODING -1
SWIDTH 501 0
DWIDTH 12 0
BBX 12 18 0 0
BITMAP
39C0
39C0
0000
0000
0600
0600
0F00
0F00
0F00
1980
1980
1980
30C0
3FC0
3FC0
6060
6060
E070
ENDCHAR
STARTCHAR Aring.c2sc
ENCODING -1
SWIDTH 501 0
DWIDTH 12 0
BBX 12 20 0 0
BITMAP
0700
0900
0980
0900
0F00
0000
0600
0600
0F00
0F00
0F00
1980
1980
1980
30C0
3FC0
3FC0
6060
6060
E070
ENDCHAR
STARTCHAR Aringacute.c2sc
ENCODING -1
SWIDTH 501 0
DWIDTH 12 0
BBX 12 20 0 0
BITMAP
0180
0200
0000
0600
0900
0900
0600
0600
0F00
0F00
0F00
1980
1980
1980
30C0
3FC0
3FC0
6060
6060
E070
ENDCHAR
STARTCHAR Ccedilla.c2sc
ENCODING -1
SWIDTH 490 0
DWIDTH 12 0
BBX 10 19 1 -5
BITMAP
1E00
3F80
7180
60C0
E0C0
C000
C000
C000
C000
E0C0
60C0
7180
3F80
1F00
0C00
0E00
0200
0200
0C00
ENDCHAR
STARTCHAR Egrave.c2sc
ENCODING -1
SWIDTH 428 0
DWIDTH 10 0
BBX 8 18 2 0
BITMAP
E0
70
38
00
FE
FE
C0
C0
C0
C0
FE
FE
C0
C0
C0
C0
FF
FF
ENDCHAR
STARTCHAR Eacute.c2sc
ENCODING -1
SWIDTH 428 0
DWIDTH 10 0
BBX 8 18 2 0
BITMAP
0E
1C
38
00
FE
FE
C0
C0
C0
C0
FE
FE
C0
C0
C0
C0
FF
FF
ENDCHAR
STARTCHAR Ecircumflex.c2sc
ENCODING -1
SWIDTH 428 0
DWIDTH 10 0
BBX 8 18 2 0
BITMAP
38
6C
E6
00
FE
FE
C0
C0
C0
C0
FE
FE
C0
C0
C0
C0
FF
FF
ENDCHAR
STARTCHAR Edieresis.c2sc
ENCODING -1
SWIDTH 428 0
DWIDTH 10 0
BBX 8 18 2 0
BITMAP
C6
C6
00
00
FE
FE
C0
C0
C0
C0
FE
FE
C0
C0
C0
C0
FF
FF
ENDCHAR
STARTCHAR Igrave.c2sc
ENCODING -1
SWIDTH 221 0
DWIDTH 5 0
BBX 5 18 -1 0
BITMAP
E0
30
18
00
18
18
18
18
18
18
18
18
18
18
18
18
18
18
ENDCHAR
STARTCHAR Iacute.c2sc
ENCODING -1
SWIDTH 221 0
DWIDTH 5 0
BBX 5 18 1 0
BITMAP
38
70
E0
00
60
60
60
60
60
60
60
60
60
60
60
60
60
60
ENDCHAR
STARTCHAR Icircumflex.c2sc
ENCODING -1
SWIDTH 221 0
DWIDTH 5 0
BBX 6 18 0 0
BITMAP
30
58
CC
00
30
30
30
30
30
30
30
30
30
30
30
30
30
30
ENDCHAR
STARTCHAR Idieresis.c2sc
ENCODING -1
SWIDTH 221 0
DWIDTH 5 0
BBX 8 18 -1 0
BITMAP
C6
C7
00
00
18
18
18
18
18
18
18
18
18
18
18
18
18
18
ENDCHAR
STARTCHAR Ntilde.c2sc
ENCODING -1
SWIDTH 533 0
DWIDTH 13 0
BBX 9 19 2 0
BITMAP
3300
7F00
4E00
0000
0000
C180
C180
E180
E180
F180
D980
D980
CD80
CD80
C780
C780
C380
C380
C180
ENDCHAR
STARTCHAR Ograve.c2sc
ENCODING -1
SWIDTH 519 0
DWIDTH 12 0
BBX 10 18 1 0
BITMAP
3800
1C00
0E00
0000
1E00
3F00
6180
E1C0
C0C0
C0C0
C0C0
C0C0
C0C0
C0C0
E1C0
6180
3F00
1E00
ENDCHAR
STARTCHAR Oacute.c2sc
ENCODING -1
SWIDTH 519 0
DWIDTH 12 0
BBX 10 18 1 0
BITMAP
0380
0600
0C00
0000
1E00
3F00
6180
E1C0
C0C0
C0C0
C0C0
C0C0
C0C0
C0C0
E1C0
6180
3F00
1E00
ENDCHAR
STARTCHAR Ocircumflex.c2sc
ENCODING -1
SWIDTH 519 0
DWIDTH 12 0
BBX 10 18 1 0
BITMAP
0C00
1E00
3300
0000
1E00
3F00
6180
E1C0
C0C0
C0C0
C0C0
C0C0
C0C0
C0C0
E1C0
6180
3F00
1E00
ENDCHAR
STARTCHAR Otilde.c2sc
ENCODING -1
SWIDTH 519 0
DWIDTH 12 0
BBX 10 19 1 0
BITMAP
1980
3F80
2700
0000
0000
1E00
3F00
6180
E1C0
C0C0
C0C0
C0C0
C0C0
C0C0
C0C0
E1C0
6180
3F00
1E00
ENDCHAR
STARTCHAR Odieresis.c2sc
ENCODING -1
SWIDTH 519 0
DWIDTH 12 0
BBX 10 18 1 0
BITMAP
3180
7180
0000
0000
1E00
3F00
6180
E1C0
C0C0
C0C0
C0C0
C0C0
C0C0
C0C0
E1C0
6180
3F00
1E00
ENDCHAR
STARTCHAR Ugrave.c2sc
ENCODING -1
SWIDTH 488 0
DWIDTH 12 0
BBX 10 18 1 0
BITMAP
7000
1800
0C00
0000
C1C0
C1C0
C1C0
C1C0
C1C0
C1C0
C1C0
C1C0
C1C0
C1C0
6180
6180
7F80
1E00
ENDCHAR
STARTCHAR Uacute.c2sc
ENCODING -1
SWIDTH 488 0
DWIDTH 12 0
BBX 10 18 1 0
BITMAP
0780
0600
0C00
0000
C1C0
C1C0
C1C0
C1C0
C1C0
C1C0
C1C0
C1C0
C1C0
C1C0
6180
6180
7F80
1E00
ENDCHAR
STARTCHAR Ucircumflex.c2sc
ENCODING -1
SWIDTH 488 0
DWIDTH 12 0
BBX 10 18 1 0
BITMAP
0C00
1E00
3300
0000
C1C0
C1C0
C1C0
C1C0
C1C0
C1C0
C1C0
C1C0
C1C0
C1C0
6180
6180
7F80
1E00
ENDCHAR
STARTCHAR Udieresis.c2sc
ENCODING -1
SWIDTH 488 0
DWIDTH 12 0
BBX 10 18 1 0
BITMAP
6380
7380
0000
0000
C1C0
C1C0
C1C0
C1C0
C1C0
C1C0
C1C0
C1C0
C1C0
C1C0
6180
6180
7F80
1E00
ENDCHAR
STARTCHAR Yacute.c2sc
ENCODING -1
SWIDTH 458 0
DWIDTH 11 0
BBX 11 18 0 0
BITMAP
0380
0700
0E00
0000
E0E0
60C0
71C0
3180
3B80
1B00
1B00
0E00
0E00
0E00
0E00
0E00
0E00
0E00
ENDCHAR
STARTCHAR Amacron.c2sc
ENCODING -1
SWIDTH 501 0
DWIDTH 12 0
BBX 12 17 0 0
BITMAP
1FC0
1FC0
0000
0600
0600
0F00
0F00
0F00
1980
1980
1980
30C0
3FC0
3FC0
6060
6060
E070
ENDCHAR
STARTCHAR Abreve.c2sc
ENCODING -1
SWIDTH 501 0
DWIDTH 12 0
BBX 12 18 0 0
BITMAP
3080
1980
0F00
0000
0600
0600
0F00
0F00
0F00
1980
1980
1980
30C0
3FC0
3FC0
6060
6060
E070
ENDCHAR
STARTCHAR Aogonek.c2sc
ENCODING -1
SWIDTH 501 0
DWIDTH 12 0
BBX 12 19 0 -5
BITMAP
0600
0600
0F00
0F00
0F00
1980
1980
1980
30C0
3FC0
3FC0
6060
6060
6060
8070
00C0
00C0
00E0
00E0
ENDCHAR
STARTCHAR Cacute.c2sc
ENCODING -1
SWIDTH 490 0
DWIDTH 12 0
BBX 10 18 1 0
BITMAP
0380
0600
0C00
0000
1E00
3F80
7180
60C0
E0C0
C000
C000
C000
C000
E0C0
60C0
7180
3F80
1F00
ENDCHAR
STARTCHAR Ccircumflex.c2sc
ENCODING -1
SWIDTH 490 0
DWIDTH 12 0
BBX 10 18 1 0
BITMAP
0C00
1E00
3300
0000
1E00
3F80
7180
60C0
E0C0
C000
C000
C000
C000
E0C0
60C0
7180
3F80
1F00
ENDCHAR
STARTCHAR Cdotaccent.c2sc
ENCODING -1
SWIDTH 490 0
DWIDTH 12 0
BBX 10 18 1 0
BITMAP
0C00
0C00
0000
0000
1E00
3F80
7180
60C0
E0C0
C000
C000
C000
C000
E0C0
60C0
7180
3F80
1F00
ENDCHAR
STARTCHAR Ccaron.c2sc
ENCODING -1
SWIDTH 490 0
DWIDTH 12 0
BBX 10 18 1 0
BITMAP
3300
1E00
0C00
0000
1E00
3F80
7180
60C0
E0C0
C000
C000
C000
C000
E0C0
60C0
7180
3F80
1F00
ENDCHAR
STARTCHAR Dcaron.c2sc
ENCODING -1
SWIDTH 492 0
DWIDTH 12 0
BBX 9 18 2 0
BITMAP
CC00
7800
3000
0000
FC00
FE00
C700
C300
C300
C180
C180
C180
C180
C380
C300
C700
FE00
F800
ENDCHAR
STARTCHAR Emacron.c2sc
ENCODING -1
SWIDTH 428 0
DWIDTH 10 0
BBX 8 17 2 0
BITMAP
FE
FE
00
FE
FE
C0
C0
C0
C0
FE
FE
C0
C0
C0
C0
FF
FF
ENDCHAR
STARTCHAR Ebreve.c2sc
ENCODING -1
SWIDTH 428 0
DWIDTH 10 0
BBX 8 18 2 0
BITMAP
C6
C6
7C
00
FE
FE
C0
C0
C0
C0
FE
FE
C0
C0
C0
C0
FF
FF
ENDCHAR
STARTCHAR Edotaccent.c2sc
ENCODING -1
SWIDTH 428 0
DWIDTH 10 0
BBX 8 18 2 0
BITMAP
38
38
00
00
FE
FE
C0
C0
C0
C0
FE
FE
C0
C0
C0
C0
FF
FF
ENDCHAR
STARTCHAR Eogonek.c2sc
ENCODING -1
SWIDTH 428 0
DWIDTH 10 0
BBX 8 19 1 -5
BITMAP
FF
FF
C0
C0
C0
C0
FF
FF
C0
C0
C0
C0
FF
FF
06
04
0C
0F
07
ENDCHAR
STARTCHAR Ecaron.c2sc
ENCODING -1
SWIDTH 428 0
DWIDTH 10 0
BBX 8 18 2 0
BITMAP
E6
28
38
00
FE
FE
C0
C0
C0
C0
FE
FE
C0
C0
C0
C0
FF
FF
ENDCHAR
STARTCHAR Gcircumflex.c2sc
ENCODING -1
SWIDTH 509 0
DWIDTH 12 0
BBX 10 18 1 0
BITMAP
0C00
1E00
3300
0000
1E00
3F80
6180
E1C0
C000
C000
C000
C7C0
C7C0
C0C0
E0C0
71C0
3F80
1F00
ENDCHAR
STARTCHAR Gbreve.c2sc
ENCODING -1
SWIDTH 509 0
DWIDTH 12 0
BBX 10 18 1 0
BITMAP
6100
3300
1E00
0000
1E00
3F80
6180
E1C0
C000
C000
C000
C7C0
C7C0
C0C0
E0C0
71C0
3F80
1F00
ENDCHAR
STARTCHAR Gdotaccent.c2sc
ENCODING -1
SWIDTH 509 0
DWIDTH 12 0
BBX 10 18 1 0
BITMAP
0C00
0C00
0000
0000
1E00
3F80
6180
E1C0
C000
C000
C000
C7C0
C7C0
C0C0
E0C0
71C0
3F80
1F00
ENDCHAR
STARTCHAR uni0122.c2sc
ENCODING -1
SWIDTH 509 0
DWIDTH 12 0
BBX 10 20 1 -6
BITMAP
1E00
3F80
6180
E1C0
C000
C000
C000
C7C0
C7C0
C0C0
E0C0
71C0
3F80
1F00
0000
0C00
0C00
0C00
0C00
1800
ENDCHAR
STARTCHAR Hcircumflex.c2sc
ENCODING -1
SWIDTH 533 0
DWIDTH 13 0
BBX 9 18 2 0
BITMAP
1800
3400
6600
0000
C180
C180
C180
C180
C180
C180
FF80
FF80
C180
C180
C180
C180
C180
C180
ENDCHAR
STARTCHAR Itilde.c2sc
ENCODING -1
SWIDTH 221 0
DWIDTH 5 0
BBX 7 19 -1 0
BITMAP
72
FE
CC
00
00
18
18
18
18
18
18
18
18
18
18
18
18
18
18
ENDCHAR
STARTCHAR Imacron.c2sc
ENCODING -1
SWIDTH 221 0
DWIDTH 5 0
BBX 7 17 -1 0
BITMAP
FE
FE
00
18
18
18
18
18
18
18
18
18
18
18
18
18
18
ENDCHAR
STARTCHAR Ibreve.c2sc
ENCODING -1
SWIDTH 221 0
DWIDTH 5 0
BBX 7 18 -1 0
BITMAP
C6
C6
7C
00
18
18
18
18
18
18
18
18
18
18
18
18
18
18
ENDCHAR
STARTCHAR Iogonek.c2sc
ENCODING -1
SWIDTH 221 0
DWIDTH 5 0
BBX 4 19 0 -5
BITMAP
30
30
30
30
30
30
30
30
30
30
30
30
30
30
60
40
C0
F0
70
ENDCHAR
STARTCHAR Idotaccent.c2sc
ENCODING -1
SWIDTH 221 0
DWIDTH 5 0
BBX 3 18 1 0
BITMAP
60
E0
00
00
60
60
60
60
60
60
60
60
60
60
60
60
60
60
ENDCHAR
STARTCHAR Jcircumflex.c2sc
ENCODING -1
SWIDTH 419 0
DWIDTH 10 0
BBX 9 18 1 0
BITMAP
0700
0D80
1980
0000
0300
0300
0300
0300
0300
0300
0300
0300
0300
0300
C700
C600
FE00
7C00
ENDCHAR
STARTCHAR uni0136.c2sc
ENCODING -1
SWIDTH 473 0
DWIDTH 11 0
BBX 10 20 1 -6
BITMAP
C1C0
C380
C700
C600
CC00
DC00
F800
FC00
EE00
C600
C700
C300
C180
C1C0
0000
0C00
0C00
1800
1800
1800
ENDCHAR
STARTCHAR Lacute.c2sc
ENCODING -1
SWIDTH 411 0
DWIDTH 10 0
BBX 8 18 1 0
BITMAP
38
70
E0
00
60
60
60
60
60
60
60
60
60
60
60
60
7F
7F
ENDCHAR
STARTCHAR uni013B.c2sc
ENCODING -1
SWIDTH 411 0
DWIDTH 10 0
BBX 7 20 2 -6
BITMAP
C0
C0
C0
C0
C0
C0
C0
C0
C0
C0
C0
C0
FE
FE
00
18
18
30
30
20
ENDCHAR
STARTCHAR Lcaron.c2sc
ENCODING -1
SWIDTH 411 0
DWIDTH 10 0
BBX 7 14 2 0
BITMAP
CC
CC
CC
D8
C8
C0
C0
C0
C0
C0
C0
C0
FE
FE
ENDCHAR
STARTCHAR Ldot.c2sc
ENCODING -1
SWIDTH 411 0
DWIDTH 10 0
BBX 7 14 2 0
BITMAP
C0
C0
C0
C0
C0
DC
DC
C0
C0
C0
C0
C0
FE
FE
ENDCHAR
STARTCHAR Nacute.c2sc
ENCODING -1
SWIDTH 533 0
DWIDTH 13 0
BBX 9 18 2 0
BITMAP
0700
0C00
1800
0000
C180
C180
E180
E180
F180
D980
D980
CD80
CD80
C780
C780
C380
C380
C180
ENDCHAR
STARTCHAR uni0145.c2sc
ENCODING -1
SWIDTH 533 0
DWIDTH 13 0
BBX 9 20 2 -6
BITMAP
C180
C180
E180
E180
F180
D980
D980
CD80
CD80
C780
C780
C380
C380
C180
0000
1800
1800
1800
1800
1000
ENDCHAR
STARTCHAR Ncaron.c2sc
ENCODING -1
SWIDTH 533 0
DWIDTH 13 0
BBX 9 18 2 0
BITMAP
6700
3400
1800
0000
C180
C180
E180
E180
F180
D980
D980
CD80
CD80
C780
C780
C380
C380
C180
ENDCHAR
STARTCHAR Omacron.c2sc
ENCODING -1
SWIDTH 519 0
DWIDTH 12 0
BBX 10 17 1 0
BITMAP
3F80
3F80
0000
1E00
3F00
6180
E1C0
C0C0
C0C0
C0C0
C0C0
C0C0
C0C0
E1C0
6180
3F00
1E00
ENDCHAR
STARTCHAR Obreve.c2sc
ENCODING -1
SWIDTH 519 0
DWIDTH 12 0
BBX 10 18 1 0
BITMAP
2180
3300
1E00
0000
1E00
3F00
6180
E1C0
C0C0
C0C0
C0C0
C0C0
C0C0
C0C0
E1C0
6180
3F00
1E00
ENDCHAR
STARTCHAR Ohungarumlaut.c2sc
ENCODING -1
SWIDTH 519 0
DWIDTH 12 0
BBX 10 19 1 0
BITMAP
0DC0
0D80
1B00
1B00
0000
1E00
3F00
6180
E1C0
C0C0
C0C0
C0C0
C0C0
C0C0
C0C0
E1C0
6180
3F00
1E00
ENDCHAR
STARTCHAR Racute.c2sc
ENCODING -1
SWIDTH 465 0
DWIDTH 11 0
BBX 10 18 1 0
BITMAP
0700
0C00
1800
0000
FE00
FF00
E380
E180
E180
E180
E380
FF00
FE00
E600
E300
E300
E180
E1C0
ENDCHAR
STARTCHAR uni0156.c2sc
ENCODING -1
SWIDTH 465 0
DWIDTH 11 0
BBX 10 20 1 -6
BITMAP
FE00
FF00
E380
E180
E180
E180
E380
FF00
FE00
E600
E300
E300
E180
E180
0040
0C00
0C00
1800
1800
1000
ENDCHAR
STARTCHAR Rcaron.c2sc
ENCODING -1
SWIDTH 465 0
DWIDTH 11 0
BBX 10 18 1 0
BITMAP
6700
3400
1800
0000
FE00
FF00
E380
E180
E180
E180
E380
FF00
FE00
E600
E300
E300
E180
E1C0
ENDCHAR
STARTCHAR Sacute.c2sc
ENCODING -1
SWIDTH 453 0
DWIDTH 11 0
BBX 9 18 1 0
BITMAP
0700
0E00
1C00
0000
3E00
7F00
E380
C180
E000
7000
3E00
1F00
0380
C180
C180
E380
7F00
3E00
ENDCHAR
STARTCHAR Scircumflex.c2sc
ENCODING -1
SWIDTH 453 0
DWIDTH 11 0
BBX 9 18 1 0
BITMAP
1C00
3600
3300
0000
3E00
7F00
E380
C180
E000
7000
3E00
1F00
0380
C180
C180
E380
7F00
3E00
ENDCHAR
STARTCHAR Scedilla.c2sc
ENCODING -1
SWIDTH 453 0
DWIDTH 11 0
BBX 9 19 1 -5
BITMAP
3E00
7F00
E380
C180
E000
7000
3E00
1F00
0380
C180
C180
E380
7F00
3E00
0C00
0E00
0600
0600
0C00
ENDCHAR
STARTCHAR Scaron.c2sc
ENCODING -1
SWIDTH 453 0
DWIDTH 11 0
BBX 9 18 1 0
BITMAP
7300
1600
0C00
0000
3E00
7F00
E380
C180
E000
7000
3E00
1F00
0380
C180
C180
E380
7F00
3E00
ENDCHAR
STARTCHAR uni021A.c2sc
ENCODING -1
SWIDTH 456 0
DWIDTH 11 0
BBX 9 20 1 -6
BITMAP
FF80
FF80
1C00
1C00
1C00
1C00
1C00
1C00
1C00
1C00
1C00
1C00
1C00
1C00
0000
0C00
0C00
1800
1800
1800
ENDCHAR
STARTCHAR Tcaron.c2sc
ENCODING -1
SWIDTH 456 0
DWIDTH 11 0
BBX 9 18 1 0
BITMAP
6700
1400
1C00
0000
FF80
FF80
1C00
1C00
1C00
1C00
1C00
1C00
1C00
1C00
1C00
1C00
1C00
1C00
ENDCHAR
STARTCHAR uni0162.c2sc
ENCODING -1
SWIDTH 456 0
DWIDTH 11 0
BBX 9 19 1 -5
BITMAP
FF80
FF80
1C00
1C00
1C00
1C00
1C00
1C00
1C00
1C00
1C00
1C00
1C00
1C00
0800
0C00
0600
0600
0C00
ENDCHAR
STARTCHAR Utilde.c2sc
ENCODING -1
SWIDTH 488 0
DWIDTH 12 0
BBX 10 19 1 0
BITMAP
3900
3F00
6600
0000
0000
C1C0
C1C0
C1C0
C1C0
C1C0
C1C0
C1C0
C1C0
C1C0
C1C0
6180
6180
7F80
1E00
ENDCHAR
STARTCHAR Umacron.c2sc
ENCODING -1
SWIDTH 488 0
DWIDTH 12 0
BBX 10 17 1 0
BITMAP
7F00
7F00
0000
C1C0
C1C0
C1C0
C1C0
C1C0
C1C0
C1C0
C1C0
C1C0
C1C0
6180
6180
7F80
1E00
ENDCHAR
STARTCHAR Ubreve.c2sc
ENCODING -1
SWIDTH 488 0
DWIDTH 12 0
BBX 10 18 1 0
BITMAP
6300
2300
1E00
0000
C1C0
C1C0
C1C0
C1C0
C1C0
C1C0
C1C0
C1C0
C1C0
C1C0
6180
6180
7F80
1E00
ENDCHAR
STARTCHAR Uring.c2sc
ENCODING -1
SWIDTH 488 0
DWIDTH 12 0
BBX 10 20 1 0
BITMAP
1C00
1200
2200
3200
1C00
0000
C1C0
C1C0
C1C0
C1C0
C1C0
C1C0
C1C0
C1C0
C1C0
C1C0
6180
6180
7F80
1E00
ENDCHAR
STARTCHAR Uhungarumlaut.c2sc
ENCODING -1
SWIDTH 488 0
DWIDTH 12 0
BBX 10 19 1 0
BITMAP
0DC0
1B80
1B00
3600
0000
C1C0
C1C0
C1C0
C1C0
C1C0
C1C0
C1C0
C1C0
C1C0
C1C0
6180
6180
7F80
1E00
ENDCHAR
STARTCHAR Uogonek.c2sc
ENCODING -1
SWIDTH 488 0
DWIDTH 12 0
BBX 10 19 1 -5
BITMAP
C1C0
C1C0
C1C0
C1C0
C1C0
C1C0
C1C0
C1C0
C1C0
C1C0
6180
6180
7F80
1E00
0400
0C00
0C00
0F00
0600
ENDCHAR
STARTCHAR Wcircumflex.c2sc
ENCODING -1
SWIDTH 655 0
DWIDTH 16 0
BBX 14 18 1 0
BITMAP
0300
0780
0CC0
0000
C30C
C30C
C38C
678C
6798
6698
6498
64D8
2CD8
3C50
3870
3870
3870
1870
ENDCHAR
STARTCHAR Ycircumflex.c2sc
ENCODING -1
SWIDTH 458 0
DWIDTH 11 0
BBX 11 18 0 0
BITMAP
0E00
1B00
3380
0000
E0E0
60C0
71C0
3180
3B80
1B00
1B00
0E00
0E00
0E00
0E00
0E00
0E00
0E00
ENDCHAR
STARTCHAR Ydieresis.c2sc
ENCODING -1
SWIDTH 458 0
DWIDTH 11 0
BBX 11 18 0 0
BITMAP
3180
3180
0000
0000
E0E0
60C0
71C0
3180
3B80
1B00
1B00
0E00
0E00
0E00
0E00
0E00
0E00
0E00
ENDCHAR
STARTCHAR Zacute.c2sc
ENCODING -1
SWIDTH 454 0
DWIDTH 11 0
BBX 9 18 1 0
BITMAP
0700
0E00
1C00
0000
FF80
FF80
0300
0700
0600
0C00
0C00
1800
3800
3000
6000
E000
FF80
FF80
ENDCHAR
STARTCHAR Zdotaccent.c2sc
ENCODING -1
SWIDTH 454 0
DWIDTH 11 0
BBX 9 18 1 0
BITMAP
1C00
1C00
0000
0000
FF80
FF80
0300
0700
0600
0C00
0C00
1800
3800
3000
6000
E000
FF80
FF80
ENDCHAR
STARTCHAR Zcaron.c2sc
ENCODING -1
SWIDTH 454 0
DWIDTH 11 0
BBX 9 18 1 0
BITMAP
6700
1400
1C00
0000
FF80
FF80
0300
0700
0600
0C00
0C00
1800
3800
3000
6000
E000
FF80
FF80
ENDCHAR
STARTCHAR two.pnum
ENCODING -1
SWIDTH 493 0
DWIDTH 12 0
BBX 10 17 1 0
BITMAP
1E00
7F00
6380
E180
C180
0180
0180
0300
0300
0600
0C00
1C00
3800
3000
6000
FFC0
FFC0
ENDCHAR
STARTCHAR three.pnum
ENCODING -1
SWIDTH 493 0
DWIDTH 12 0
BBX 9 17 1 0
BITMAP
1E00
7F00
6380
E180
C180
0180
0380
1F00
1F00
0380
0180
0180
C180
E180
6380
7F00
1E00
ENDCHAR
STARTCHAR four.pnum
ENCODING -1
SWIDTH 493 0
DWIDTH 12 0
BBX 10 17 1 0
BITMAP
0300
0700
0700
0F00
0F00
1B00
1B00
3300
2300
6300
C300
FFC0
FFC0
0300
0300
0300
0300
ENDCHAR
STARTCHAR five.pnum
ENCODING -1
SWIDTH 493 0
DWIDTH 12 0
BBX 9 17 2 0
BITMAP
7F00
7F00
6000
6000
6000
C000
DE00
FF00
C300
0380
0180
0180
C180
C380
E300
7F00
3C00
ENDCHAR
STARTCHAR six.pnum
ENCODING -1
SWIDTH 503 0
DWIDTH 12 0
BBX 9 17 2 0
BITMAP
0E00
3E00
7000
6000
E000
C000
DE00
FF00
E300
C180
C180
C180
C180
E180
6300
7F00
3E00
ENDCHAR
STARTCHAR eight.pnum
ENCODING -1
SWIDTH 513 0
DWIDTH 12 0
BBX 9 17 2 0
BITMAP
3C00
7F00
E300
C300
C300
C300
6300
7E00
7E00
E300
C380
C180
C180
C380
E300
7F00
3E00
ENDCHAR
STARTCHAR nine.pnum
ENCODING -1
SWIDTH 503 0
DWIDTH 12 0
BBX 9 17 1 0
BITMAP
1E00
3F00
7380
6180
C180
C180
C180
C180
6180
6380
7F80
1D80
0180
0300
0700
3E00
3800
ENDCHAR
STARTCHAR zero.pnum
ENCODING -1
SWIDTH 513 0
DWIDTH 12 0
BBX 9 17 2 0
BITMAP
3C00
7E00
E700
C300
C380
C180
C180
C180
C180
C180
C180
C180
C380
C300
E700
7E00
3C00
ENDCHAR
STARTCHAR G_acutecomb.ccmp
ENCODING -1
SWIDTH 590 0
DWIDTH 14 0
BBX 11 21 1 0
BITMAP
0380
0700
0600
0000
1F80
3FC0
70E0
6060
6060
E000
E000
E000
E000
E3E0
E3E0
E060
6060
6060
7060
3FE0
0F80
ENDCHAR
STARTCHAR g_acutecomb.ccmp
ENCODING -1
SWIDTH 492 0
DWIDTH 12 0
BBX 9 23 1 -5
BITMAP
0700
0E00
1C00
0000
0000
3D80
7F80
6380
E180
C180
C180
C180
C180
C180
E180
6380
7F80
3D80
0180
0180
6380
7F00
1E00
ENDCHAR
STARTCHAR N_gravecomb.ccmp
ENCODING -1
SWIDTH 619 0
DWIDTH 15 0
BBX 11 21 2 0
BITMAP
3800
1C00
0E00
0000
C060
E060
E060
F060
F060
D860
DC60
CC60
CE60
C660
C360
C360
C1E0
C1E0
C0E0
C0E0
C060
ENDCHAR
STARTCHAR n_gravecomb.ccmp
ENCODING -1
SWIDTH 483 0
DWIDTH 12 0
BBX 8 18 2 0
BITMAP
E0
30
18
00
00
DE
FF
E3
C3
C3
C3
C3
C3
C3
C3
C3
C3
C3
ENDCHAR
STARTCHAR A_uni030F.ccmp
ENCODING -1
SWIDTH 576 0
DWIDTH 14 0
BBX 12 21 1 0
BITMAP
7E00
3E00
1B00
0000
0600
0600
0F00
0F00
0F00
1980
1980
1980
30C0
30C0
30C0
7FE0
7FE0
6060
E070
C030
C030
ENDCHAR
STARTCHAR a_uni030F.ccmp
ENCODING -1
SWIDTH 479 0
DWIDTH 12 0
BBX 9 18 1 0
BITMAP
FC00
7C00
3600
0000
0000
1E00
3F00
6180
6180
0180
1F80
3F80
7180
6180
6180
6380
7F80
3D80
ENDCHAR
STARTCHAR E_uni030F.ccmp
ENCODING -1
SWIDTH 496 0
DWIDTH 12 0
BBX 10 21 1 0
BITMAP
FC00
7600
1F00
0000
7FC0
7FC0
6000
6000
6000
6000
6000
7F80
7F80
6000
6000
6000
6000
6000
6000
7FC0
7FC0
ENDCHAR
STARTCHAR e_uni030F.ccmp
ENCODING -1
SWIDTH 468 0
DWIDTH 11 0
BBX 10 18 0 0
BITMAP
EE00
3600
1B00
0000
0000
0F00
3F80
31C0
60C0
60C0
7FC0
7FC0
6000
6000
6000
30C0
3FC0
1F00
ENDCHAR
STARTCHAR I_uni030F.ccmp
ENCODING -1
SWIDTH 250 0
DWIDTH 6 0
BBX 7 21 -2 0
BITMAP
FC
7C
3E
00
0C
0C
0C
0C
0C
0C
0C
0C
0C
0C
0C
0C
0C
0C
0C
0C
0C
ENDCHAR
STARTCHAR dotlessi_uni030F.ccmp
ENCODING -1
SWIDTH 234 0
DWIDTH 6 0
BBX 8 18 -3 0
BITMAP
EE
36
1B
00
00
06
06
06
06
06
06
06
06
06
06
06
06
06
ENDCHAR
STARTCHAR O_uni030F.ccmp
ENCODING -1
SWIDTH 600 0
DWIDTH 14 0
BBX 12 21 1 0
BITMAP
7E00
3B00
1F00
0000
0F80
3FC0
70E0
6060
6060
C070
C030
C030
C030
C030
C030
C070
6060
6060
70E0
3FC0
1F80
ENDCHAR
STARTCHAR o_uni030F.ccmp
ENCODING -1
SWIDTH 501 0
DWIDTH 12 0
BBX 10 18 1 0
BITMAP
FC00
7C00
3600
0000
0000
1E00
7F00
6380
E1C0
C0C0
C0C0
C0C0
C0C0
C0C0
E1C0
6180
7F00
1E00
ENDCHAR
STARTCHAR R_uni030F.ccmp
ENCODING -1
SWIDTH 530 0
DWIDTH 13 0
BBX 11 21 1 0
BITMAP
FC00
7600
3E00
0000
7F00
7FC0
60C0
60E0
6060
6060
60E0
61C0
7FC0
7F00
6380
6180
6180
60C0
60C0
6060
6060
ENDCHAR
STARTCHAR r_uni030F.ccmp
ENCODING -1
SWIDTH 304 0
DWIDTH 7 0
BBX 8 18 -1 0
BITMAP
FC
76
3E
00
00
37
3F
38
38
30
30
30
30
30
30
30
30
30
ENDCHAR
STARTCHAR U_uni030F.ccmp
ENCODING -1
SWIDTH 561 0
DWIDTH 13 0
BBX 11 21 1 0
BITMAP
EE00
3600
1B00
0000
C060
C060
C060
C060
C060
C060
C060
C060
C060
C060
C060
C060
C060
E0E0
71C0
7FC0
1F00
ENDCHAR
STARTCHAR u_uni030F.ccmp
ENCODING -1
SWIDTH 483 0
DWIDTH 12 0
BBX 10 18 0 0
BITMAP
EE00
3600
1B00
0000
0000
30C0
30C0
30C0
30C0
30C0
30C0
30C0
30C0
30C0
30C0
31C0
3FC0
1EC0
ENDCHAR
STARTCHAR Upsilon1_acutecomb.ccmp
ENCODING -1
SWIDTH 514 0
DWIDTH 12 0
BBX 15 19 -3 0
BITMAP
6000
C000
CE06
CE0E
070C
0318
0318
0198
01B0
01F0
00F0
00E0
0060
0060
0060
0060
0060
0060
0060
ENDCHAR
STARTCHAR B_dotbelowcomb.ccmp
ENCODING -1
SWIDTH 545 0
DWIDTH 13 0
BBX 10 21 2 -4
BITMAP
FE00
FF80
C380
C180
C180
C180
C380
FF00
FF00
C180
C1C0
C1C0
C0C0
C1C0
C180
FF80
FE00
0000
0000
1800
1C00
ENDCHAR
STARTCHAR b_dotbelowcomb.ccmp
ENCODING -1
SWIDTH 493 0
DWIDTH 12 0
BBX 9 22 2 -4
BITMAP
C000
C000
C000
C000
C000
DE00
FF00
E300
C380
C180
C180
C180
C180
C180
C380
E300
FF00
DE00
0000
0000
1800
1800
ENDCHAR
STARTCHAR D_dotbelowcomb.ccmp
ENCODING -1
SWIDTH 570 0
DWIDTH 14 0
BBX 10 21 2 -4
BITMAP
FE00
FF00
C380
C1C0
C0C0
C0C0
C0C0
C0C0
C0C0
C0C0
C0C0
C0C0
C0C0
C1C0
C380
FF00
FE00
0000
0000
1800
1C00
ENDCHAR
STARTCHAR d_dotbelowcomb.ccmp
ENCODING -1
SWIDTH 496 0
DWIDTH 12 0
BBX 9 22 1 -4
BITMAP
0180
0180
0180
0180
0180
3D80
7F80
6380
E180
C180
C180
C180
C180
C180
E180
6380
7F80
3D80
0000
0000
0C00
0E00
ENDCHAR
STARTCHAR D_uniF6C3.ccmp
ENCODING -1
SWIDTH 570 0
DWIDTH 14 0
BBX 10 23 2 -6
BITMAP
FE00
FF00
C380
C1C0
C0C0
C0C0
C0C0
C0C0
C0C0
C0C0
C0C0
C0C0
C0C0
C1C0
C380
FF00
FE00
0000
1800
1800
1800
1800
1000
ENDCHAR
STARTCHAR d_uniF6C3.ccmp
ENCODING -1
SWIDTH 496 0
DWIDTH 12 0
BBX 9 24 1 -6
BITMAP
0180
0180
0180
0180
0180
3D80
7F80
6380
E180
C180
C180
C180
C180
C180
E180
6380
7F80
3D80
0000
0C00
0C00
0C00
0C00
0800
ENDCHAR
STARTCHAR H_dotbelowcomb.ccmp
ENCODING -1
SWIDTH 620 0
DWIDTH 15 0
BBX 11 21 2 -4
BITMAP
C060
C060
C060
C060
C060
C060
C060
FFE0
FFE0
C060
C060
C060
C060
C060
C060
C060
C060
0000
0000
0C00
0C00
ENDCHAR
STARTCHAR h_dotbelowcomb.ccmp
ENCODING -1
SWIDTH 482 0
DWIDTH 12 0
BBX 8 22 2 -4
BITMAP
C0
C0
C0
C0
C0
DE
FF
E3
C3
C3
C3
C3
C3
C3
C3
C3
C3
C3
00
00
18
18
ENDCHAR
STARTCHAR K_acutecomb.ccmp
ENCODING -1
SWIDTH 544 0
DWIDTH 13 0
BBX 11 21 2 0
BITMAP
0700
0C00
1800
0000
C0E0
C180
C380
C700
C600
CC00
DC00
F800
FC00
EC00
EE00
C700
C300
C380
C180
C1C0
C0E0
ENDCHAR
STARTCHAR k_acutecomb.ccmp
ENCODING -1
SWIDTH 450 0
DWIDTH 11 0
BBX 9 22 2 0
BITMAP
0E00
1C00
3800
0000
C000
C000
C000
C000
C000
C700
C600
CC00
DC00
D800
F000
F800
F800
CC00
CE00
C600
C700
C380
ENDCHAR
STARTCHAR K_dotbelowcomb.ccmp
ENCODING -1
SWIDTH 544 0
DWIDTH 13 0
BBX 11 20 2 -3
BITMAP
C0E0
C180
C380
C700
C600
CC00
DC00
F800
FC00
EC00
EE00
C700
C300
C380
C180
C1C0
C0E0
0000
0C00
1C00
ENDCHAR
STARTCHAR k_dotbelowcomb.ccmp
ENCODING -1
SWIDTH 450 0
DWIDTH 11 0
BBX 9 21 2 -3
BITMAP
C000
C000
C000
C000
C000
C700
C600
CC00
DC00
D800
F000
F800
F800
CC00
CE00
C600
C700
C300
0080
3000
3800
ENDCHAR
STARTCHAR L_dotbelowcomb.ccmp
ENCODING -1
SWIDTH 475 0
DWIDTH 11 0
BBX 9 21 2 -4
BITMAP
C000
C000
C000
C000
C000
C000
C000
C000
C000
C000
C000
C000
C000
C000
C000
FF80
FF80
0000
0000
1800
1C00
ENDCHAR
STARTCHAR l_dotbelowcomb.ccmp
ENCODING -1
SWIDTH 229 0
DWIDTH 6 0
BBX 3 22 1 -4
BITMAP
60
60
60
60
60
60
60
60
60
60
60
60
60
60
60
60
60
60
00
00
60
E0
ENDCHAR
STARTCHAR M_dotbelowcomb.ccmp
ENCODING -1
SWIDTH 755 0
DWIDTH 18 0
BBX 14 21 2 -4
BITMAP
E01C
E01C
E01C
F03C
F03C
F03C
D86C
D86C
D86C
CCCC
CCCC
CCCC
C78C
C78C
C78C
C30C
C30C
0000
0000
0300
0300
ENDCHAR
STARTCHAR m_dotbelowcomb.ccmp
ENCODING -1
SWIDTH 752 0
DWIDTH 18 0
BBX 14 17 2 -4
BITMAP
9C78
FEFC
C78C
C30C
C30C
C30C
C30C
C30C
C30C
C30C
C30C
C30C
C30C
0000
0000
0300
0300
ENDCHAR
STARTCHAR N_dotbelowcomb.ccmp
ENCODING -1
SWIDTH 619 0
DWIDTH 15 0
BBX 11 21 2 -4
BITMAP
C060
E060
E060
F060
F060
D860
DC60
CC60
CE60
C660
C360
C360
C1E0
C1E0
C0E0
C0E0
C060
0000
0000
0C00
0E00
ENDCHAR
STARTCHAR n_dotbelowcomb.ccmp
ENCODING -1
SWIDTH 483 0
DWIDTH 12 0
BBX 8 17 2 -4
BITMAP
DE
FF
E3
C3
C3
C3
C3
C3
C3
C3
C3
C3
C3
00
00
18
38
ENDCHAR
STARTCHAR O_tildecomb_acutecomb.ccmp
ENCODING -1
SWIDTH 600 0
DWIDTH 14 0
BBX 12 24 1 0
BITMAP
0180
0300
0200
0400
0E80
0B80
0000
0F80
3FC0
70E0
6060
6060
C070
C030
C030
C030
C030
C030
C070
6060
6060
70E0
3FC0
1F80
ENDCHAR
STARTCHAR P_acutecomb.ccmp
ENCODING -1
SWIDTH 554 0
DWIDTH 13 0
BBX 10 21 2 0
BITMAP
0700
0C00
1800
0000
FE00
FF80
C1C0
C0C0
C0C0
C0C0
C0C0
C0C0
C1C0
FF80
FF00
C000
C000
C000
C000
C000
C000
ENDCHAR
STARTCHAR p_acutecomb.ccmp
ENCODING -1
SWIDTH 493 0
DWIDTH 12 0
BBX 9 23 2 -5
BITMAP
0700
0E00
1C00
0000
0000
DE00
FF00
C300
C380
C180
C180
C180
C180
C180
C380
C300
FF00
DE00
C000
C000
C000
C000
C000
ENDCHAR
STARTCHAR R_dotbelowcomb.ccmp
ENCODING -1
SWIDTH 530 0
DWIDTH 13 0
BBX 10 21 2 -4
BITMAP
FE00
FF80
C180
C1C0
C0C0
C0C0
C1C0
C380
FF80
FE00
C700
C300
C300
C180
C180
C0C0
C0C0
0000
0000
1800
1800
ENDCHAR
STARTCHAR r_dotbelowcomb.ccmp
ENCODING -1
SWIDTH 304 0
DWIDTH 7 0
BBX 6 17 1 -4
BITMAP
DC
FC
E0
E0
C0
C0
C0
C0
C0
C0
C0
C0
C0
00
00
60
E0
ENDCHAR
STARTCHAR S_dotbelowcomb.ccmp
ENCODING -1
SWIDTH 518 0
DWIDTH 12 0
BBX 10 21 1 -4
BITMAP
1E00
7F80
6180
E0C0
C0C0
E000
6000
7C00
1F00
0780
01C0
00C0
C0C0
C0C0
61C0
7F80
1F00
0000
0000
0C00
0E00
ENDCHAR
STARTCHAR s_dotbelowcomb.ccmp
ENCODING -1
SWIDTH 455 0
DWIDTH 11 0
BBX 9 17 1 -4
BITMAP
3E00
7F00
6300
6180
6000
7800
3E00
0700
0380
C180
E380
7F00
3E00
0000
0000
0C00
0C00
ENDCHAR
STARTCHAR T_dotbelowcomb.ccmp
ENCODING -1
SWIDTH 520 0
DWIDTH 13 0
BBX 11 21 1 -4
BITMAP
FFE0
FFE0
0C00
0C00
0C00
0C00
0C00
0C00
0C00
0C00
0C00
0C00
0C00
0C00
0C00
0C00
0C00
0000
0000
0C00
0C00
ENDCHAR
STARTCHAR t_dotbelowcomb.ccmp
ENCODING -1
SWIDTH 295 0
DWIDTH 7 0
BBX 6 20 0 -4
BITMAP
30
30
30
FC
FC
30
30
30
30
30
30
30
30
30
3C
1C
00
00
0C
1C
ENDCHAR
STARTCHAR U_tildecomb_acutecomb.ccmp
ENCODING -1
SWIDTH 561 0
DWIDTH 13 0
BBX 11 24 1 0
BITMAP
0300
0200
0600
0000
0D80
1700
0000
C060
C060
C060
C060
C060
C060
C060
C060
C060
C060
C060
C060
C060
E0E0
71C0
7FC0
1F00
ENDCHAR
STARTCHAR V_tildecomb.ccmp
ENCODING -1
SWIDTH 560 0
DWIDTH 13 0
BBX 13 21 0 0
BITMAP
0E40
1FC0
1980
0000
E038
6030
6030
7070
3060
3060
3060
18C0
18C0
18C0
0D80
0D80
0D80
0D80
0700
0700
0700
ENDCHAR
ENDFONT
